<svg width="1200" height="1201" viewBox="0 0 1200 1201" fill="none" xmlns="http://www.w3.org/2000/svg">
<rect width="1200" height="1200" transform="translate(0 0.441406)" fill="black"/>
<g clip-path="url(#clip0_235_384)">
<path d="M933.847 441.047L836.29 538.604L907.555 807.282L1005.69 709.144L933.847 441.047Z" fill="#223F4C"/>
<path d="M294.309 391.739L427.802 428.23L625.361 230.672L491.867 194.181L294.309 391.739Z" fill="#73BF95"/>
<path d="M427.802 428.231L294.309 391.739L364.305 661.712L499.292 701.15L427.802 428.231Z" fill="#FFE41F"/>
<path d="M194.321 491.726L294.309 391.738L364.305 661.711L266.154 759.863L194.321 491.726Z" fill="#548C70"/>
<path d="M364.305 661.713L266.154 759.865L538.743 836.15L636.868 738.025L364.305 661.713Z" fill="#F9B815"/>
<path d="M538.743 836.15L266.154 759.864L303.015 897.427L574.666 970.212L538.743 836.15Z" fill="#3A6D63"/>
<path d="M772.224 772.653L907.554 807.282L708.715 1006.12L574.666 970.212L772.224 772.653Z" fill="#2B5959"/>
<path d="M772.225 772.652L907.555 807.28L836.29 538.602L699.705 500.737L772.225 772.652Z" fill="#D86D16"/>
<path d="M772.225 772.653L736.434 638.459L538.743 836.149L574.666 970.211L772.225 772.653Z" fill="#EA9111"/>
<path d="M463.078 562.939L427.802 428.23L625.36 230.672L661.852 364.165L463.078 562.939Z" fill="#FFF35E"/>
<path d="M625.36 230.672L896.985 303.457L933.846 441.046L661.852 364.165L625.36 230.672Z" fill="#8ECDA0"/>
<path d="M661.852 364.166L563.146 462.873L836.29 538.604L933.847 441.047L661.852 364.166Z" fill="#FFF9AF"/>
</g>
<defs>
<clipPath id="clip0_235_384">
<rect width="727.463" height="840" fill="white" transform="translate(639.788 46.2598) rotate(45)"/>
</clipPath>
</defs>
</svg>
