<svg width="1200" height="1200" viewBox="0 0 1200 1200" fill="none" xmlns="http://www.w3.org/2000/svg">
<g clip-path="url(#clip0_63_434)">
<rect width="1200" height="1200" fill="#95D0C3"/>
<path d="M-139.46 503.918C-193.871 589.62 -285.66 600.645 -347.197 607.786L-202.398 842.515L-14.5479 906.792L1200 825.375V653.97C1142.78 631.117 1017.33 581.981 973.284 568.268C744.211 496.956 668.028 320.582 392.104 311.455C262.552 307.17 -71.4445 396.79 -139.46 503.918Z" fill="#78AC92"/>
<path d="M-66.4206 784.986C-120.833 849.762 -67.0843 876.095 -128.621 881.493L-222.546 1049.91L-34.6959 1098.49L1353.44 1280.93L1360.79 911.01C1303.57 893.736 1357.92 547.101 1313.75 537.285C1079.43 485.216 981.234 647.633 780.032 656.302C615.551 647.477 607.414 570.562 461.967 566.926C332.415 563.687 1.59439 704.016 -66.4206 784.986Z" fill="#3A6851"/>
<path d="M-28.9077 1009.63C-127.589 1081.13 -188.666 1045.15 -250.203 1050.54L-146.603 1248.34L41.2469 1296.92L1255.79 1235.39L1324.9 931.527C1267.69 914.254 1092.45 968.72 951.119 951.983C717.423 924.309 735.195 768.472 459.271 761.574C329.719 758.335 56.7223 947.586 -28.9077 1009.63Z" fill="#284738"/>
<circle cx="956.554" cy="241.951" r="108.138" fill="#BAEADF"/>
</g>
<defs>
<clipPath id="clip0_63_434">
<rect width="1200" height="1200" fill="white"/>
</clipPath>
</defs>
</svg>
