<?xml version="1.0" encoding="UTF-8"?>
<svg id="Layer_1" xmlns="http://www.w3.org/2000/svg" baseProfile="tiny" version="1.2" viewBox="0 0 1200 1200">
  <!-- Generator: Adobe Illustrator 29.1.0, SVG Export Plug-In . SVG Version: 2.1.0 Build 142)  -->
  <rect width="1200" height="1200" fill="#95d0c3"/>
  <path d="M392.1,311.5c-86.3-2.9-263.4,36-392.1,93.9v500.5l1200-80.4v-171.4c-57.2-22.9-182.7-72-226.7-85.7-229.1-71.3-305.3-247.7-581.2-256.8Z" fill="#78ac92"/>
  <path d="M1200,527.8c-158.9,10.5-254.7,121.4-420,128.5-164.5-8.8-172.6-85.7-318.1-89.4-104.3-2.6-338.9,87.8-462,165.4v370.8l737.7,97h462.3v-672.2Z" fill="#3a6851"/>
  <path d="M1200,1200v-262.6c-74.9,10.3-167.5,24.3-248.9,14.6-233.7-27.7-215.9-183.5-491.8-190.4-117.3-2.9-352.4,152.1-459.3,227.4v211h1200Z" fill="#284738"/>
  <circle cx="956.6" cy="242" r="108.1" fill="#baeadf"/>
</svg>