<?xml version="1.0" encoding="UTF-8" standalone="no"?>
<svg
   id="Layer_1"
   version="1.2"
   viewBox="0 0 1200 1200"
   xmlns="http://www.w3.org/2000/svg"
   xmlns:svg="http://www.w3.org/2000/svg">
  <defs
     id="defs3" />
  <!-- Generator: Adobe Illustrator 29.1.0, SVG Export Plug-In . SVG Version: 2.1.0 Build 142)  -->
  <path
     id="rect1"
     style="fill:#95d0c3"
     d="M 0,0 H 1200 V 1200 H 0 Z" />
  <path
     d="M 392.1,311.5 C 305.8,308.6 128.7,347.5 0,405.4 V 905.9 L 1200,825.5 V 654.1 C 1142.8,631.2 1017.3,582.1 973.3,568.4 744.2,497.1 668,320.7 392.1,311.6 Z"
     fill="#78ac92"
     id="path1" />
  <path
     d="M 1200,527.8 C 1041.1,538.3 945.3,649.2 780,656.3 615.5,647.5 607.4,570.6 461.9,566.9 357.6,564.3 123,654.7 -0.1,732.3 v 370.8 l 737.7,97 h 462.3 V 527.9 Z"
     fill="#3a6851"
     id="path2" />
  <path
     d="M 1200,1200 V 937.4 C 1125.1,947.7 1032.5,961.7 951.1,952 717.4,924.3 735.2,768.5 459.3,761.6 342,758.7 106.9,913.7 0,989 v 211 z"
     fill="#284738"
     id="path3" />
  <path
     id="circle3"
     style="fill:#baeadf"
     d="M 1064.7,242 A 108.1,108.1 0 0 1 956.59998,350.1 108.1,108.1 0 0 1 848.49998,242 108.1,108.1 0 0 1 956.59998,133.9 108.1,108.1 0 0 1 1064.7,242 Z" />
</svg>
