<?xml version="1.0" encoding="UTF-8" standalone="no"?>
<svg
   width="1200"
   height="1201"
   viewBox="0 0 1200 1201"
   fill="none"
   version="1.1"
   id="svg10"
   xmlns="http://www.w3.org/2000/svg"
   xmlns:svg="http://www.w3.org/2000/svg">
  <defs
     id="defs10" />
  <path
     d="m 1067.93,600.5 c 0,61.45 -12.1,122.298 -35.62,179.069 -23.51,56.772 -57.982,108.357 -101.433,151.808 -43.452,43.451 -95.036,77.923 -151.808,101.433 -56.772,23.52 -117.62,35.62 -179.069,35.62 -61.45,0 -122.298,-12.1 -179.069,-35.62 C 364.159,1009.3 312.574,974.828 269.123,931.377 225.672,887.926 191.204,836.341 167.688,779.569 144.173,722.797 132.069,661.949 132.069,600.5 H 600 Z"
     fill="#ffb8d9"
     id="path2" />
  <path
     d="m 1067.93,600.5 c 0,51.208 -10.09,101.914 -29.68,149.224 -19.6,47.31 -48.321,90.297 -84.531,126.506 -36.209,36.21 -79.196,64.932 -126.506,84.529 -47.31,19.596 -98.017,29.682 -149.224,29.682 -51.208,0 -101.915,-10.086 -149.225,-29.682 -47.31,-19.597 -90.296,-48.32 -126.506,-84.529 -36.209,-36.209 -64.932,-79.196 -84.529,-126.506 -19.596,-47.31 -29.682,-98.017 -29.682,-149.225 l 389.942,10e-4 z"
     fill="#f465a7"
     id="path3" />
  <path
     d="m 1067.93,600.5 c 0,40.966 -8.07,81.531 -23.75,119.379 -15.67,37.848 -38.65,72.238 -67.619,101.205 -28.967,28.968 -63.357,51.946 -101.205,67.623 -37.848,15.677 -78.413,23.746 -119.379,23.746 -40.966,0 -81.532,-8.069 -119.38,-23.746 C 598.75,873.03 564.36,850.052 535.392,821.084 506.425,792.116 483.447,757.727 467.769,719.879 452.092,682.031 444.023,641.466 444.023,600.499 l 311.954,10e-4 z"
     fill="#bb2269"
     id="path4" />
  <path
     d="m 1067.93,600.5 c 0,28.356 -6.05,56.434 -17.81,82.632 -11.76,26.197 -28.99,50.001 -50.716,70.052 -21.726,20.05 -47.518,35.955 -75.904,46.807 -28.386,10.851 -58.81,16.436 -89.535,16.436 -30.725,0 -61.148,-5.585 -89.534,-16.436 -28.386,-10.852 -54.179,-26.757 -75.904,-46.807 -21.726,-20.051 -38.96,-43.855 -50.718,-70.052 C 606.052,656.934 600,628.856 600,600.5 h 233.965 z"
     fill="#840a43"
     id="path5" />
  <path
     d="m 132.069,600.5 c 0,-61.45 12.104,-122.298 35.62,-179.07 23.515,-56.772 57.983,-108.356 101.434,-151.807 43.452,-43.452 95.036,-77.919 151.808,-101.435 56.772,-23.515 117.62,-35.619 179.069,-35.619 61.45,0 122.298,12.104 179.07,35.619 56.772,23.516 108.356,57.984 151.807,101.435 43.452,43.451 77.923,95.036 101.433,151.808 23.52,56.772 35.62,117.62 35.62,179.069 H 600 Z"
     fill="#fee002"
     id="path7" />
  <path
     d="m 132.069,600.5 c 0.001,-51.208 10.087,-101.914 29.683,-149.224 19.597,-47.31 48.319,-90.297 84.529,-126.506 36.209,-36.21 79.196,-64.933 126.506,-84.529 47.31,-19.596 98.017,-29.682 149.224,-29.682 51.208,0 101.915,10.086 149.225,29.682 47.31,19.597 90.297,48.32 126.506,84.529 36.209,36.209 64.932,79.196 84.529,126.506 19.596,47.31 29.682,98.017 29.682,149.225 L 522.011,600.5 Z"
     fill="#c5d332"
     id="path8" />
  <path
     d="m 132.069,600.5 c 0,-40.966 8.069,-81.531 23.746,-119.379 15.678,-37.848 38.656,-72.238 67.624,-101.205 28.967,-28.968 63.357,-51.946 101.205,-67.623 37.848,-15.677 78.413,-23.746 119.379,-23.746 40.966,0 81.532,8.069 119.38,23.746 37.848,15.677 72.237,38.655 101.205,67.623 28.967,28.968 51.946,63.357 67.623,101.205 15.677,37.848 23.746,78.413 23.746,119.38 L 444.023,600.5 Z"
     fill="#90b950"
     id="path9" />
  <path
     d="m 132.069,600.5 c 0,-28.356 6.052,-56.434 17.81,-82.632 11.758,-26.197 28.992,-50.001 50.717,-70.052 21.726,-20.05 47.518,-35.955 75.904,-46.807 28.386,-10.851 58.81,-16.436 89.535,-16.436 30.725,0 61.148,5.585 89.534,16.436 28.386,10.852 54.179,26.757 75.904,46.807 21.726,20.051 38.96,43.855 50.718,70.052 C 593.948,544.066 600,572.144 600,600.5 H 366.035 Z"
     fill="#67a24f"
     id="path10" />
</svg>
