<?xml version="1.0" encoding="UTF-8" standalone="no"?>
<svg
   width="1200"
   height="1201"
   viewBox="0 0 1200 1201"
   fill="none"
   version="1.1"
   id="svg10"
   sodipodi:docname="Level_8.svg"
   xmlns:inkscape="http://www.inkscape.org/namespaces/inkscape"
   xmlns:sodipodi="http://sodipodi.sourceforge.net/DTD/sodipodi-0.dtd"
   xmlns="http://www.w3.org/2000/svg"
   xmlns:svg="http://www.w3.org/2000/svg">
  <defs
     id="defs10" />
  <sodipodi:namedview
     id="namedview10"
     pagecolor="#ffffff"
     bordercolor="#000000"
     borderopacity="0.25"
     inkscape:showpageshadow="2"
     inkscape:pageopacity="0.0"
     inkscape:pagecheckerboard="0"
     inkscape:deskcolor="#d1d1d1" />
  <rect
     width="1200"
     height="1200"
     transform="translate(0 0.5)"
     fill="black"
     id="rect1" />
  <path
     d="M132.069 600.5C132.069 539.05 144.173 478.203 167.688 421.431C191.204 364.659 225.672 313.074 269.123 269.623C312.575 226.172 364.159 191.704 420.931 168.188C477.703 144.673 538.551 132.569 600 132.569C661.45 132.569 722.297 144.673 779.069 168.188C835.841 191.704 887.426 226.172 930.877 269.623C974.328 313.074 1008.8 364.659 1032.31 421.431C1055.83 478.203 1067.93 539.051 1067.93 600.5L600 600.5L132.069 600.5Z"
     fill="#D9D9D9"
     id="path1" />
  <path
     d="M132.069 600.5C132.069 539.05 144.173 478.203 167.688 421.431C191.204 364.659 225.672 313.074 269.123 269.623C312.575 226.172 364.159 191.704 420.931 168.188C477.703 144.673 538.551 132.569 600 132.569C661.45 132.569 722.297 144.673 779.069 168.188C835.841 191.704 887.426 226.172 930.877 269.623C974.328 313.074 1008.8 364.659 1032.31 421.431C1055.83 478.203 1067.93 539.051 1067.93 600.5L600 600.5L132.069 600.5Z"
     fill="#FEE002"
     id="path2" />
  <path
     d="M132.069 600.5C132.069 549.293 142.156 498.586 161.752 451.276C181.348 403.966 210.071 360.979 246.281 324.77C282.49 288.56 325.477 259.838 372.787 240.241C420.097 220.645 470.803 210.559 522.011 210.559C573.219 210.559 623.926 220.645 671.236 240.241C718.546 259.838 761.532 288.561 797.742 324.77C833.951 360.979 862.674 403.966 882.271 451.276C901.867 498.586 911.953 549.293 911.953 600.501L522.011 600.5L132.069 600.5Z"
     fill="#C5D332"
     id="path3" />
  <path
     d="M132.069 600.5C132.069 559.534 140.138 518.969 155.815 481.121C171.493 443.273 194.471 408.883 223.438 379.916C252.406 350.948 286.796 327.97 324.644 312.293C362.491 296.616 403.057 288.547 444.023 288.547C484.989 288.547 525.555 296.616 563.403 312.293C601.25 327.97 635.64 350.948 664.608 379.916C693.575 408.884 716.553 443.273 732.231 481.121C747.908 518.969 755.977 559.534 755.977 600.501L444.023 600.5L132.069 600.5Z"
     fill="#90B950"
     id="path4" />
  <path
     d="M132.069 600.5C132.069 572.144 138.121 544.066 149.879 517.868C161.637 491.671 178.871 467.867 200.596 447.816C222.322 427.766 248.114 411.861 276.5 401.009C304.886 390.158 335.31 384.573 366.035 384.573C396.759 384.573 427.183 390.158 455.569 401.009C483.955 411.861 509.748 427.766 531.473 447.816C553.199 467.867 570.433 491.671 582.19 517.868C593.948 544.066 600 572.144 600 600.5L366.035 600.5L132.069 600.5Z"
     fill="#67A24F"
     id="path5" />
  <path
     d="M1067.93 600.5C1067.93 661.95 1055.83 722.798 1032.31 779.569C1008.8 836.341 974.328 887.926 930.877 931.377C887.425 974.828 835.841 1009.3 779.069 1032.81C722.297 1056.33 661.449 1068.43 600 1068.43C538.55 1068.43 477.702 1056.33 420.931 1032.81C364.159 1009.3 312.574 974.828 269.123 931.377C225.672 887.926 191.204 836.341 167.688 779.569C144.173 722.797 132.069 661.949 132.069 600.5L600 600.5L1067.93 600.5Z"
     fill="#D9D9D9"
     id="path6" />
  <path
     d="M1067.93 600.5C1067.93 661.95 1055.83 722.798 1032.31 779.569C1008.8 836.341 974.328 887.926 930.877 931.377C887.425 974.828 835.841 1009.3 779.069 1032.81C722.297 1056.33 661.449 1068.43 600 1068.43C538.55 1068.43 477.702 1056.33 420.931 1032.81C364.159 1009.3 312.574 974.828 269.123 931.377C225.672 887.926 191.204 836.341 167.688 779.569C144.173 722.797 132.069 661.949 132.069 600.5L600 600.5L1067.93 600.5Z"
     fill="#FEE002"
     id="path7" />
  <path
     d="M1067.93 600.5C1067.93 651.708 1057.84 702.414 1038.25 749.724C1018.65 797.034 989.929 840.021 953.719 876.23C917.51 912.44 874.523 941.162 827.213 960.759C779.903 980.355 729.196 990.441 677.989 990.441C626.781 990.441 576.074 980.355 528.764 960.759C481.454 941.162 438.468 912.439 402.258 876.23C366.049 840.021 337.326 797.034 317.729 749.724C298.133 702.414 288.047 651.707 288.047 600.499L677.989 600.5L1067.93 600.5Z"
     fill="#C5D332"
     id="path8" />
  <path
     d="M1067.93 600.5C1067.93 641.466 1059.86 682.031 1044.18 719.879C1028.51 757.727 1005.53 792.117 976.561 821.084C947.594 850.052 913.204 873.03 875.356 888.707C837.508 904.384 796.943 912.453 755.977 912.453C715.011 912.453 674.445 904.384 636.597 888.707C598.75 873.03 564.36 850.052 535.392 821.084C506.425 792.116 483.447 757.727 467.769 719.879C452.092 682.031 444.023 641.466 444.023 600.499L755.977 600.5L1067.93 600.5Z"
     fill="#90B950"
     id="path9" />
  <path
     d="M1067.93 600.5C1067.93 628.856 1061.88 656.934 1050.12 683.132C1038.36 709.329 1021.13 733.133 999.404 753.184C977.678 773.234 951.886 789.139 923.5 799.991C895.114 810.842 864.69 816.427 833.965 816.427C803.24 816.427 772.817 810.842 744.431 799.991C716.045 789.139 690.252 773.234 668.527 753.184C646.801 733.133 629.567 709.329 617.809 683.132C606.052 656.934 600 628.856 600 600.5L833.965 600.5L1067.93 600.5Z"
     fill="#67A24F"
     id="path10" />
</svg>
