<?xml version="1.0" encoding="UTF-8" standalone="no"?>
<svg
   width="1200"
   height="1200"
   viewBox="0 0 1200 1200"
   fill="none"
   version="1.1"
   id="svg5"
   xmlns="http://www.w3.org/2000/svg"
   xmlns:svg="http://www.w3.org/2000/svg">
  <g
     clip-path="url(#clip0_1_149)"
     id="g5">
    <path
       id="circle1"
       style="fill:#68162e"
       d="M 1565,600 A 965,965 0 0 1 600,1565 965,965 0 0 1 -365,600 965,965 0 0 1 600,-365 965,965 0 0 1 1565,600 Z" />
    <path
       id="circle2"
       style="fill:#a1002e"
       d="M 1122.233,600 A 522.23297,522.23297 0 0 1 600,1122.233 522.23297,522.23297 0 0 1 77.767029,600 522.23297,522.23297 0 0 1 600,77.767029 522.23297,522.23297 0 0 1 1122.233,600 Z" />
    <path
       id="circle3"
       style="fill:#df001b"
       d="M 992.241,600 A 392.241,392.241 0 0 1 600,992.241 392.241,392.241 0 0 1 207.759,600 392.241,392.241 0 0 1 600,207.759 392.241,392.241 0 0 1 992.241,600 Z" />
    <path
       id="circle4"
       style="fill:#fa5514"
       d="M 862.23199,600 A 262.23199,262.23199 0 0 1 600,862.23199 262.23199,262.23199 0 0 1 337.76801,600 262.23199,262.23199 0 0 1 600,337.76801 262.23199,262.23199 0 0 1 862.23199,600 Z" />
    <path
       id="circle5"
       style="fill:#ee9901"
       d="M 732.224,600 A 132.224,132.224 0 0 1 600,732.224 132.224,132.224 0 0 1 467.776,600 132.224,132.224 0 0 1 600,467.776 132.224,132.224 0 0 1 732.224,600 Z" />
  </g>
  <defs
     id="defs5">
    <clipPath
       id="clip0_1_149">
      <rect
         width="1200"
         height="1200"
         fill="white"
         id="rect5" />
    </clipPath>
  </defs>
</svg>
