<?xml version="1.0" encoding="UTF-8" standalone="no"?>
<svg
   width="1200"
   height="1200"
   viewBox="0 0 1200 1200"
   fill="none"
   version="1.1"
   id="svg5"
   xmlns="http://www.w3.org/2000/svg"
   xmlns:svg="http://www.w3.org/2000/svg">
  <g
     clip-path="url(#clip0_1_149)"
     id="g5">
    <path
       id="circle1"
       style="fill:#68162e"
       d="M 1565,600 A 965,965 0 0 1 600,1565 965,965 0 0 1 -365,600 965,965 0 0 1 600,-365 965,965 0 0 1 1565,600 Z" />
    <path
       id="circle2"
       style="fill:#a1002e"
       d="M 1312,600 A 712,712 0 0 1 600,1312 712,712 0 0 1 -112,600 712,712 0 0 1 600,-112 712,712 0 0 1 1312,600 Z" />
    <path
       id="circle3"
       style="fill:#df001b"
       d="M 1096,600 A 496,496 0 0 1 600,1096 496,496 0 0 1 104,600 496,496 0 0 1 600,104 496,496 0 0 1 1096,600 Z" />
    <path
       id="circle4"
       style="fill:#fa5514"
       d="M 883,600 A 283,283 0 0 1 600,883 283,283 0 0 1 317,600 283,283 0 0 1 600,317 283,283 0 0 1 883,600 Z" />
    <path
       id="circle5"
       style="fill:#ee9901"
       d="M 711,600 A 111,111 0 0 1 600,711 111,111 0 0 1 489,600 111,111 0 0 1 600,489 111,111 0 0 1 711,600 Z" />
  </g>
  <defs
     id="defs5">
    <clipPath
       id="clip0_1_149">
      <rect
         width="1200"
         height="1200"
         fill="white"
         id="rect5" />
    </clipPath>
  </defs>
</svg>
