<svg width="1200" height="1200" viewBox="0 0 1200 1200" fill="none" xmlns="http://www.w3.org/2000/svg">
<g clip-path="url(#clip0_63_428)">
<rect width="1200" height="1200" fill="black"/>
<path fill-rule="evenodd" clip-rule="evenodd" d="M209.109 376.898C191.459 407.757 177.357 440.907 167.36 475.791H1032.64C1025.91 452.296 1017.31 429.588 1007.02 407.837L209.109 376.898Z" fill="#F7E3BC"/>
<path fill-rule="evenodd" clip-rule="evenodd" d="M600 1050C848.528 1050 1050 848.528 1050 600C1050 556.915 1043.94 515.244 1032.64 475.791L167.361 475.791C156.055 515.244 150 556.915 150 600C150 848.528 351.472 1050 600 1050Z" fill="#78ACA0"/>
<path fill-rule="evenodd" clip-rule="evenodd" d="M154.261 537.823L1049.85 611.745C1043.62 854.845 844.601 1050 600 1050C351.472 1050 150 848.528 150 600C150 578.904 151.452 558.147 154.261 537.823Z" fill="#199AAD"/>
<path fill-rule="evenodd" clip-rule="evenodd" d="M1042.09 684.42C1002.58 892.595 819.674 1050 600 1050C391.955 1050 216.885 908.818 165.37 717.036L1042.09 684.42Z" fill="#0C7797"/>
<path fill-rule="evenodd" clip-rule="evenodd" d="M973.858 850.544C893.083 970.837 755.786 1050 600 1050C409.481 1050 246.614 931.602 180.965 764.371L973.858 850.544Z" fill="#1A4771"/>
<path fill-rule="evenodd" clip-rule="evenodd" d="M1007.02 407.837L209.11 376.899C286.644 241.347 432.654 150 600 150C779.785 150 934.944 255.43 1007.02 407.837Z" fill="#FFEFD2"/>
<path d="M464.134 476.399C464.134 458.408 467.677 440.593 474.562 423.972C481.447 407.35 491.538 392.248 504.26 379.526C516.981 366.805 532.084 356.714 548.705 349.829C565.326 342.944 583.141 339.4 601.132 339.401C619.123 339.401 636.937 342.944 653.559 349.829C670.18 356.714 685.283 366.805 698.004 379.526C710.726 392.248 720.817 407.35 727.702 423.972C734.586 440.593 738.13 458.408 738.13 476.399L601.132 476.399L464.134 476.399Z" fill="#FAD48B"/>
<path fill-rule="evenodd" clip-rule="evenodd" d="M904.741 268.887L250.04 317.084C332.539 215.163 458.66 150 600 150C717.556 150 824.583 195.076 904.741 268.887Z" fill="#FFF7E8"/>
</g>
<defs>
<clipPath id="clip0_63_428">
<rect width="1200" height="1200" fill="white"/>
</clipPath>
</defs>
</svg>
