<svg width="1200" height="1200" viewBox="0 0 1200 1200" fill="none" xmlns="http://www.w3.org/2000/svg">
<rect width="1200" height="1200" fill="black"/>
<path d="M599.999 746.352L1080.09 1070.5L599.999 956.152L119.908 1070.5L599.999 746.352Z" fill="#0F4528"/>
<path d="M596.932 522.955C598.53 521.044 601.468 521.044 603.067 522.955L945.836 932.582C948.812 936.139 944.364 941.062 940.524 938.461L602.243 709.278C600.888 708.36 599.111 708.36 597.756 709.278L259.474 938.461C255.635 941.062 251.187 936.139 254.163 932.582L596.932 522.955Z" fill="#16653B"/>
<path d="M599.999 323.567L784.05 700.584L600.471 479.268L416.864 700.584L599.999 323.567Z" fill="#298755"/>
<path d="M600.186 129.495L709.453 506.512L600.466 285.195L491.463 506.512L600.186 129.495Z" fill="#4AB27B"/>
</svg>
