<svg width="1200" height="1200" viewBox="0 0 1200 1200" fill="none" xmlns="http://www.w3.org/2000/svg">
<g clip-path="url(#clip0_86_116)">
<rect width="1200" height="1200" fill="black"/>
<circle cx="677.425" cy="274.365" r="162.359" fill="#FFC7EE"/>
<path d="M599.999 1088L423.868 488.482L776.131 488.482L599.999 1088Z" fill="#733835"/>
<path fill-rule="evenodd" clip-rule="evenodd" d="M811.203 550.007C819.967 525.982 824.748 500.042 824.748 472.985C824.748 348.86 724.125 248.236 600 248.236C475.874 248.236 375.251 348.86 375.251 472.985C375.251 500.042 380.032 525.982 388.796 550.007H811.203Z" fill="#F37DB2"/>
<path fill-rule="evenodd" clip-rule="evenodd" d="M360.215 584.688C360.215 559.14 380.925 538.43 406.473 538.43H793.526C819.074 538.43 839.784 559.14 839.784 584.688C839.784 610.235 819.074 630.945 793.526 630.945H761.005C758.875 654.517 739.063 672.986 714.937 672.986C690.811 672.986 670.998 654.517 668.868 630.945H662.495V680.346C662.495 705.893 641.785 726.604 616.237 726.604C590.69 726.604 569.979 705.893 569.979 680.346V630.945H406.473C380.925 630.945 360.215 610.235 360.215 584.688Z" fill="#CE598F"/>
<circle cx="537.61" cy="330.597" r="162.359" fill="#FF9FD1"/>
</g>
<defs>
<clipPath id="clip0_86_116">
<rect width="1200" height="1200" fill="white"/>
</clipPath>
</defs>
</svg>
