<svg width="1200" height="1200" viewBox="0 0 1200 1200" fill="none" xmlns="http://www.w3.org/2000/svg">
<rect width="1200" height="1200" fill="black"/>
<circle cx="600" cy="600" r="453" fill="#FFF8DE"/>
<path d="M549.731 200.83C475.169 208.858 407.042 238.336 351.631 282.97C334.417 296.844 333.137 322.638 348.776 338.278L575.663 565.165C581.355 570.856 591.095 566.825 591.095 558.781V237.904C591.095 215.691 571.805 198.443 549.731 200.83Z" fill="#DF5C45"/>
<path d="M649.463 999.962C724.025 991.935 792.151 962.456 847.563 917.823C864.776 903.949 866.056 878.154 850.417 862.515L623.53 635.628C617.839 629.937 608.099 633.968 608.099 642.012L608.099 962.889C608.099 985.102 627.388 1002.35 649.463 999.962Z" fill="#FBD95D"/>
<path d="M282.675 353.27C235.637 411.657 208.304 480.683 200.692 551.422C198.322 573.41 215.673 592.544 237.782 592.544H558.625C566.669 592.544 570.7 582.804 565.008 577.112L338.121 350.225C322.43 334.534 296.602 335.97 282.675 353.253V353.27Z" fill="#FB755D"/>
<path d="M916.518 847.523C963.556 789.136 990.89 720.11 998.502 649.371C1000.87 627.383 983.52 608.249 961.411 608.249L640.569 608.249C632.524 608.249 628.493 617.989 634.185 623.681L861.072 850.568C876.763 866.259 902.592 864.823 916.518 847.54L916.518 847.523Z" fill="#FFE481"/>
<path d="M200.678 649.872C208.706 724.434 238.184 792.561 282.818 847.972C296.692 865.185 322.486 866.465 338.125 850.826L565.012 623.939C570.704 618.248 566.673 608.508 558.629 608.508H237.752C215.556 608.508 198.308 627.797 200.696 649.872H200.678Z" fill="#FB9F5D"/>
<path d="M998.515 550.922C990.488 476.359 961.009 408.233 916.375 352.821C902.501 335.608 876.707 334.328 861.068 349.967L634.181 576.854C628.489 582.546 632.52 592.285 640.565 592.285L961.441 592.285C983.637 592.285 1000.89 572.996 998.498 550.922L998.515 550.922Z" fill="#FFEDAA"/>
<path d="M351.788 917.983C410.174 965.021 479.201 992.355 549.94 999.967C571.928 1002.34 591.061 984.985 591.061 962.876V642.034C591.061 633.989 581.322 629.958 575.63 635.65L348.743 862.537C333.052 878.228 334.488 904.057 351.77 917.983H351.788Z" fill="#FBC45D"/>
<path d="M847.406 282.81C789.019 235.772 719.993 208.438 649.254 200.826C627.266 198.456 608.132 215.808 608.132 237.917L608.132 558.759C608.132 566.804 617.872 570.835 623.563 565.143L850.451 338.256C866.141 322.565 864.706 296.736 847.423 282.81L847.406 282.81Z" fill="#D7391D"/>
</svg>
