<svg width="1200" height="1200" viewBox="0 0 1200 1200" fill="none" xmlns="http://www.w3.org/2000/svg">
<rect width="1200" height="1200" fill="black"/>
<path d="M602 199V940C602 973.137 575.137 1000 542 1000H525" stroke="white" stroke-width="23" stroke-linecap="round"/>
<g clip-path="url(#clip0_86_195)">
<path d="M599.512 239C599.114 239 598.739 239 598.341 239.027H597.521C597.006 239 596.491 239.027 595.999 239.054H595.437C595.226 239.027 595.015 239.027 594.805 239.054C362.287 243.255 228.992 558.519 182.929 692H79C141.292 432.906 347.768 242.024 593.657 239.027H593.845C594.032 239 594.219 239 594.407 239.027H595.999C597.17 239 598.341 239 599.512 239Z" fill="#52397A"/>
<path d="M383.925 692H182.929C228.828 559.001 361.35 245.556 592.299 239.16C592.369 239.16 592.416 239.16 592.486 239.16H592.744C593.423 239.16 594.102 239.08 594.804 239.08C595.015 239.053 595.226 239.053 595.437 239.08H595.999C595.835 239.08 595.671 239.107 595.507 239.107C595.132 239.107 594.757 239.134 594.383 239.16C593.751 239.16 593.118 239.214 592.486 239.267C456.076 248.205 405.048 516.826 387.485 660.69C387.391 661.306 387.321 661.921 387.251 662.51C386.782 666.551 386.314 670.458 385.869 674.284C385.541 677.201 385.237 680.065 384.909 682.875C384.768 684.266 384.628 685.631 384.464 686.996C384.3 688.36 384.159 689.725 384.042 691.036C384.019 691.384 383.972 691.705 383.949 692.027" fill="#A94987"/>
<path d="M597.521 239.027C597.264 239.027 597.006 239.027 596.748 239.054C596.538 239.027 596.327 239.027 596.093 239.054H595.999C596.491 239.027 597.006 239 597.521 239.027Z" fill="#A0D64C"/>
<path d="M383.926 692C383.949 691.679 383.996 691.331 384.043 691.01C384.16 689.699 384.3 688.334 384.464 686.969C384.628 685.604 384.769 684.239 384.909 682.848C385.237 680.038 385.542 677.175 385.869 674.258C386.291 670.458 386.759 666.524 387.251 662.483C387.321 661.895 387.392 661.279 387.485 660.664C405.025 516.88 456.03 248.072 592.486 239.134V239.241L593.564 692H383.949" fill="#E25985"/>
<path d="M1120 692H1015.3C1011.15 680.413 1006.33 667.461 1000.8 653.465C1000.19 651.859 999.538 650.254 998.882 648.621C998.695 648.14 998.484 647.631 998.297 647.123C997.196 644.366 996.072 641.583 994.901 638.747C992.84 633.689 990.709 628.498 988.485 623.226C987.033 619.8 985.557 616.322 984.035 612.816C980.967 605.698 977.759 598.419 974.387 591.006C972.724 587.313 970.991 583.594 969.235 579.82C967.479 576.047 965.699 572.247 963.872 568.447C961.648 563.764 959.376 559.054 957.011 554.291C956.472 553.247 955.957 552.177 955.442 551.133C954.482 549.207 953.522 547.253 952.515 545.299C950.571 541.419 948.58 537.512 946.52 533.578C942.468 525.738 938.253 517.843 933.874 509.922C932.773 507.942 931.673 505.962 930.572 503.981C929.495 502.001 928.371 500.021 927.223 498.041C926.122 496.06 924.975 494.08 923.828 492.1C919.284 484.179 914.554 476.258 909.683 468.363C908.489 466.383 907.271 464.403 906.006 462.449C904.531 460.094 903.056 457.766 901.58 455.438C900.573 453.832 899.543 452.254 898.489 450.675C897.248 448.721 895.96 446.768 894.672 444.814C893.384 442.861 892.096 440.907 890.785 438.98C889.497 437.027 888.185 435.1 886.827 433.173C885.586 431.327 884.321 429.48 883.033 427.661C881.628 425.654 880.2 423.647 878.795 421.666C877.46 419.766 876.102 417.866 874.697 415.966C873.338 414.067 871.957 412.167 870.528 410.293C867.765 406.52 864.931 402.774 862.051 399.081C860.646 397.234 859.194 395.361 857.719 393.541C856.29 391.695 854.838 389.875 853.363 388.055C850.88 384.951 848.351 381.874 845.775 378.823C845.33 378.315 844.885 377.779 844.44 377.244C839.944 371.892 835.354 366.62 830.671 361.482C829.125 359.743 827.556 358.03 825.964 356.371C763.789 289.363 687.493 240.525 596.748 239.054C596.538 239.027 596.327 239.027 596.093 239.054H595.999C595.507 239.027 594.992 239 594.477 239.027H594.407C594.219 239 594.032 239 593.845 239.027H593.657C593.259 239 592.884 239 592.486 239H594.196C594.805 239 595.39 239 595.999 239.027H598.341C844.3 241.703 1049.51 412.488 1120 692Z" fill="#FFDFD7"/>
<path d="M1015.3 692H808.377C808.283 691.037 808.166 690.073 808.049 689.083C807.557 684.668 807.042 680.118 806.48 675.382C806.34 674.204 806.199 673.027 806.059 671.823C805.895 670.378 805.707 668.879 805.52 667.38C805.098 663.928 804.677 660.423 804.209 656.837C804.045 655.633 803.881 654.455 803.717 653.224C803.693 653.09 803.693 652.957 803.67 652.796C803.342 650.388 803.038 647.926 802.686 645.437C802.335 642.814 801.96 640.138 801.586 637.462C801.352 635.723 801.094 633.957 800.86 632.19C799.853 625.152 798.776 617.9 797.605 610.515C797.324 608.668 797.019 606.795 796.738 604.948C795.731 598.606 794.654 592.13 793.53 585.601C791.656 574.843 789.666 563.871 787.488 552.739C786.622 548.27 785.708 543.774 784.795 539.278C784.069 535.746 783.32 532.214 782.547 528.655C782.289 527.397 782.008 526.112 781.727 524.828C781.048 521.617 780.322 518.405 779.596 515.194C778.847 511.795 778.051 508.37 777.231 504.945C776.809 503.098 776.365 501.252 775.92 499.405C775.24 496.569 774.538 493.705 773.835 490.842C773.32 488.808 772.805 486.775 772.29 484.741C771.423 481.262 770.51 477.783 769.573 474.304C769.035 472.244 768.496 470.21 767.911 468.176C767.068 464.965 766.178 461.78 765.264 458.596C764.538 455.973 763.789 453.378 763.016 450.782C762.361 448.534 761.705 446.313 761.026 444.065C760.347 441.844 759.667 439.623 758.965 437.402C758.262 435.18 757.583 432.959 756.857 430.738C756.178 428.517 755.452 426.323 754.726 424.128C753.228 419.552 751.682 415.003 750.09 410.507C748.614 406.386 747.139 402.292 745.617 398.224C713.042 311.307 665.668 242.077 597.123 239.107H596.983C596.491 239.08 595.999 239.054 595.507 239.08C595.273 239.054 595.039 239.054 594.805 239.054C594.5 239.027 594.173 239.027 593.845 239.027C593.892 239 593.915 239 593.962 239H594.196C594.196 239 594.336 239 594.407 239.027H594.477C594.805 239.027 595.133 239.054 595.437 239.054H596.093C596.842 239.08 597.568 239.08 598.294 239.107H599.512C599.512 239.107 599.746 239.134 599.863 239.161C600.097 239.161 600.308 239.161 600.542 239.187C689.601 241.944 764.656 290.353 825.964 356.371C827.533 358.057 829.102 359.77 830.671 361.482C835.331 366.647 839.921 371.919 844.441 377.244C844.886 377.779 845.331 378.315 845.775 378.823C848.328 381.874 850.857 384.951 853.363 388.055C854.815 389.875 856.29 391.722 857.719 393.541C859.171 395.388 860.622 397.234 862.051 399.081C864.908 402.8 867.742 406.52 870.528 410.293C871.933 412.167 873.315 414.067 874.697 415.966C876.055 417.866 877.437 419.766 878.795 421.666C880.2 423.647 881.628 425.654 883.034 427.661C884.298 429.507 885.563 431.327 886.827 433.173C888.162 435.1 889.473 437.054 890.785 438.98C892.073 440.934 893.384 442.861 894.672 444.814C895.96 446.768 897.225 448.721 898.489 450.675C899.52 452.254 900.55 453.859 901.581 455.438C903.056 457.766 904.531 460.094 906.007 462.449C907.224 464.403 908.465 466.383 909.683 468.363C914.531 476.231 919.238 484.179 923.828 492.1C924.975 494.08 926.099 496.06 927.223 498.041C928.347 500.021 929.471 502.001 930.572 503.981C931.673 505.962 932.773 507.942 933.874 509.922C938.23 517.843 942.445 525.738 946.52 533.578C948.557 537.512 950.548 541.419 952.515 545.299C953.498 547.253 954.458 549.207 955.442 551.133C955.957 552.177 956.472 553.247 957.011 554.291C959.353 559.054 961.624 563.764 963.872 568.447C965.699 572.247 967.479 576.047 969.235 579.82C970.991 583.567 972.701 587.313 974.387 591.006C977.736 598.419 980.968 605.698 984.035 612.816C985.557 616.322 987.033 619.8 988.485 623.226C990.709 628.498 992.84 633.689 994.901 638.747C996.072 641.583 997.196 644.366 998.297 647.123C998.484 647.631 998.695 648.14 998.882 648.621C999.538 650.254 1000.17 651.859 1000.8 653.465C1006.33 667.461 1011.15 680.413 1015.3 692Z" fill="#FDAC99"/>
<path d="M808.049 689.083C808.166 690.046 808.26 691.037 808.353 692H593.564L592.486 239.241V239.134H599.512C599.512 239.134 599.769 239.134 599.886 239.134C600.097 239.134 600.331 239.134 600.542 239.187C667.283 244.218 713.628 312.645 745.617 398.224C747.139 402.292 748.614 406.386 750.089 410.507C751.682 415.003 753.227 419.552 754.726 424.128C755.452 426.323 756.178 428.517 756.857 430.738C757.583 432.959 758.262 435.18 758.965 437.402C759.667 439.623 760.346 441.844 761.026 444.065C761.705 446.313 762.36 448.534 763.016 450.782C763.789 453.378 764.538 455.973 765.264 458.596C766.178 461.78 767.067 464.965 767.91 468.176C768.496 470.21 769.035 472.244 769.573 474.304C770.51 477.783 771.423 481.262 772.29 484.741C772.805 486.775 773.32 488.808 773.835 490.842C774.538 493.705 775.24 496.569 775.919 499.405C776.364 501.252 776.809 503.098 777.231 504.945C778.051 508.37 778.847 511.795 779.596 515.194C780.322 518.405 781.048 521.643 781.727 524.828C782.008 526.112 782.289 527.397 782.547 528.655C783.32 532.214 784.069 535.746 784.795 539.278C785.708 543.774 786.621 548.27 787.488 552.739C789.689 563.871 791.68 574.843 793.53 585.601C794.654 592.13 795.731 598.606 796.738 604.948C797.019 606.795 797.323 608.668 797.604 610.515C798.775 617.9 799.853 625.152 800.86 632.19C801.094 633.957 801.351 635.723 801.586 637.462C801.96 640.138 802.335 642.814 802.686 645.437C803.014 647.926 803.342 650.388 803.67 652.796C803.693 652.957 803.693 653.09 803.717 653.224C804.349 658.068 804.958 662.804 805.52 667.38C805.707 668.879 805.894 670.378 806.058 671.823C806.199 673.027 806.339 674.204 806.48 675.382C807.042 680.118 807.557 684.668 808.049 689.083Z" fill="#FD8179"/>
</g>
<defs>
<clipPath id="clip0_86_195">
<rect width="1041" height="453" fill="white" transform="translate(79 239)"/>
</clipPath>
</defs>
</svg>
