<svg width="1200" height="1200" viewBox="0 0 1200 1200" fill="none" xmlns="http://www.w3.org/2000/svg">
<g clip-path="url(#clip0_86_198)">
<rect width="1200" height="1200" fill="black"/>
<g clip-path="url(#clip1_86_198)">
<path d="M234.047 617.097L148.539 594.185C147.861 593.462 147.203 592.714 146.542 591.98C142.694 587.7 138.903 583.375 135.186 578.994C133.859 577.435 132.535 575.862 131.218 574.261C109.806 548.547 90.5664 521.128 73.6833 492.325C72.3948 490.115 71.1101 487.89 69.8432 485.655C69.1957 484.534 68.5623 483.417 67.9428 482.303C67.3131 481.172 66.6937 480.058 66.064 478.927C64.8149 476.681 63.5836 474.426 62.3841 472.164C61.2593 470.073 60.1383 467.967 59.0491 465.855C58.9772 465.731 58.9193 465.61 58.8614 465.489C58.5438 464.877 58.2262 464.266 57.8983 463.636C56.6316 461.176 55.379 458.719 54.1442 456.252C53.6426 455.261 53.1307 454.251 52.6469 453.249L52.6619 453.193C53.5998 452.556 54.5657 451.928 55.5138 451.309C57.4138 450.058 59.3138 448.808 61.2381 447.578C62.1684 446.97 63.1128 446.366 64.0571 445.761C65.7641 444.669 67.4673 443.591 69.1986 442.521C69.5761 442.291 69.9434 442.043 70.335 441.817C70.9439 441.454 71.5388 441.087 72.1374 440.706C76.1771 438.208 80.2513 435.75 84.3844 433.352C86.3105 432.229 88.2506 431.109 90.1869 430.003C119.284 413.446 149.727 399.279 181.213 387.679C183.153 386.95 185.087 386.25 187.02 385.549C189.58 384.641 192.147 383.764 194.704 382.87C195.58 382.578 196.473 382.276 197.349 381.984L290.367 406.908C274.813 464.957 215.137 499.39 157.088 483.836C215.137 499.39 249.598 559.062 234.047 617.097Z" fill="#07008F"/>
<path d="M291.894 401.21L207.608 378.625C209.649 377.969 211.683 377.341 213.732 376.716C238.958 368.99 264.729 362.883 290.947 358.475C292.156 358.288 293.354 358.083 294.563 357.895C296.545 371.949 295.802 386.628 291.894 401.21Z" fill="#190FCC"/>
<path d="M232.52 622.795C229.038 635.792 223.347 647.595 215.961 657.921C215.008 657.154 214.059 656.373 213.12 655.61C192.877 639.009 173.832 621.195 156.039 602.302L232.52 622.795Z" fill="#060168"/>
<path d="M427.441 668.917L322.321 640.75C264.272 625.196 229.807 565.538 245.362 507.489C260.916 449.44 320.592 415.007 378.641 430.561L483.76 458.728C468.206 516.777 408.53 551.21 350.481 535.656C408.53 551.21 442.991 610.882 427.441 668.917Z" fill="#3C3EE8"/>
<path d="M485.287 453.03L380.168 424.863C344.257 415.241 317.37 388.737 305.781 356.178C306.827 356.037 307.873 355.896 308.919 355.755C339.098 351.612 369.804 349.716 400.756 350.217C402.507 350.25 404.231 350.276 405.965 350.319C422.291 350.707 438.691 351.777 455.118 353.531C457.782 353.809 460.438 354.115 463.105 354.438L463.119 354.442C485.424 380.756 494.884 417.212 485.287 453.03Z" fill="#252EEF"/>
<path d="M425.914 674.615C416.982 707.948 393.512 733.49 364.15 746.261C361.7 745.243 359.271 744.201 356.855 743.163L356.841 743.159C339.817 735.829 323.253 727.736 307.183 718.977C305.66 718.148 304.155 717.308 302.621 716.461C275.57 701.406 249.922 684.425 225.857 665.747L225.784 665.682C251.763 645.491 286.569 637.277 320.794 646.448L425.914 674.615Z" fill="#6A5BC2"/>
<path d="M620.833 720.736L515.714 692.569C457.665 677.015 423.2 617.357 438.754 559.308C454.308 501.259 513.985 466.826 572.034 482.381L677.153 510.547C661.599 568.596 601.922 603.029 543.874 587.475C601.922 603.029 636.384 662.701 620.833 720.736Z" fill="#B28E98"/>
<path d="M678.679 504.849L573.56 476.682C520.649 462.505 487.333 411.699 493.637 358.858C495.135 359.109 496.615 359.37 498.109 359.635C515.134 362.693 532.158 366.487 549.173 371.046C566.187 375.605 583.686 381.107 600.362 387.154C601.949 387.745 603.536 388.336 605.124 388.927C619.53 394.291 633.617 400.172 647.379 406.537L647.393 406.541C652.389 408.842 657.342 411.192 662.24 413.633C680.38 439.147 687.412 472.26 678.679 504.849Z" fill="#D9A981"/>
<path d="M619.306 726.434C611.488 755.613 592.524 778.827 568.22 792.713C563.204 792.452 558.175 792.127 553.133 791.739L553.119 791.735C535.107 790.338 517.065 788.152 498.968 785.108C497.294 784.84 495.628 784.544 493.958 784.262C476.493 781.161 459.023 777.293 441.573 772.617C424.123 767.941 407.918 762.832 391.645 756.967C390.492 756.553 389.328 756.121 388.179 755.693C410.515 709.735 462.975 684.545 514.187 698.267L619.306 726.434Z" fill="#9179AB"/>
<path d="M938.098 690.474C937.824 690.657 937.567 690.828 937.31 691C936.669 691.43 936.027 691.86 935.378 692.258C935.357 692.282 935.339 692.292 935.304 692.313C935.25 692.344 935.193 692.389 935.14 692.419C934.711 692.726 934.259 693.011 933.824 693.285C904.858 712.33 874.301 728.888 842.509 742.753C840.464 743.649 838.408 744.527 836.356 745.391C822.482 721.306 817.774 691.929 825.54 662.947C833.306 633.965 853.913 608.664 879.662 595C880.262 595.792 880.848 596.581 881.43 597.384C902.385 625.759 920.836 655.899 936.566 687.431C937.092 688.445 937.604 689.455 938.098 690.474Z" fill="#B05310"/>
<path d="M817.597 752.956C813.548 754.534 809.486 756.047 805.407 757.512C799.445 759.66 793.431 761.719 787.381 763.693C786.441 763.998 785.498 764.317 784.549 764.604L709.106 744.389C651.057 728.835 616.593 669.177 632.147 611.128C647.701 553.079 707.377 518.646 765.426 534.2L848.379 556.428C848.991 557.118 849.6 557.823 850.213 558.513C852.492 561.125 854.75 563.761 856.982 566.435C859.886 569.86 862.751 573.32 865.562 576.811C844.727 625.984 790.317 653.51 737.266 639.295C788.773 653.096 821.728 701.654 817.597 752.956Z" fill="#E29640"/>
<path d="M841.174 548.389L766.953 528.502C719.264 515.724 687.495 473.185 686.312 426.22C688.649 427.493 690.964 428.791 693.258 430.112C724.868 448.089 754.474 468.718 781.877 491.615C783.306 492.795 784.742 494.007 786.15 495.212C804.025 510.426 820.933 526.615 836.825 543.674C838.286 545.239 839.734 546.8 841.174 548.389Z" fill="#F9B75F"/>
<path d="M773.967 767.875C752.64 774.3 730.907 779.548 708.879 783.589C707.058 783.929 705.209 784.26 703.381 784.568C668.201 790.696 632.247 793.758 595.884 793.521C593.857 793.505 591.816 793.484 589.783 793.436C615.17 756.585 661.871 737.839 707.58 750.087L773.967 767.875Z" fill="#C97223"/>
<path d="M1087.71 821.95L1001.35 798.81C953.66 786.032 925.348 737.011 938.13 689.311C950.911 641.61 999.94 613.313 1047.63 626.092L1133.99 649.231C1121.21 696.932 1072.18 725.229 1024.49 712.451C1072.18 725.229 1100.49 774.261 1087.71 821.95Z" fill="#7F3728"/>
</g>
</g>
<defs>
<clipPath id="clip0_86_198">
<rect width="1200" height="1200" fill="white"/>
</clipPath>
<clipPath id="clip1_86_198">
<rect width="1134.33" height="415.736" fill="white" transform="translate(106.458 252.421) rotate(15)"/>
</clipPath>
</defs>
</svg>
