<svg width="1200" height="1200" viewBox="0 0 1200 1200" fill="none" xmlns="http://www.w3.org/2000/svg">
<rect width="1200" height="1200" fill="black"/>
<path d="M937 684.941C937 781.23 901.495 873.576 838.295 941.662C775.095 1009.75 689.378 1048 600 1048C510.622 1048 424.905 1009.75 361.705 941.662C298.505 873.576 263 781.23 263 684.941C263 568.973 305.517 450.177 389.375 331.845C391.389 328.963 393.95 326.578 396.889 324.849C399.827 323.12 403.075 322.087 406.414 321.819C409.753 321.551 413.106 322.055 416.25 323.296C419.394 324.537 422.255 326.488 424.642 329.017L473 380.583L618.339 169.651C619.63 165.837 621.753 162.413 624.53 159.668C627.306 156.923 630.654 154.937 634.292 153.878C637.929 152.818 641.75 152.716 645.432 153.581C649.114 154.445 652.549 156.25 655.448 158.843C739.973 234.621 937 437.554 937 684.941Z" fill="#FF5533"/>
<path d="M819 838.294C819 954.112 720.95 1048 600 1048C479.05 1048 381 954.112 381 838.294C381 722.477 600 445.265 600 445.265C600 445.265 819 722.477 819 838.294Z" fill="#FFB433"/>
<path d="M750 903.973C750 983.517 682.843 1048 600 1048C517.157 1048 450 983.517 450 903.973C450 824.429 600 634.039 600 634.039C600 634.039 750 824.429 750 903.973Z" fill="#FFE95A"/>
<ellipse cx="599" cy="955.05" rx="118" ry="92.9497" fill="white"/>
</svg>
