<svg width="1200" height="1200" viewBox="0 0 1200 1200" fill="none" xmlns="http://www.w3.org/2000/svg">
<rect width="1200" height="1200" fill="black"/>
<path d="M156.21 642.445C156.21 584.165 167.689 526.457 189.992 472.614C212.294 418.77 244.984 369.847 286.193 328.638C327.403 287.428 376.326 254.738 430.169 232.436C484.012 210.133 541.721 198.654 600.001 198.654C658.28 198.654 715.989 210.133 769.832 232.436C823.675 254.738 872.598 287.428 913.808 328.638C955.018 369.847 987.707 418.77 1010.01 472.614C1032.31 526.457 1043.79 584.165 1043.79 642.445L600.001 642.445L156.21 642.445Z" fill="#8D1F58"/>
<path d="M595.657 950.932L151.132 694.285L287.331 678.332C456.552 658.512 594.593 780.558 595.657 950.932Z" fill="#86B253"/>
<path d="M595.657 950.932L151.132 694.284L205.416 820.213C272.862 976.672 447.577 1035.2 595.657 950.932Z" fill="#4D7123"/>
<path d="M279.813 642.445C279.813 600.397 288.095 558.761 304.185 519.914C320.276 481.067 343.861 445.77 373.593 416.038C403.326 386.306 438.623 362.721 477.47 346.63C516.317 330.539 557.953 322.257 600.001 322.257C642.048 322.257 683.684 330.539 722.531 346.63C761.378 362.721 796.675 386.306 826.408 416.038C856.14 445.77 879.725 481.067 895.816 519.914C911.907 558.761 920.189 600.397 920.189 642.445L600.001 642.445L279.813 642.445Z" fill="#CD569B"/>
<path d="M392.573 642.445C392.573 615.205 397.938 588.232 408.363 563.066C418.787 537.9 434.066 515.033 453.327 495.772C472.589 476.51 495.455 461.231 520.622 450.807C545.788 440.383 572.761 435.018 600.001 435.018C627.24 435.018 654.213 440.383 679.379 450.807C704.546 461.231 727.412 476.51 746.674 495.772C765.935 515.033 781.214 537.9 791.638 563.066C802.062 588.232 807.428 615.205 807.428 642.445L600 642.445L392.573 642.445Z" fill="#F9A3DB"/>
<path d="M499.261 642.445C499.261 629.216 501.867 616.116 506.929 603.893C511.992 591.671 519.412 580.566 528.767 571.211C538.121 561.857 549.227 554.436 561.449 549.373C573.671 544.311 586.771 541.705 600.001 541.705C613.23 541.705 626.33 544.311 638.552 549.373C650.774 554.436 661.88 561.857 671.234 571.211C680.589 580.566 688.009 591.671 693.072 603.893C698.135 616.116 700.74 629.216 700.74 642.445L600.001 642.445L499.261 642.445Z" fill="#F9F7F8"/>
<path d="M604.343 950.932L1048.87 694.285L912.669 678.332C743.448 658.512 605.407 780.558 604.343 950.932Z" fill="#02C68E"/>
<path d="M604.343 950.932L1048.87 694.284L994.584 820.213C927.138 976.672 752.423 1035.2 604.343 950.932Z" fill="#007846"/>
</svg>
