<svg width="1200" height="1200" viewBox="0 0 1200 1200" fill="none" xmlns="http://www.w3.org/2000/svg">
<rect width="1200" height="1200" fill="black"/>
<ellipse cx="557.873" cy="218.589" rx="19.3652" ry="162.766" transform="rotate(-15 557.873 218.589)" fill="white"/>
<ellipse cx="19.3652" cy="162.766" rx="19.3652" ry="162.766" transform="matrix(-0.965926 -0.258819 -0.258819 0.965926 702.959 66.3818)" fill="white"/>
<path d="M146.035 275.966H530.468C563.605 275.966 590.468 302.829 590.468 335.966V720.399C345.015 720.399 146.035 521.419 146.035 275.966Z" fill="#FF1165"/>
<path d="M1053.96 275.966H669.532C636.395 275.966 609.532 302.829 609.532 335.966V720.399C854.985 720.399 1053.96 521.419 1053.96 275.966Z" fill="#FFCE08"/>
<path d="M368.251 275.966H530.468C563.605 275.966 590.468 302.829 590.468 335.966V498.183C467.741 498.183 368.251 398.693 368.251 275.966Z" fill="#FFC5DA"/>
<path d="M831.749 275.966H669.532C636.395 275.966 609.532 302.829 609.532 335.966V498.183C732.259 498.183 831.749 398.693 831.749 275.966Z" fill="#FEFFB0"/>
<path d="M324.699 826.191C324.699 776.486 364.994 736.191 414.699 736.191H590.582V912.075C590.582 961.78 550.288 1002.07 500.582 1002.07H324.699V826.191Z" fill="#BA164F"/>
<path d="M875.415 826.191C875.415 776.486 835.121 736.191 785.415 736.191H609.532V912.075C609.532 961.78 649.826 1002.07 699.532 1002.07H875.415V826.191Z" fill="#FF8C08"/>
</svg>
