<svg width="1200" height="1200" viewBox="0 0 1200 1200" fill="none" xmlns="http://www.w3.org/2000/svg">
<g clip-path="url(#clip0_1_167)">
<rect width="1200" height="1200" fill="#0E1A4C"/>
<path d="M527.5 177.5C962.306 95.4492 1206.77 289.501 1273.66 393.964H1341V1324H328.81C465.537 1163.19 231 912.5 147.867 777.627C98.9764 698.308 -16.0081 280.064 527.5 177.5Z" fill="#233172"/>
<path d="M750.154 422.5C1069.75 357.7 1247.99 506.5 1297.15 589H1346.65V1323.5H602.654C703.154 1196.5 515.154 947 469.654 892C424.154 837 350.654 503.5 750.154 422.5Z" fill="#41529A"/>
<path d="M1261 659.619V1354.54L963.5 1387C782.03 1251.89 531.67 921.99 719.786 731.221C907.901 540.453 1158.98 604 1261 659.619Z" fill="#6174C0"/>
<path d="M1341 815.5V1359L1159.5 1375C1017.5 1269.33 770.3 1020.7 917.5 871.5C1064.7 722.3 1261.17 772 1341 815.5Z" fill="#899BE3"/>
</g>
<defs>
<clipPath id="clip0_1_167">
<rect width="1200" height="1200" fill="white"/>
</clipPath>
</defs>
</svg>
