<svg width="1200" height="1201" viewBox="0 0 1200 1201" fill="none" xmlns="http://www.w3.org/2000/svg">
<rect width="1200" height="1200" transform="translate(0 0.5)" fill="black"/>
<path fill-rule="evenodd" clip-rule="evenodd" d="M348.372 345.571C342.824 340.023 333.829 340.023 328.281 345.571L242.266 431.586C236.718 437.134 236.718 446.129 242.266 451.677L328.281 537.692C333.829 543.24 342.824 543.24 348.372 537.692C379.557 506.507 421.853 488.987 465.956 488.987H732.834C776.936 488.987 819.232 506.507 850.418 537.692C855.966 543.24 864.961 543.24 870.509 537.692L956.524 451.677C962.072 446.129 962.072 437.134 956.524 431.586L870.509 345.571C864.961 340.023 855.966 340.023 850.418 345.571C819.233 376.756 776.937 394.276 732.835 394.276H465.955C421.853 394.276 379.557 376.756 348.372 345.571Z" fill="#167E48"/>
<rect x="599.573" y="865.792" width="150.056" height="150.056" rx="14.2065" transform="rotate(45 599.573 865.792)" fill="#C6FFC4"/>
<rect x="600.018" y="547.92" width="300.113" height="300.113" rx="28.4131" transform="rotate(45 600.018 547.92)" fill="#96DD94"/>
<rect x="600.018" y="335.71" width="300.113" height="300.113" rx="28.4131" transform="rotate(45 600.018 335.71)" fill="#4CB348"/>
<rect x="600.018" y="123.5" width="300.113" height="300.113" rx="28.4131" transform="rotate(45 600.018 123.5)" fill="#076C5A"/>
</svg>
