<?xml version="1.0" encoding="UTF-8" standalone="no"?>
<svg
   width="1200"
   height="1200"
   viewBox="0 0 1200 1200"
   fill="none"
   version="1.1"
   id="svg7"
   xmlns="http://www.w3.org/2000/svg"
   xmlns:svg="http://www.w3.org/2000/svg">
  <g
     clip-path="url(#clip0_59_315)"
     id="g7">
    <path
       id="circle1"
       style="fill:#fecc04"
       d="m 733.01501,1180.05 a 176.953,176.953 0 0 1 -176.953,176.9531 176.953,176.953 0 0 1 -176.953,-176.9531 176.953,176.953 0 0 1 176.953,-176.953 176.953,176.953 0 0 1 176.953,176.953 z" />
    <path
       id="circle2"
       style="fill:#fea904"
       d="m 794.895,868.47998 a 119.416,119.416 0 0 1 -119.416,119.416 119.416,119.416 0 0 1 -119.416,-119.416 119.416,119.416 0 0 1 119.416,-119.416 119.416,119.416 0 0 1 119.416,119.416 z" />
    <path
       id="circle3"
       style="fill:#ff7e05"
       d="m 832.89,630.73401 a 103.132,103.132 0 0 1 -103.132,103.132 103.132,103.132 0 0 1 -103.13201,-103.132 103.132,103.132 0 0 1 103.13201,-103.132 103.132,103.132 0 0 1 103.132,103.132 z" />
    <path
       id="circle4"
       style="fill:#ff4d00"
       d="m 812.26457,429.89801 a 82.5056,82.5056 0 0 1 -82.5056,82.5056 82.5056,82.5056 0 0 1 -82.5056,-82.5056 82.5056,82.5056 0 0 1 82.5056,-82.5056 82.5056,82.5056 0 0 1 82.5056,82.5056 z" />
    <path
       id="circle5"
       style="fill:#ff1500"
       d="m 756.89822,262.172 a 70.021202,70.021202 0 0 1 -70.02121,70.0212 70.021202,70.021202 0 0 1 -70.0212,-70.0212 70.021202,70.021202 0 0 1 70.0212,-70.02121 70.021202,70.021202 0 0 1 70.02121,70.02121 z" />
    <path
       id="circle6"
       style="fill:#ff0037"
       d="m 688.5054,131.89999 a 45.052399,45.052399 0 0 1 -45.0524,45.0524 45.052399,45.052399 0 0 1 -45.0524,-45.0524 45.052399,45.052399 0 0 1 45.0524,-45.052395 45.052399,45.052399 0 0 1 45.0524,45.052395 z" />
    <path
       id="circle7"
       style="fill:#ff008c"
       d="M 635.31082,35.824799 A 35.824799,35.824799 0 0 1 599.48602,71.649597 35.824799,35.824799 0 0 1 563.66122,35.824799 35.824799,35.824799 0 0 1 599.48602,0 a 35.824799,35.824799 0 0 1 35.8248,35.824799 z" />
  </g>
  <defs
     id="defs7">
    <clipPath
       id="clip0_59_315">
      <rect
         width="1200"
         height="1200"
         fill="white"
         id="rect7" />
    </clipPath>
  </defs>
</svg>
