<?xml version="1.0" encoding="UTF-8" standalone="no"?>
<svg
   id="Layer_1"
   version="1.2"
   viewBox="0 0 1080 1080"
   xmlns="http://www.w3.org/2000/svg"
   xmlns:svg="http://www.w3.org/2000/svg">
  <defs
     id="defs6" />
  <!-- Generator: Adobe Illustrator 29.1.0, SVG Export Plug-In . SVG Version: 2.1.0 Build 142)  -->
  <path
     d="m 342.8,1080.1 h 316.5 c 0.7,-5.9 1,-11.9 1,-18 0,-88 -71.3,-159.3 -159.3,-159.3 h 0.1 c -88,0 -159.3,71.3 -159.3,159.3"
     fill="#fecc04"
     id="path1" />
  <path
     id="circle1"
     style="fill:#fea904"
     d="m 716,781.59998 a 107.5,107.5 0 0 1 -107.5,107.5 107.5,107.5 0 0 1 -107.5,-107.5 107.5,107.5 0 0 1 107.5,-107.5 107.5,107.5 0 0 1 107.5,107.5 z" />
  <path
     id="circle2"
     style="fill:#ff7e05"
     d="m 750.20003,567.70001 a 92.800003,92.800003 0 0 1 -92.80001,92.80001 92.800003,92.800003 0 0 1 -92.8,-92.80001 92.800003,92.800003 0 0 1 92.8,-92.8 92.800003,92.800003 0 0 1 92.80001,92.8 z" />
  <path
     id="circle3"
     style="fill:#ff4d00"
     d="M 731.70003,386.89999 A 74.300003,74.300003 0 0 1 657.40002,461.2 a 74.300003,74.300003 0 0 1 -74.3,-74.30001 74.300003,74.300003 0 0 1 74.3,-74.3 74.300003,74.300003 0 0 1 74.30001,74.3 z" />
  <path
     id="circle4"
     style="fill:#ff1500"
     d="m 681.79999,236 a 63,63 0 0 1 -63,63 63,63 0 0 1 -63,-63 63,63 0 0 1 63,-63 63,63 0 0 1 63,63 z" />
  <path
     id="circle5"
     style="fill:#ff0037"
     d="m 620.20001,118.7 a 40.5,40.5 0 0 1 -40.5,40.5 40.5,40.5 0 0 1 -40.5,-40.5 40.5,40.5 0 0 1 40.5,-40.500003 40.5,40.5 0 0 1 40.5,40.500003 z" />
  <path
     id="circle6"
     style="fill:#ff008c"
     d="M 571.33757,24.704577 A 32.200001,32.200001 0 0 1 547.40881,63.448538 32.200001,32.200001 0 0 1 508.66485,39.51978 32.200001,32.200001 0 0 1 532.59361,0.77581883 32.200001,32.200001 0 0 1 571.33757,24.704577 Z" />
</svg>
