<svg width="1200" height="1200" viewBox="0 0 1200 1200" fill="none" xmlns="http://www.w3.org/2000/svg">
<g clip-path="url(#clip0_59_284)">
<rect width="1200" height="1200" fill="black"/>
<path fill-rule="evenodd" clip-rule="evenodd" d="M284.355 284.366C200.643 368.077 153.615 481.614 153.615 600L599.988 600L935.148 600V1199.99H1046.39V595.061H1046.33C1045.05 478.46 998.169 366.912 915.622 284.366C831.911 200.655 718.374 153.626 599.988 153.626C481.603 153.626 368.066 200.655 284.355 284.366Z" fill="#853970"/>
<path fill-rule="evenodd" clip-rule="evenodd" d="M153.615 600.446H153.615L153.615 -5.30372L264.86 -5.30371L264.86 600.001L599.989 600.001L817.87 600.001V989.588C751.867 1026.5 676.953 1046.37 599.989 1046.37C481.603 1046.37 368.066 999.346 284.355 915.635C200.749 832.028 153.733 718.671 153.615 600.446Z" fill="#2B78DA"/>
<path fill-rule="evenodd" clip-rule="evenodd" d="M264.86 596.163L264.86 -5.30372L376.105 -5.30371L376.105 350.596C377.385 349.448 378.673 348.309 379.972 347.179L599.989 599.999L820.006 852.82C752.954 911.172 665.467 940.498 576.793 934.346C488.119 928.194 405.52 887.069 347.168 820.016C293.068 757.85 263.919 678.12 264.86 596.163Z" fill="#8F8FD2"/>
<path fill-rule="evenodd" clip-rule="evenodd" d="M686.733 276.268C600.874 253.263 509.393 265.306 432.414 309.75L599.989 599.999L767.564 890.248C787.867 878.526 806.722 864.804 823.903 849.377V1199.99H935.148V595.06H935.104C934.267 538.408 919.071 482.364 890.238 432.424C845.794 355.445 772.591 299.274 686.733 276.268Z" fill="#C66EAD"/>
<path fill-rule="evenodd" clip-rule="evenodd" d="M377.026 599.629H376.105L376.106 -5.30371L487.351 -5.3037L487.351 406.9C520.528 387.388 559.187 376.197 600.46 376.197C722.332 376.197 821.414 473.771 823.848 595.06H823.903V1199.99H712.657V792.894C679.685 812.077 641.355 823.064 600.46 823.064C477.061 823.064 377.026 723.029 377.026 599.63C377.026 599.63 377.026 599.629 377.026 599.629Z" fill="#DC9FCB"/>
<circle cx="600.46" cy="599.629" r="110.412" fill="#ECCDE3"/>
<circle cx="600.46" cy="599.628" r="43.7003" fill="#FEF2F4"/>
</g>
<defs>
<clipPath id="clip0_59_284">
<rect width="1200" height="1200" fill="white"/>
</clipPath>
</defs>
</svg>
