<?xml version="1.0" encoding="UTF-8" standalone="no"?>
<svg
   width="1200"
   height="1200"
   viewBox="0 0 1200 1200"
   fill="none"
   version="1.1"
   id="svg6"
   xmlns="http://www.w3.org/2000/svg"
   xmlns:svg="http://www.w3.org/2000/svg">
  <g
     clip-path="url(#clip0_59_284)"
     id="g6">
    <path
       fill-rule="evenodd"
       clip-rule="evenodd"
       d="M 284.355,284.366 C 200.643,368.077 153.615,481.614 153.615,600 h 446.373 335.16 v 599.99 H 1046.39 V 595.061 h -0.06 C 1045.05,478.46 998.169,366.912 915.622,284.366 831.911,200.655 718.374,153.626 599.988,153.626 c -118.385,0 -231.922,47.029 -315.633,130.74 z"
       fill="#853970"
       id="path1" />
    <path
       fill-rule="evenodd"
       clip-rule="evenodd"
       d="m 153.615,600.446 v 0 -605.74972 l 111.245,1e-5 V 600.001 H 599.989 817.87 V 989.588 C 751.867,1026.5 676.953,1046.37 599.989,1046.37 481.603,1046.37 368.066,999.346 284.355,915.635 200.749,832.028 153.733,718.671 153.615,600.446 Z"
       fill="#2b78da"
       id="path2" />
    <path
       fill-rule="evenodd"
       clip-rule="evenodd"
       d="M 264.86,596.163 V -5.30372 l 111.245,1e-5 V 350.596 c 1.28,-1.148 2.568,-2.287 3.867,-3.417 L 599.989,599.999 820.006,852.82 C 752.954,911.172 665.467,940.498 576.793,934.346 488.119,928.194 405.52,887.069 347.168,820.016 293.068,757.85 263.919,678.12 264.86,596.163 Z"
       fill="#8f8fd2"
       id="path3" />
    <path
       fill-rule="evenodd"
       clip-rule="evenodd"
       d="M 686.733,276.268 C 600.874,253.263 509.393,265.306 432.414,309.75 l 167.575,290.249 167.575,290.249 c 20.303,-11.722 39.158,-25.444 56.339,-40.871 V 1199.99 H 935.148 V 595.06 h -0.044 C 934.267,538.408 919.071,482.364 890.238,432.424 845.794,355.445 772.591,299.274 686.733,276.268 Z"
       fill="#c66ead"
       id="path4" />
    <path
       fill-rule="evenodd"
       clip-rule="evenodd"
       d="m 377.026,599.629 h -0.921 l 10e-4,-604.93271 111.245,10e-6 V 406.9 c 33.177,-19.512 71.836,-30.703 113.109,-30.703 121.872,0 220.954,97.574 223.388,218.863 h 0.055 v 604.93 H 712.657 V 792.894 c -32.972,19.183 -71.302,30.17 -112.197,30.17 -123.399,0 -223.434,-100.035 -223.434,-223.434 z"
       fill="#dc9fcb"
       id="path5" />
    <path
       id="circle5"
       style="fill:#eccde3"
       d="m 710.87202,599.62903 a 110.412,110.412 0 0 1 -110.412,110.412 110.412,110.412 0 0 1 -110.412,-110.412 110.412,110.412 0 0 1 110.412,-110.412 110.412,110.412 0 0 1 110.412,110.412 z" />
    <path
       id="circle6"
       style="fill:#fef2f4"
       d="m 644.16032,599.62799 a 43.700298,43.700298 0 0 1 -43.7003,43.7003 43.700298,43.700298 0 0 1 -43.7003,-43.7003 43.700298,43.700298 0 0 1 43.7003,-43.7003 43.700298,43.700298 0 0 1 43.7003,43.7003 z" />
  </g>
  <defs
     id="defs6">
    <clipPath
       id="clip0_59_284">
      <rect
         width="1200"
         height="1200"
         fill="white"
         id="rect6" />
    </clipPath>
  </defs>
</svg>
