<?xml version="1.0" encoding="UTF-8" standalone="no"?>
<svg
   width="1200"
   height="1200"
   viewBox="0 0 1200 1200"
   fill="none"
   version="1.1"
   id="svg16"
   xmlns="http://www.w3.org/2000/svg"
   xmlns:svg="http://www.w3.org/2000/svg">
  <g
     clip-path="url(#clip0_86_198)"
     id="g15">
    <g
       clip-path="url(#clip1_86_198)"
       id="g14">
      <path
         d="m 234.047,617.097 -85.508,-22.912 c -0.678,-0.723 -1.336,-1.471 -1.997,-2.205 -3.848,-4.28 -7.639,-8.605 -11.356,-12.986 -1.327,-1.559 -2.651,-3.132 -3.968,-4.733 -21.412,-25.714 -40.6516,-53.133 -57.5347,-81.936 -1.2885,-2.21 -2.5732,-4.435 -3.8401,-6.67 -0.6475,-1.121 -1.2809,-2.238 -1.9004,-3.352 -0.6297,-1.131 -1.2491,-2.245 -1.8788,-3.376 -1.2491,-2.246 -2.4804,-4.501 -3.6799,-6.763 -1.1248,-2.091 -2.2458,-4.197 -3.335,-6.309 -0.0719,-0.124 -0.1298,-0.245 -0.1877,-0.366 -0.3176,-0.612 -0.6352,-1.223 -0.9631,-1.853 -1.2667,-2.46 -2.5193,-4.917 -3.7541,-7.384 -0.5016,-0.991 -1.0135,-2.001 -1.4973,-3.003 l 0.015,-0.056 c 0.9379,-0.637 1.9038,-1.265 2.8519,-1.884 1.9,-1.251 3.8,-2.501 5.7243,-3.731 0.9303,-0.608 1.8747,-1.212 2.819,-1.817 1.707,-1.092 3.4102,-2.17 5.1415,-3.24 0.3775,-0.23 0.7448,-0.478 1.1364,-0.704 0.6089,-0.363 1.2038,-0.73 1.8024,-1.111 4.0397,-2.498 8.1139,-4.956 12.247,-7.354 1.9261,-1.123 3.8662,-2.243 5.8025,-3.349 29.0971,-16.557 59.5401,-30.724 91.0261,-42.324 1.94,-0.729 3.874,-1.429 5.807,-2.13 2.56,-0.908 5.127,-1.785 7.684,-2.679 0.876,-0.292 1.769,-0.594 2.645,-0.886 l 93.018,24.924 c -15.554,58.049 -75.23,92.482 -133.279,76.928 58.049,15.554 92.51,75.226 76.959,133.261 z"
         fill="#07008f"
         id="path1" />
      <path
         d="m 291.894,401.21 -84.286,-22.585 c 2.041,-0.656 4.075,-1.284 6.124,-1.909 25.226,-7.726 50.997,-13.833 77.215,-18.241 1.209,-0.187 2.407,-0.392 3.616,-0.58 1.982,14.054 1.239,28.733 -2.669,43.315 z"
         fill="#190fcc"
         id="path2" />
      <path
         d="m 232.52,622.795 c -3.482,12.997 -9.173,24.8 -16.559,35.126 -0.953,-0.767 -1.902,-1.548 -2.841,-2.311 -20.243,-16.601 -39.288,-34.415 -57.081,-53.308 z"
         fill="#060168"
         id="path3" />
      <path
         d="M 427.441,668.917 322.321,640.75 c -58.049,-15.554 -92.514,-75.212 -76.959,-133.261 15.554,-58.049 75.23,-92.482 133.279,-76.928 l 105.119,28.167 c -15.554,58.049 -75.23,92.482 -133.279,76.928 58.049,15.554 92.51,75.226 76.96,133.261 z"
         fill="#3c3ee8"
         id="path4" />
      <path
         d="M 485.287,453.03 380.168,424.863 c -35.911,-9.622 -62.798,-36.126 -74.387,-68.685 1.046,-0.141 2.092,-0.282 3.138,-0.423 30.179,-4.143 60.885,-6.039 91.837,-5.538 1.751,0.033 3.475,0.059 5.209,0.102 16.326,0.388 32.726,1.458 49.153,3.212 2.664,0.278 5.32,0.584 7.987,0.907 l 0.014,0.004 c 22.305,26.314 31.765,62.77 22.168,98.588 z"
         fill="#252eef"
         id="path5" />
      <path
         d="m 425.914,674.615 c -8.932,33.333 -32.402,58.875 -61.764,71.646 -2.45,-1.018 -4.879,-2.06 -7.295,-3.098 l -0.014,-0.004 c -17.024,-7.33 -33.588,-15.423 -49.658,-24.182 -1.523,-0.829 -3.028,-1.669 -4.562,-2.516 -27.051,-15.055 -52.699,-32.036 -76.764,-50.714 l -0.073,-0.065 c 25.979,-20.191 60.785,-28.405 95.01,-19.234 z"
         fill="#6a5bc2"
         id="path6" />
      <path
         d="M 620.833,720.736 515.714,692.569 c -58.049,-15.554 -92.514,-75.212 -76.96,-133.261 15.554,-58.049 75.231,-92.482 133.28,-76.927 l 105.119,28.166 c -15.554,58.049 -75.231,92.482 -133.279,76.928 58.048,15.554 92.51,75.226 76.959,133.261 z"
         fill="#b28e98"
         id="path7" />
      <path
         d="M 678.679,504.849 573.56,476.682 c -52.911,-14.177 -86.227,-64.983 -79.923,-117.824 1.498,0.251 2.978,0.512 4.472,0.777 17.025,3.058 34.049,6.852 51.064,11.411 17.014,4.559 34.513,10.061 51.189,16.108 1.587,0.591 3.174,1.182 4.762,1.773 14.406,5.364 28.493,11.245 42.255,17.61 l 0.014,0.004 c 4.996,2.301 9.949,4.651 14.847,7.092 18.14,25.514 25.172,58.627 16.439,91.216 z"
         fill="#d9a981"
         id="path8" />
      <path
         d="m 619.306,726.434 c -7.818,29.179 -26.782,52.393 -51.086,66.279 -5.016,-0.261 -10.045,-0.586 -15.087,-0.974 l -0.014,-0.004 c -18.012,-1.397 -36.054,-3.583 -54.151,-6.627 -1.674,-0.268 -3.34,-0.564 -5.01,-0.846 -17.465,-3.101 -34.935,-6.969 -52.385,-11.645 -17.45,-4.676 -33.655,-9.785 -49.928,-15.65 -1.153,-0.414 -2.317,-0.846 -3.466,-1.274 22.336,-45.958 74.796,-71.148 126.008,-57.426 z"
         fill="#9179ab"
         id="path9" />
      <path
         d="m 938.098,690.474 c -0.274,0.183 -0.531,0.354 -0.788,0.526 -0.641,0.43 -1.283,0.86 -1.932,1.258 -0.021,0.024 -0.039,0.034 -0.074,0.055 -0.054,0.031 -0.111,0.076 -0.164,0.106 -0.429,0.307 -0.881,0.592 -1.316,0.866 -28.966,19.045 -59.523,35.603 -91.315,49.468 -2.045,0.896 -4.101,1.774 -6.153,2.638 -13.874,-24.085 -18.582,-53.462 -10.816,-82.444 7.766,-28.982 28.373,-54.283 54.122,-67.947 0.6,0.792 1.186,1.581 1.768,2.384 20.955,28.375 39.406,58.515 55.136,90.047 0.526,1.014 1.038,2.024 1.532,3.043 z"
         fill="#b05310"
         id="path10" />
      <path
         d="m 817.597,752.956 c -4.049,1.578 -8.111,3.091 -12.19,4.556 -5.962,2.148 -11.976,4.207 -18.026,6.181 -0.94,0.305 -1.883,0.624 -2.832,0.911 l -75.443,-20.215 c -58.049,-15.554 -92.513,-75.212 -76.959,-133.261 15.554,-58.049 75.23,-92.482 133.279,-76.928 l 82.953,22.228 c 0.612,0.69 1.221,1.395 1.834,2.085 2.279,2.612 4.537,5.248 6.769,7.922 2.904,3.425 5.769,6.885 8.58,10.376 -20.835,49.173 -75.245,76.699 -128.296,62.484 51.507,13.801 84.462,62.359 80.331,113.661 z"
         fill="#e29640"
         id="path11" />
      <path
         d="m 841.174,548.389 -74.221,-19.887 c -47.689,-12.778 -79.458,-55.317 -80.641,-102.282 2.337,1.273 4.652,2.571 6.946,3.892 31.61,17.977 61.216,38.606 88.619,61.503 1.429,1.18 2.865,2.392 4.273,3.597 17.875,15.214 34.783,31.403 50.675,48.462 1.461,1.565 2.909,3.126 4.349,4.715 z"
         fill="#f9b75f"
         id="path12" />
      <path
         d="m 773.967,767.875 c -21.327,6.425 -43.06,11.673 -65.088,15.714 -1.821,0.34 -3.67,0.671 -5.498,0.979 -35.18,6.128 -71.134,9.19 -107.497,8.953 -2.027,-0.016 -4.068,-0.037 -6.101,-0.085 25.387,-36.851 72.088,-55.597 117.797,-43.349 z"
         fill="#c97223"
         id="path13" />
      <path
         d="m 1087.71,821.95 -86.36,-23.14 c -47.69,-12.778 -76.002,-61.799 -63.22,-109.499 12.781,-47.701 61.81,-75.998 109.5,-63.219 l 86.36,23.139 c -12.78,47.701 -61.81,75.998 -109.5,63.22 47.69,12.778 76,61.81 63.22,109.499 z"
         fill="#7f3728"
         id="path14" />
    </g>
  </g>
  <defs
     id="defs16">
    <clipPath
       id="clip0_86_198">
      <rect
         width="1200"
         height="1200"
         fill="white"
         id="rect15" />
    </clipPath>
    <clipPath
       id="clip1_86_198">
      <rect
         width="1134.33"
         height="415.736"
         fill="white"
         transform="translate(106.458 252.421) rotate(15)"
         id="rect16" />
    </clipPath>
  </defs>
</svg>
