<?xml version="1.0" encoding="UTF-8" standalone="no"?>
<svg
   width="1200"
   height="1200"
   viewBox="0 0 1200 1200"
   fill="none"
   version="1.1"
   id="svg9"
   xmlns="http://www.w3.org/2000/svg"
   xmlns:svg="http://www.w3.org/2000/svg">
  <g
     clip-path="url(#clip0_155_257)"
     id="g9">
    <path
       d="M 600,1200 V 600 l 600,600 z"
       fill="#5a5923"
       id="path1" />
    <path
       d="M 600,1200 V 600 L 0,1200 Z"
       fill="#5a4823"
       id="path2" />
    <path
       d="M 0,600 H 600 L -2.62268e-5,1200 Z"
       fill="#3d2117"
       id="path3" />
    <path
       d="M 0,600 H 600 L 2.62268e-5,-2.62268e-5 Z"
       fill="#ffffff"
       id="path4" />
    <path
       d="M 600,-6.10352e-5 V 600 L 5.24537e-5,-1.13489e-4 Z"
       fill="#d9e0cf"
       id="path5" />
    <path
       d="M 600,-6.10352e-5 V 600 L 1200,-8.58149e-6 Z"
       fill="#a9c083"
       id="path6" />
    <path
       d="M 1200,600 H 600 L 1200,7.86805e-5 Z"
       fill="#96a34f"
       id="path7" />
    <path
       d="M 1200,600 H 600 l 600,600 z"
       fill="#848332"
       id="path8" />
    <path
       d="m 833,600.5 c 0,1.644 -0.018,3.287 -0.055,4.931 -0.018,0.803 -0.036,1.606 -0.055,2.41 -0.036,0.749 -0.054,1.479 -0.091,2.21 -0.036,1.095 -0.091,2.173 -0.164,3.25 0,0.128 0,0.274 -0.018,0.402 -0.019,0.584 -0.055,1.15 -0.092,1.735 -0.091,1.497 -0.201,2.976 -0.328,4.455 -0.11,1.297 -0.22,2.593 -0.347,3.89 l -0.055,0.548 c -0.146,1.369 -0.292,2.721 -0.457,4.072 -0.182,1.552 -0.383,3.086 -0.602,4.62 -0.53,3.853 -1.169,7.688 -1.9,11.486 -0.182,0.95 -0.365,1.899 -0.566,2.849 -0.109,0.603 -0.237,1.205 -0.365,1.808 -0.274,1.278 -0.566,2.575 -0.858,3.835 -0.183,0.803 -0.365,1.607 -0.566,2.392 -0.165,0.657 -0.311,1.315 -0.493,1.99 -0.42,1.717 -0.877,3.415 -1.352,5.095 -0.347,1.278 -0.693,2.557 -1.077,3.798 -0.055,0.22 -0.11,0.42 -0.183,0.621 -0.328,1.151 -0.675,2.301 -1.04,3.415 -0.567,1.826 -1.169,3.652 -1.79,5.46 -1.881,5.478 -3.944,10.866 -6.209,16.161 -0.621,1.425 -1.242,2.849 -1.881,4.255 -0.383,0.858 -0.767,1.698 -1.168,2.557 -0.439,0.931 -0.877,1.862 -1.333,2.794 -0.53,1.077 -1.06,2.154 -1.589,3.232 -1.315,2.629 -2.685,5.222 -4.109,7.779 -0.566,1.041 -1.132,2.045 -1.716,3.068 -0.749,1.296 -1.48,2.593 -2.247,3.853 -0.054,0.109 -0.127,0.201 -0.182,0.31 -0.201,0.311 -0.384,0.621 -0.566,0.932 -0.658,1.095 -1.333,2.191 -2.027,3.268 -0.986,1.589 -1.991,3.16 -3.032,4.73 -0.511,0.785 -1.04,1.552 -1.57,2.319 -0.53,0.785 -1.059,1.552 -1.589,2.319 -0.876,1.279 -1.789,2.539 -2.702,3.799 -0.913,1.26 -1.827,2.501 -2.776,3.725 -0.237,0.329 -0.475,0.639 -0.731,0.968 -0.712,0.931 -1.424,1.862 -2.154,2.775 -0.439,0.548 -0.877,1.096 -1.315,1.626 -0.767,0.967 -1.552,1.917 -2.338,2.867 -1.241,1.497 -2.501,2.958 -3.78,4.419 -0.438,0.529 -0.913,1.041 -1.369,1.552 -0.877,0.986 -1.753,1.972 -2.666,2.94 -0.877,0.968 -1.79,1.936 -2.703,2.885 -0.639,0.676 -1.278,1.352 -1.936,2.009 -3.013,3.104 -6.135,6.117 -9.331,9.057 -1.096,0.987 -2.191,1.991 -3.305,2.959 -3.214,2.849 -6.519,5.606 -9.898,8.254 -0.365,0.292 -0.712,0.566 -1.059,0.84 -0.712,0.548 -1.424,1.095 -2.136,1.625 -0.968,0.749 -1.954,1.479 -2.94,2.21 -1.352,1.004 -2.721,1.99 -4.109,2.958 -0.42,0.31 -0.859,0.603 -1.278,0.895 -1.005,0.712 -2.027,1.406 -3.05,2.081 -1.297,0.877 -2.611,1.735 -3.926,2.575 -1.589,1.005 -3.159,2.009 -4.766,2.977 -1.607,0.968 -3.214,1.917 -4.821,2.849 -1.187,0.675 -2.356,1.351 -3.561,1.99 -2.082,1.169 -4.2,2.283 -6.337,3.378 -1.15,0.603 -2.319,1.187 -3.488,1.753 -5.168,2.539 -10.427,4.894 -15.795,7.049 -0.439,0.165 -0.877,0.347 -1.297,0.511 -0.968,0.366 -1.954,0.749 -2.922,1.114 -0.109,0.055 -0.219,0.092 -0.329,0.128 -0.693,0.274 -1.369,0.53 -2.063,0.767 -0.895,0.329 -1.79,0.658 -2.684,0.968 -0.548,0.201 -1.114,0.384 -1.662,0.584 -0.073,0.019 -0.146,0.055 -0.219,0.073 -0.84,0.293 -1.68,0.567 -2.52,0.84 -0.749,0.256 -1.498,0.493 -2.265,0.749 -1.022,0.329 -2.045,0.639 -3.086,0.95 -1.041,0.328 -2.1,0.639 -3.159,0.931 -1.15,0.329 -2.301,0.657 -3.47,0.968 -1.022,0.274 -2.045,0.548 -3.067,0.803 -0.037,0.019 -0.092,0.019 -0.128,0.037 -0.712,0.182 -1.425,0.365 -2.155,0.529 -0.986,0.256 -1.972,0.493 -2.958,0.713 -2.831,0.657 -5.698,1.26 -8.565,1.807 -0.438,0.092 -0.876,0.165 -1.315,0.256 -0.967,0.183 -1.935,0.347 -2.921,0.511 l -0.274,0.055 c -1.023,0.165 -2.009,0.329 -3.032,0.493 h -0.018 c -0.182,0.037 -0.383,0.055 -0.566,0.092 -0.091,0 -0.183,0.018 -0.274,0.036 -0.529,0.091 -1.059,0.164 -1.607,0.237 -0.584,0.092 -1.187,0.183 -1.789,0.256 -0.64,0.091 -1.297,0.183 -1.954,0.274 -1.26,0.164 -2.52,0.311 -3.799,0.457 -1.26,0.146 -2.52,0.274 -3.798,0.401 -0.931,0.092 -1.863,0.183 -2.794,0.256 -0.931,0.073 -1.863,0.146 -2.812,0.219 -2.1,0.164 -4.218,0.274 -6.337,0.365 -0.821,0.037 -1.662,0.073 -2.502,0.11 -2.72,0.091 -5.46,0.146 -8.217,0.146 -1.644,0 -3.287,-0.018 -4.93,-0.055 -0.804,-0.018 -1.607,-0.036 -2.411,-0.055 -0.749,-0.036 -1.479,-0.054 -2.21,-0.091 -1.095,-0.036 -2.173,-0.091 -3.25,-0.164 -0.128,0 -0.274,0 -0.402,-0.019 -0.584,-0.018 -1.15,-0.054 -1.735,-0.091 -1.497,-0.091 -2.976,-0.201 -4.455,-0.328 -1.297,-0.11 -2.593,-0.22 -3.89,-0.347 l -0.548,-0.055 c -1.369,-0.146 -2.721,-0.292 -4.072,-0.457 -1.552,-0.182 -3.086,-0.383 -4.62,-0.602 -3.853,-0.53 -7.688,-1.169 -11.486,-1.9 -0.95,-0.182 -1.899,-0.365 -2.849,-0.566 -0.603,-0.109 -1.205,-0.237 -1.808,-0.365 -1.278,-0.274 -2.575,-0.566 -3.835,-0.858 -0.803,-0.183 -1.607,-0.365 -2.392,-0.566 -0.657,-0.165 -1.315,-0.311 -1.99,-0.493 -1.717,-0.42 -3.415,-0.877 -5.095,-1.352 -1.278,-0.347 -2.557,-0.693 -3.798,-1.077 -0.22,-0.055 -0.42,-0.11 -0.621,-0.183 -1.151,-0.328 -2.301,-0.675 -3.415,-1.04 -1.826,-0.567 -3.652,-1.169 -5.46,-1.79 -5.478,-1.881 -10.865,-3.944 -16.161,-6.209 -1.425,-0.621 -2.849,-1.242 -4.255,-1.881 -0.858,-0.383 -1.698,-0.767 -2.557,-1.168 -0.931,-0.439 -1.862,-0.877 -2.794,-1.333 l -3.232,-1.589 c -2.629,-1.315 -5.222,-2.685 -7.779,-4.109 -1.041,-0.566 -2.045,-1.132 -3.068,-1.716 -1.296,-0.749 -2.593,-1.48 -3.853,-2.247 -0.109,-0.054 -0.201,-0.127 -0.31,-0.182 -0.311,-0.201 -0.621,-0.384 -0.932,-0.566 -1.095,-0.658 -2.191,-1.333 -3.268,-2.027 -1.589,-0.986 -3.16,-1.991 -4.73,-3.032 -0.785,-0.511 -1.552,-1.04 -2.319,-1.57 -0.785,-0.53 -1.552,-1.059 -2.319,-1.589 -1.279,-0.876 -2.539,-1.789 -3.799,-2.702 -1.26,-0.913 -2.501,-1.827 -3.725,-2.776 -0.329,-0.237 -0.639,-0.475 -0.968,-0.731 -0.931,-0.712 -1.862,-1.424 -2.775,-2.154 -0.548,-0.439 -1.096,-0.877 -1.626,-1.315 -0.967,-0.767 -1.917,-1.552 -2.867,-2.338 -1.497,-1.241 -2.958,-2.501 -4.419,-3.78 -0.529,-0.438 -1.041,-0.913 -1.552,-1.369 -0.986,-0.877 -1.972,-1.753 -2.94,-2.666 -0.968,-0.877 -1.936,-1.79 -2.885,-2.703 -0.676,-0.639 -1.352,-1.278 -2.009,-1.936 -3.104,-3.013 -6.117,-6.135 -9.057,-9.331 -0.987,-1.096 -1.991,-2.191 -2.959,-3.305 -2.849,-3.214 -5.606,-6.519 -8.254,-9.898 -0.292,-0.365 -0.566,-0.712 -0.84,-1.059 -0.548,-0.712 -1.095,-1.424 -1.625,-2.136 -0.749,-0.968 -1.479,-1.954 -2.21,-2.941 -1.004,-1.351 -1.99,-2.72 -2.958,-4.108 -0.31,-0.42 -0.603,-0.858 -0.895,-1.278 -0.712,-1.005 -1.406,-2.027 -2.081,-3.05 -0.877,-1.297 -1.735,-2.611 -2.575,-3.926 -1.005,-1.589 -2.009,-3.159 -2.977,-4.766 -0.968,-1.607 -1.917,-3.214 -2.849,-4.821 -0.675,-1.187 -1.351,-2.356 -1.99,-3.561 -1.169,-2.082 -2.283,-4.2 -3.378,-6.337 -0.603,-1.15 -1.187,-2.319 -1.753,-3.488 -2.539,-5.168 -4.894,-10.445 -7.049,-15.814 -0.037,-0.091 -0.055,-0.164 -0.091,-0.237 -0.494,-1.224 -0.968,-2.447 -1.443,-3.689 -0.42,-1.132 -0.84,-2.246 -1.242,-3.378 -0.402,-1.096 -0.785,-2.21 -1.169,-3.305 -0.474,-1.352 -0.931,-2.703 -1.369,-4.073 -0.073,-0.237 -0.164,-0.474 -0.219,-0.712 -0.365,-1.096 -0.712,-2.209 -1.041,-3.305 -0.365,-1.169 -0.712,-2.338 -1.041,-3.524 -0.438,-1.498 -0.858,-3.014 -1.26,-4.529 -0.146,-0.548 -0.292,-1.114 -0.438,-1.68 -0.329,-1.279 -0.639,-2.575 -0.95,-3.853 -0.402,-1.68 -0.803,-3.379 -1.169,-5.077 -0.365,-1.716 -0.712,-3.433 -1.04,-5.168 -0.274,-1.388 -0.53,-2.775 -0.767,-4.182 -0.092,-0.511 -0.183,-1.022 -0.256,-1.534 -0.164,-0.967 -0.311,-1.917 -0.457,-2.885 -0.018,-0.146 -0.054,-0.31 -0.073,-0.456 -0.109,-0.804 -0.237,-1.607 -0.347,-2.429 -0.091,-0.712 -0.2,-1.424 -0.292,-2.137 -0.109,-0.712 -0.182,-1.424 -0.274,-2.154 -0.219,-1.845 -0.42,-3.707 -0.602,-5.57 -0.092,-0.931 -0.183,-1.863 -0.256,-2.794 -0.073,-0.931 -0.146,-1.863 -0.219,-2.812 -0.164,-2.1 -0.274,-4.218 -0.365,-6.337 -0.037,-0.822 -0.073,-1.662 -0.11,-2.502 -0.091,-2.72 -0.146,-5.46 -0.146,-8.217 0,-1.643 0.018,-3.287 0.055,-4.931 l 0.055,-2.41 c 0.036,-0.749 0.054,-1.479 0.091,-2.21 0.036,-1.095 0.091,-2.173 0.164,-3.25 0,-0.128 0,-0.274 0,-0.402 0.018,-0.584 0.055,-1.15 0.092,-1.735 0.091,-1.497 0.2,-2.976 0.328,-4.455 0.11,-1.297 0.219,-2.593 0.347,-3.89 l 0.055,-0.548 c 0.146,-1.369 0.292,-2.721 0.457,-4.072 0.182,-1.552 0.383,-3.086 0.602,-4.62 0.53,-3.853 1.169,-7.688 1.899,-11.486 0.183,-0.95 0.365,-1.899 0.566,-2.849 0.11,-0.603 0.238,-1.205 0.366,-1.808 0.273,-1.278 0.566,-2.575 0.858,-3.835 0.182,-0.803 0.365,-1.607 0.566,-2.392 0.164,-0.657 0.31,-1.315 0.493,-1.99 0.42,-1.717 0.877,-3.415 1.351,-5.095 0.347,-1.278 0.694,-2.557 1.078,-3.798 0.055,-0.219 0.109,-0.42 0.182,-0.621 0.329,-1.151 0.676,-2.301 1.041,-3.415 0.566,-1.826 1.169,-3.652 1.79,-5.46 1.881,-5.497 3.962,-10.884 6.227,-16.179 l 0.712,-1.644 c 0.365,-0.876 0.749,-1.735 1.15,-2.593 0.786,-1.771 1.607,-3.524 2.447,-5.259 0.658,-1.37 1.352,-2.703 2.027,-4.072 4.018,-7.926 8.474,-15.577 13.331,-22.936 0.822,-1.26 1.68,-2.52 2.538,-3.762 0.165,-0.256 0.347,-0.511 0.53,-0.767 1.899,-2.739 3.853,-5.442 5.88,-8.09 0.183,-0.255 0.383,-0.511 0.584,-0.767 0.859,-1.114 1.717,-2.209 2.575,-3.287 0.274,-0.365 0.584,-0.73 0.877,-1.095 0.785,-0.968 1.57,-1.936 2.374,-2.904 1.095,-1.315 2.191,-2.629 3.341,-3.908 2.228,-2.593 4.547,-5.131 6.921,-7.615 0.073,-0.091 0.146,-0.182 0.238,-0.255 1.114,-1.151 2.228,-2.301 3.341,-3.433 0.512,-0.512 1.041,-1.041 1.553,-1.534 1.917,-1.918 3.871,-3.78 5.861,-5.606 1.26,-1.169 2.539,-2.32 3.817,-3.452 2.41,-2.136 4.857,-4.2 7.359,-6.209 0.493,-0.42 0.986,-0.821 1.479,-1.205 0.95,-0.748 1.918,-1.515 2.886,-2.264 0.219,-0.183 0.438,-0.347 0.657,-0.511 1.205,-0.932 2.429,-1.845 3.652,-2.74 0.676,-0.511 1.352,-1.004 2.045,-1.497 1.114,-0.804 2.228,-1.589 3.342,-2.356 1.005,-0.712 2.027,-1.406 3.05,-2.081 1.296,-0.877 2.611,-1.735 3.926,-2.575 1.589,-1.023 3.159,-2.009 4.766,-2.977 1.607,-0.968 3.214,-1.917 4.821,-2.849 1.187,-0.675 2.356,-1.351 3.561,-1.99 2.082,-1.169 4.2,-2.283 6.337,-3.378 1.15,-0.603 2.319,-1.187 3.487,-1.753 5.168,-2.539 10.446,-4.894 15.815,-7.049 0.091,-0.037 0.164,-0.055 0.237,-0.091 1.223,-0.493 2.447,-0.968 3.689,-1.443 1.424,-0.548 2.848,-1.059 4.291,-1.571 0.803,-0.292 1.607,-0.566 2.41,-0.84 1.352,-0.474 2.703,-0.931 4.054,-1.369 0.238,-0.073 0.475,-0.164 0.713,-0.219 1.095,-0.365 2.209,-0.712 3.305,-1.041 1.169,-0.365 2.337,-0.712 3.524,-1.041 1.498,-0.438 3.013,-0.858 4.529,-1.26 0.548,-0.146 1.114,-0.292 1.68,-0.438 1.278,-0.329 2.575,-0.639 3.853,-0.95 1.68,-0.402 3.378,-0.803 5.077,-1.169 1.716,-0.365 3.433,-0.712 5.168,-1.04 1.387,-0.274 2.775,-0.53 4.181,-0.767 0.512,-0.092 1.023,-0.183 1.534,-0.256 0.968,-0.164 1.918,-0.311 2.886,-0.457 0.146,0 0.31,-0.054 0.456,-0.073 0.804,-0.109 1.607,-0.237 2.429,-0.347 0.712,-0.091 1.424,-0.2 2.136,-0.292 0.712,-0.109 1.425,-0.182 2.155,-0.274 1.844,-0.219 3.707,-0.42 5.57,-0.602 0.931,-0.092 1.862,-0.183 2.794,-0.256 0.931,-0.073 1.862,-0.146 2.812,-0.219 2.1,-0.164 4.218,-0.274 6.337,-0.365 0.821,-0.037 1.661,-0.073 2.501,-0.11 2.721,-0.091 5.46,-0.146 8.218,-0.146 1.643,0 3.287,0.018 4.93,0.055 l 2.411,0.055 c 0.748,0.036 1.479,0.054 2.209,0.091 1.096,0.036 2.173,0.091 3.251,0.164 0.128,0 0.274,0 0.401,0.018 0.585,0 1.151,0.055 1.735,0.092 1.498,0.091 2.977,0.201 4.456,0.328 1.297,0.11 2.593,0.22 3.89,0.347 l 0.547,0.055 c 1.37,0.146 2.721,0.292 4.073,0.457 1.552,0.182 3.086,0.383 4.62,0.602 3.853,0.53 7.688,1.169 11.486,1.9 0.949,0.182 1.899,0.365 2.849,0.566 0.602,0.109 1.205,0.237 1.808,0.365 1.278,0.274 2.574,0.566 3.834,0.858 0.804,0.183 1.607,0.365 2.393,0.566 0.657,0.165 1.314,0.311 1.99,0.493 1.717,0.42 3.415,0.877 5.095,1.352 1.278,0.347 2.556,0.694 3.798,1.077 0.219,0.055 0.42,0.11 0.621,0.183 1.15,0.328 2.301,0.675 3.415,1.04 1.826,0.567 3.652,1.169 5.46,1.79 5.497,1.881 10.883,3.963 16.179,6.227 l 1.644,0.712 c 0.876,0.366 1.735,0.749 2.593,1.151 1.771,0.785 3.524,1.607 5.259,2.447 1.37,0.657 2.703,1.351 4.072,2.027 7.925,4.017 15.577,8.473 22.936,13.33 1.26,0.822 2.52,1.68 3.762,2.539 0.256,0.164 0.511,0.347 0.767,0.529 2.739,1.899 5.442,3.853 8.089,5.88 0.256,0.183 0.512,0.384 0.767,0.585 1.114,0.858 2.21,1.716 3.287,2.574 0.366,0.274 0.731,0.585 1.096,0.877 0.968,0.785 1.936,1.57 2.904,2.374 1.314,1.095 2.629,2.191 3.908,3.342 2.593,2.227 5.131,4.547 7.614,6.921 0.092,0.073 0.183,0.146 0.256,0.237 1.151,1.114 2.301,2.228 3.433,3.342 0.511,0.511 1.041,1.041 1.552,1.552 1.899,1.917 3.762,3.871 5.588,5.862 1.169,1.26 2.319,2.538 3.452,3.816 2.136,2.411 4.2,4.858 6.208,7.36 0.42,0.493 0.822,0.986 1.206,1.479 0.748,0.949 1.515,1.917 2.264,2.885 0.182,0.219 0.347,0.438 0.511,0.657 0.932,1.206 1.845,2.429 2.739,3.653 0.512,0.675 1.005,1.351 1.498,2.045 0.803,1.114 1.589,2.228 2.355,3.342 0.713,1.004 1.407,2.027 2.082,3.049 0.877,1.297 1.735,2.611 2.575,3.926 1.023,1.589 2.009,3.159 2.977,4.766 0.967,1.607 1.917,3.214 2.848,4.821 0.676,1.187 1.352,2.356 1.991,3.561 1.168,2.082 2.282,4.2 3.378,6.337 0.603,1.15 1.187,2.319 1.753,3.488 2.538,5.168 4.894,10.445 7.049,15.814 0.036,0.091 0.055,0.164 0.091,0.237 0.493,1.224 0.968,2.447 1.443,3.689 0.895,2.374 1.753,4.748 2.575,7.14 0.401,1.205 0.821,2.41 1.205,3.616 0.073,0.237 0.164,0.474 0.219,0.712 0.365,1.096 0.712,2.209 1.041,3.305 0.365,1.169 0.712,2.338 1.041,3.524 0.438,1.498 0.858,3.014 1.26,4.529 0.146,0.548 0.292,1.114 0.438,1.68 0.329,1.279 0.639,2.575 0.95,3.853 0.401,1.68 0.803,3.379 1.168,5.077 0.366,1.716 0.713,3.433 1.041,5.168 0.274,1.388 0.53,2.776 0.767,4.182 0.092,0.511 0.183,1.022 0.256,1.534 0.164,0.967 0.31,1.917 0.456,2.885 0.019,0.146 0.055,0.31 0.073,0.456 0.11,0.804 0.238,1.607 0.347,2.429 0.092,0.712 0.201,1.424 0.293,2.137 0.109,0.712 0.182,1.424 0.273,2.154 0.22,1.845 0.42,3.707 0.603,5.57 0.091,0.931 0.183,1.863 0.256,2.794 0.073,0.931 0.146,1.863 0.219,2.812 0.164,2.1 0.274,4.218 0.365,6.337 0.037,0.822 0.073,1.662 0.11,2.502 0.091,2.72 0.146,5.46 0.146,8.217 z"
       fill="#1b1614"
       id="path9" />
  </g>
  <defs
     id="defs9">
    <clipPath
       id="clip0_155_257">
      <rect
         width="1200"
         height="1200"
         fill="white"
         id="rect9" />
    </clipPath>
  </defs>
</svg>
