<svg width="1200" height="1200" viewBox="0 0 1200 1200" fill="none" xmlns="http://www.w3.org/2000/svg">
<g clip-path="url(#clip0_155_257)">
<rect width="1200" height="1200" fill="black"/>
<path d="M600 1200V600L1200 1200H600Z" fill="#5A5923"/>
<path d="M600 1200V600L0 1200H600Z" fill="#5A4823"/>
<path d="M0 600L600 600L-2.62268e-05 1200L0 600Z" fill="#3D2117"/>
<path d="M0 600L600 600L2.62268e-05 -2.62268e-05L0 600Z" fill="white"/>
<path d="M600 -6.10352e-05L600 600L5.24537e-05 -0.000113489L600 -6.10352e-05Z" fill="#D9E0CF"/>
<path d="M600 -6.10352e-05L600 600L1200 -8.58149e-06L600 -6.10352e-05Z" fill="#A9C083"/>
<path d="M1200 600L600 600L1200 7.86805e-05L1200 600Z" fill="#96A34F"/>
<path d="M1200 600L600 600L1200 1200L1200 600Z" fill="#848332"/>
<path d="M833 600.5C833 602.144 832.982 603.787 832.945 605.431C832.927 606.234 832.909 607.037 832.89 607.841C832.854 608.59 832.836 609.32 832.799 610.051C832.763 611.146 832.708 612.224 832.635 613.301C832.635 613.429 832.635 613.575 832.617 613.703C832.598 614.287 832.562 614.853 832.525 615.438C832.434 616.935 832.324 618.414 832.197 619.893C832.087 621.19 831.977 622.486 831.85 623.783L831.795 624.331C831.649 625.7 831.503 627.052 831.338 628.403C831.156 629.955 830.955 631.489 830.736 633.023C830.206 636.876 829.567 640.711 828.836 644.509C828.654 645.459 828.471 646.408 828.27 647.358C828.161 647.961 828.033 648.563 827.905 649.166C827.631 650.444 827.339 651.741 827.047 653.001C826.864 653.804 826.682 654.608 826.481 655.393C826.316 656.05 826.17 656.708 825.988 657.383C825.568 659.1 825.111 660.798 824.636 662.478C824.289 663.756 823.943 665.035 823.559 666.276C823.504 666.496 823.449 666.696 823.376 666.897C823.048 668.048 822.701 669.198 822.336 670.312C821.769 672.138 821.167 673.964 820.546 675.772C818.665 681.25 816.602 686.638 814.337 691.933C813.716 693.358 813.095 694.782 812.456 696.188C812.073 697.046 811.689 697.886 811.288 698.745C810.849 699.676 810.411 700.607 809.955 701.539C809.425 702.616 808.895 703.693 808.366 704.771C807.051 707.4 805.681 709.993 804.257 712.55C803.691 713.591 803.125 714.595 802.541 715.618C801.792 716.914 801.061 718.211 800.294 719.471C800.24 719.58 800.167 719.672 800.112 719.781C799.911 720.092 799.728 720.402 799.546 720.713C798.888 721.808 798.213 722.904 797.519 723.981C796.533 725.57 795.528 727.141 794.487 728.711C793.976 729.496 793.447 730.263 792.917 731.03C792.387 731.815 791.858 732.582 791.328 733.349C790.452 734.628 789.539 735.888 788.626 737.148C787.713 738.408 786.799 739.649 785.85 740.873C785.613 741.202 785.375 741.512 785.119 741.841C784.407 742.772 783.695 743.703 782.965 744.616C782.526 745.164 782.088 745.712 781.65 746.242C780.883 747.209 780.098 748.159 779.312 749.109C778.071 750.606 776.811 752.067 775.532 753.528C775.094 754.057 774.619 754.569 774.163 755.08C773.286 756.066 772.41 757.052 771.497 758.02C770.62 758.988 769.707 759.956 768.794 760.905C768.155 761.581 767.516 762.257 766.858 762.914C763.845 766.018 760.723 769.031 757.527 771.971C756.431 772.958 755.336 773.962 754.222 774.93C751.008 777.779 747.703 780.536 744.324 783.184C743.959 783.476 743.612 783.75 743.265 784.024C742.553 784.572 741.841 785.119 741.129 785.649C740.161 786.398 739.175 787.128 738.189 787.859C736.837 788.863 735.468 789.849 734.08 790.817C733.66 791.127 733.221 791.42 732.802 791.712C731.797 792.424 730.775 793.118 729.752 793.793C728.455 794.67 727.141 795.528 725.826 796.368C724.237 797.373 722.667 798.377 721.06 799.345C719.453 800.313 717.846 801.262 716.239 802.194C715.052 802.869 713.883 803.545 712.678 804.184C710.596 805.353 708.478 806.467 706.341 807.562C705.191 808.165 704.022 808.749 702.853 809.315C697.685 811.854 692.426 814.209 687.058 816.364C686.619 816.529 686.181 816.711 685.761 816.875C684.793 817.241 683.807 817.624 682.839 817.989C682.73 818.044 682.62 818.081 682.51 818.117C681.817 818.391 681.141 818.647 680.447 818.884C679.552 819.213 678.657 819.542 677.763 819.852C677.215 820.053 676.649 820.236 676.101 820.436C676.028 820.455 675.955 820.491 675.882 820.509C675.042 820.802 674.202 821.076 673.362 821.349C672.613 821.605 671.864 821.842 671.097 822.098C670.075 822.427 669.052 822.737 668.011 823.048C666.97 823.376 665.911 823.687 664.852 823.979C663.702 824.308 662.551 824.636 661.382 824.947C660.36 825.221 659.337 825.495 658.315 825.75C658.278 825.769 658.223 825.769 658.187 825.787C657.475 825.969 656.762 826.152 656.032 826.316C655.046 826.572 654.06 826.809 653.074 827.029C650.243 827.686 647.376 828.289 644.509 828.836C644.071 828.928 643.633 829.001 643.194 829.092C642.227 829.275 641.259 829.439 640.273 829.603L639.999 829.658C638.976 829.823 637.99 829.987 636.967 830.151H636.949C636.767 830.188 636.566 830.206 636.383 830.243C636.292 830.243 636.2 830.261 636.109 830.279C635.58 830.37 635.05 830.443 634.502 830.516C633.918 830.608 633.315 830.699 632.713 830.772C632.073 830.863 631.416 830.955 630.759 831.046C629.499 831.21 628.239 831.357 626.96 831.503C625.7 831.649 624.44 831.777 623.162 831.904C622.231 831.996 621.299 832.087 620.368 832.16C619.437 832.233 618.505 832.306 617.556 832.379C615.456 832.543 613.338 832.653 611.219 832.744C610.398 832.781 609.557 832.817 608.717 832.854C605.997 832.945 603.257 833 600.5 833C598.856 833 597.213 832.982 595.57 832.945C594.766 832.927 593.963 832.909 593.159 832.89C592.41 832.854 591.68 832.836 590.949 832.799C589.854 832.763 588.776 832.708 587.699 832.635C587.571 832.635 587.425 832.635 587.297 832.616C586.713 832.598 586.147 832.562 585.562 832.525C584.065 832.434 582.586 832.324 581.107 832.197C579.81 832.087 578.514 831.977 577.217 831.85L576.669 831.795C575.3 831.649 573.948 831.503 572.597 831.338C571.045 831.156 569.511 830.955 567.977 830.736C564.124 830.206 560.289 829.567 556.491 828.836C555.541 828.654 554.592 828.471 553.642 828.27C553.039 828.161 552.437 828.033 551.834 827.905C550.556 827.631 549.259 827.339 547.999 827.047C547.196 826.864 546.392 826.682 545.607 826.481C544.95 826.316 544.292 826.17 543.617 825.988C541.9 825.568 540.202 825.111 538.522 824.636C537.244 824.289 535.965 823.943 534.724 823.559C534.504 823.504 534.304 823.449 534.103 823.376C532.952 823.048 531.802 822.701 530.688 822.336C528.862 821.769 527.036 821.167 525.228 820.546C519.75 818.665 514.363 816.602 509.067 814.337C507.642 813.716 506.218 813.095 504.812 812.456C503.954 812.073 503.114 811.689 502.255 811.288C501.324 810.849 500.393 810.411 499.461 809.955L496.229 808.366C493.6 807.051 491.007 805.681 488.45 804.257C487.409 803.691 486.405 803.125 485.382 802.541C484.086 801.792 482.789 801.061 481.529 800.294C481.42 800.24 481.328 800.167 481.219 800.112C480.908 799.911 480.598 799.728 480.287 799.546C479.192 798.888 478.096 798.213 477.019 797.519C475.43 796.533 473.859 795.528 472.289 794.487C471.504 793.976 470.737 793.447 469.97 792.917C469.185 792.387 468.418 791.858 467.651 791.328C466.372 790.452 465.112 789.539 463.852 788.626C462.592 787.713 461.351 786.799 460.127 785.85C459.798 785.613 459.488 785.375 459.159 785.119C458.228 784.407 457.297 783.695 456.384 782.965C455.836 782.526 455.288 782.088 454.758 781.65C453.791 780.883 452.841 780.098 451.891 779.312C450.394 778.071 448.933 776.811 447.472 775.532C446.943 775.094 446.431 774.619 445.92 774.163C444.934 773.286 443.948 772.41 442.98 771.497C442.012 770.62 441.044 769.707 440.095 768.794C439.419 768.155 438.743 767.516 438.086 766.858C434.982 763.845 431.969 760.723 429.029 757.527C428.042 756.431 427.038 755.336 426.07 754.222C423.221 751.008 420.464 747.703 417.816 744.324C417.524 743.959 417.25 743.612 416.976 743.265C416.428 742.553 415.881 741.841 415.351 741.129C414.602 740.161 413.872 739.175 413.141 738.188C412.137 736.837 411.151 735.468 410.183 734.08C409.873 733.66 409.58 733.222 409.288 732.802C408.576 731.797 407.882 730.775 407.207 729.752C406.33 728.455 405.472 727.141 404.632 725.826C403.627 724.237 402.623 722.667 401.655 721.06C400.687 719.453 399.738 717.846 398.806 716.239C398.131 715.052 397.455 713.883 396.816 712.678C395.647 710.596 394.533 708.478 393.438 706.341C392.835 705.191 392.251 704.022 391.685 702.853C389.146 697.685 386.791 692.408 384.636 687.039C384.599 686.948 384.581 686.875 384.545 686.802C384.051 685.578 383.577 684.355 383.102 683.113C382.682 681.981 382.262 680.867 381.86 679.735C381.458 678.639 381.075 677.525 380.691 676.43C380.217 675.078 379.76 673.727 379.322 672.357C379.249 672.12 379.158 671.883 379.103 671.645C378.738 670.549 378.391 669.436 378.062 668.34C377.697 667.171 377.35 666.002 377.021 664.816C376.583 663.318 376.163 661.802 375.761 660.287C375.615 659.739 375.469 659.173 375.323 658.607C374.994 657.328 374.684 656.032 374.373 654.754C373.971 653.074 373.57 651.375 373.204 649.677C372.839 647.961 372.492 646.244 372.164 644.509C371.89 643.121 371.634 641.734 371.397 640.327C371.305 639.816 371.214 639.305 371.141 638.793C370.977 637.826 370.83 636.876 370.684 635.908C370.666 635.762 370.63 635.598 370.611 635.452C370.502 634.648 370.374 633.845 370.264 633.023C370.173 632.311 370.064 631.599 369.972 630.886C369.863 630.174 369.79 629.462 369.698 628.732C369.479 626.887 369.278 625.025 369.096 623.162C369.004 622.231 368.913 621.299 368.84 620.368C368.767 619.437 368.694 618.505 368.621 617.556C368.457 615.456 368.347 613.338 368.256 611.219C368.219 610.397 368.183 609.557 368.146 608.717C368.055 605.997 368 603.257 368 600.5C368 598.857 368.018 597.213 368.055 595.569L368.11 593.159C368.146 592.41 368.164 591.68 368.201 590.949C368.237 589.854 368.292 588.776 368.365 587.699C368.365 587.571 368.365 587.425 368.365 587.297C368.383 586.713 368.42 586.147 368.457 585.562C368.548 584.065 368.657 582.586 368.785 581.107C368.895 579.81 369.004 578.514 369.132 577.217L369.187 576.669C369.333 575.3 369.479 573.948 369.644 572.597C369.826 571.045 370.027 569.511 370.246 567.977C370.776 564.124 371.415 560.289 372.145 556.491C372.328 555.541 372.51 554.592 372.711 553.642C372.821 553.039 372.949 552.437 373.077 551.834C373.35 550.556 373.643 549.259 373.935 547.999C374.117 547.196 374.3 546.392 374.501 545.607C374.665 544.95 374.811 544.292 374.994 543.617C375.414 541.9 375.871 540.202 376.345 538.522C376.692 537.244 377.039 535.965 377.423 534.724C377.478 534.505 377.532 534.304 377.605 534.103C377.934 532.952 378.281 531.802 378.646 530.688C379.212 528.862 379.815 527.036 380.436 525.228C382.317 519.731 384.398 514.344 386.663 509.049L387.375 507.405C387.74 506.529 388.124 505.67 388.525 504.812C389.311 503.041 390.132 501.288 390.972 499.553C391.63 498.183 392.324 496.85 392.999 495.481C397.017 487.555 401.473 479.904 406.33 472.545C407.152 471.285 408.01 470.025 408.868 468.783C409.033 468.527 409.215 468.272 409.398 468.016C411.297 465.277 413.251 462.574 415.278 459.926C415.461 459.671 415.661 459.415 415.862 459.159C416.721 458.045 417.579 456.95 418.437 455.872C418.711 455.507 419.021 455.142 419.314 454.777C420.099 453.809 420.884 452.841 421.688 451.873C422.783 450.558 423.879 449.244 425.029 447.965C427.257 445.372 429.576 442.834 431.95 440.35C432.023 440.259 432.096 440.168 432.188 440.095C433.302 438.944 434.416 437.794 435.529 436.662C436.041 436.15 436.57 435.621 437.082 435.128C438.999 433.21 440.953 431.348 442.943 429.522C444.203 428.353 445.482 427.202 446.76 426.07C449.17 423.934 451.617 421.87 454.119 419.861C454.612 419.441 455.105 419.04 455.598 418.656C456.548 417.908 457.516 417.141 458.484 416.392C458.703 416.209 458.922 416.045 459.141 415.881C460.346 414.949 461.57 414.036 462.793 413.141C463.469 412.63 464.145 412.137 464.838 411.644C465.952 410.84 467.066 410.055 468.18 409.288C469.185 408.576 470.207 407.882 471.23 407.207C472.526 406.33 473.841 405.472 475.156 404.632C476.745 403.609 478.315 402.623 479.922 401.655C481.529 400.687 483.136 399.738 484.743 398.806C485.93 398.131 487.099 397.455 488.304 396.816C490.386 395.647 492.504 394.533 494.641 393.438C495.791 392.835 496.96 392.251 498.128 391.685C503.296 389.146 508.574 386.791 513.943 384.636C514.034 384.599 514.107 384.581 514.18 384.545C515.403 384.052 516.627 383.577 517.869 383.102C519.293 382.554 520.717 382.043 522.16 381.531C522.963 381.239 523.767 380.965 524.57 380.691C525.922 380.217 527.273 379.76 528.624 379.322C528.862 379.249 529.099 379.158 529.337 379.103C530.432 378.738 531.546 378.391 532.642 378.062C533.811 377.697 534.979 377.35 536.166 377.021C537.664 376.583 539.179 376.163 540.695 375.761C541.243 375.615 541.809 375.469 542.375 375.323C543.653 374.994 544.95 374.684 546.228 374.373C547.908 373.971 549.606 373.57 551.305 373.204C553.021 372.839 554.738 372.492 556.473 372.164C557.86 371.89 559.248 371.634 560.654 371.397C561.166 371.305 561.677 371.214 562.188 371.141C563.156 370.977 564.106 370.83 565.074 370.684C565.22 370.684 565.384 370.63 565.53 370.611C566.334 370.502 567.137 370.374 567.959 370.264C568.671 370.173 569.383 370.064 570.095 369.972C570.807 369.863 571.52 369.79 572.25 369.698C574.094 369.479 575.957 369.278 577.82 369.096C578.751 369.004 579.682 368.913 580.614 368.84C581.545 368.767 582.476 368.694 583.426 368.621C585.526 368.457 587.644 368.347 589.763 368.256C590.584 368.219 591.424 368.183 592.264 368.146C594.985 368.055 597.724 368 600.482 368C602.125 368 603.769 368.018 605.412 368.055L607.823 368.11C608.571 368.146 609.302 368.164 610.032 368.201C611.128 368.237 612.205 368.292 613.283 368.365C613.411 368.365 613.557 368.365 613.684 368.383C614.269 368.383 614.835 368.438 615.419 368.475C616.917 368.566 618.396 368.676 619.875 368.803C621.172 368.913 622.468 369.023 623.765 369.15L624.312 369.205C625.682 369.351 627.033 369.497 628.385 369.662C629.937 369.844 631.471 370.045 633.005 370.264C636.858 370.794 640.693 371.433 644.491 372.164C645.44 372.346 646.39 372.529 647.34 372.73C647.942 372.839 648.545 372.967 649.148 373.095C650.426 373.369 651.722 373.661 652.982 373.953C653.786 374.136 654.589 374.318 655.375 374.519C656.032 374.684 656.689 374.83 657.365 375.012C659.082 375.432 660.78 375.889 662.46 376.364C663.738 376.711 665.016 377.058 666.258 377.441C666.477 377.496 666.678 377.551 666.879 377.624C668.029 377.952 669.18 378.299 670.294 378.664C672.12 379.231 673.946 379.833 675.754 380.454C681.251 382.335 686.637 384.417 691.933 386.681L693.577 387.393C694.453 387.759 695.312 388.142 696.17 388.544C697.941 389.329 699.694 390.151 701.429 390.991C702.799 391.648 704.132 392.342 705.501 393.018C713.426 397.035 721.078 401.491 728.437 406.348C729.697 407.17 730.957 408.028 732.199 408.887C732.455 409.051 732.71 409.234 732.966 409.416C735.705 411.315 738.408 413.269 741.055 415.296C741.311 415.479 741.567 415.68 741.822 415.881C742.936 416.739 744.032 417.597 745.109 418.455C745.475 418.729 745.84 419.04 746.205 419.332C747.173 420.117 748.141 420.902 749.109 421.706C750.423 422.801 751.738 423.897 753.017 425.048C755.61 427.275 758.148 429.595 760.631 431.969C760.723 432.042 760.814 432.115 760.887 432.206C762.038 433.32 763.188 434.434 764.32 435.548C764.831 436.059 765.361 436.589 765.872 437.1C767.771 439.017 769.634 440.971 771.46 442.962C772.629 444.222 773.779 445.5 774.912 446.778C777.048 449.189 779.112 451.636 781.12 454.138C781.54 454.631 781.942 455.124 782.326 455.617C783.074 456.566 783.841 457.534 784.59 458.502C784.772 458.721 784.937 458.94 785.101 459.159C786.033 460.365 786.946 461.588 787.84 462.812C788.352 463.487 788.845 464.163 789.338 464.857C790.141 465.971 790.927 467.085 791.693 468.199C792.406 469.203 793.1 470.226 793.775 471.248C794.652 472.545 795.51 473.859 796.35 475.174C797.373 476.763 798.359 478.333 799.327 479.94C800.294 481.547 801.244 483.154 802.175 484.761C802.851 485.948 803.527 487.117 804.166 488.322C805.334 490.404 806.448 492.522 807.544 494.659C808.147 495.809 808.731 496.978 809.297 498.147C811.835 503.315 814.191 508.592 816.346 513.961C816.382 514.052 816.401 514.125 816.437 514.198C816.93 515.422 817.405 516.645 817.88 517.887C818.775 520.261 819.633 522.635 820.455 525.027C820.856 526.232 821.276 527.437 821.66 528.643C821.733 528.88 821.824 529.117 821.879 529.355C822.244 530.451 822.591 531.564 822.92 532.66C823.285 533.829 823.632 534.998 823.961 536.184C824.399 537.682 824.819 539.198 825.221 540.713C825.367 541.261 825.513 541.827 825.659 542.393C825.988 543.672 826.298 544.968 826.609 546.246C827.01 547.926 827.412 549.625 827.777 551.323C828.143 553.039 828.49 554.756 828.818 556.491C829.092 557.879 829.348 559.267 829.585 560.673C829.677 561.184 829.768 561.695 829.841 562.207C830.005 563.174 830.151 564.124 830.297 565.092C830.316 565.238 830.352 565.402 830.37 565.548C830.48 566.352 830.608 567.155 830.717 567.977C830.809 568.689 830.918 569.401 831.01 570.114C831.119 570.826 831.192 571.538 831.283 572.268C831.503 574.113 831.703 575.975 831.886 577.838C831.977 578.769 832.069 579.701 832.142 580.632C832.215 581.563 832.288 582.495 832.361 583.444C832.525 585.544 832.635 587.662 832.726 589.781C832.763 590.603 832.799 591.443 832.836 592.283C832.927 595.003 832.982 597.743 832.982 600.5H833Z" fill="#1B1614"/>
</g>
<defs>
<clipPath id="clip0_155_257">
<rect width="1200" height="1200" fill="white"/>
</clipPath>
</defs>
</svg>
