<?xml version="1.0" encoding="UTF-8" standalone="no"?>
<svg
   width="1200"
   height="1200"
   viewBox="0 0 1200 1200"
   fill="none"
   version="1.1"
   id="svg8"
   xmlns="http://www.w3.org/2000/svg"
   xmlns:svg="http://www.w3.org/2000/svg">
  <g
     clip-path="url(#clip0_86_195)"
     id="g8">
    <path
       d="m 599.512,239 c -0.398,0 -0.773,0 -1.171,0.027 h -0.82 c -0.515,-0.027 -1.03,0 -1.522,0.027 h -0.562 c -0.211,-0.027 -0.422,-0.027 -0.632,0 C 362.287,243.255 228.992,558.519 182.929,692 H 79 C 141.292,432.906 347.768,242.024 593.657,239.027 h 0.188 c 0.187,-0.027 0.374,-0.027 0.562,0 h 1.592 C 597.17,239 598.341,239 599.512,239 Z"
       fill="#52397a"
       id="path2" />
    <path
       d="M 383.925,692 H 182.929 c 45.899,-132.999 178.421,-446.444 409.37,-452.84 0.07,0 0.117,0 0.187,0 h 0.258 c 0.679,0 1.358,-0.08 2.06,-0.08 0.211,-0.027 0.422,-0.027 0.633,0 h 0.562 c -0.164,0 -0.328,0.027 -0.492,0.027 -0.375,0 -0.75,0.027 -1.124,0.053 -0.632,0 -1.265,0.054 -1.897,0.107 -136.41,8.938 -187.438,277.559 -205.001,421.423 -0.094,0.616 -0.164,1.231 -0.234,1.82 -0.469,4.041 -0.937,7.948 -1.382,11.774 -0.328,2.917 -0.632,5.781 -0.96,8.591 -0.141,1.391 -0.281,2.756 -0.445,4.121 -0.164,1.364 -0.305,2.729 -0.422,4.04 -0.023,0.348 -0.07,0.669 -0.093,0.991"
       fill="#a94987"
       id="path3" />
    <path
       d="m 597.521,239.027 c -0.257,0 -0.515,0 -0.773,0.027 -0.21,-0.027 -0.421,-0.027 -0.655,0 h -0.094 c 0.492,-0.027 1.007,-0.054 1.522,-0.027 z"
       fill="#a0d64c"
       id="path4" />
    <path
       d="m 383.926,692 c 0.023,-0.321 0.07,-0.669 0.117,-0.99 0.117,-1.311 0.257,-2.676 0.421,-4.041 0.164,-1.365 0.305,-2.73 0.445,-4.121 0.328,-2.81 0.633,-5.673 0.96,-8.59 0.422,-3.8 0.89,-7.734 1.382,-11.775 0.07,-0.588 0.141,-1.204 0.234,-1.819 17.54,-143.784 68.545,-412.592 205.001,-421.53 v 0.107 L 593.564,692 H 383.949"
       fill="#e25985"
       id="path5" />
    <path
       d="m 1120,692 h -104.7 c -4.15,-11.587 -8.97,-24.539 -14.5,-38.535 -0.61,-1.606 -1.262,-3.211 -1.918,-4.844 -0.187,-0.481 -0.398,-0.99 -0.585,-1.498 -1.101,-2.757 -2.225,-5.54 -3.396,-8.376 -2.061,-5.058 -4.192,-10.249 -6.416,-15.521 -1.452,-3.426 -2.928,-6.904 -4.45,-10.41 -3.068,-7.118 -6.276,-14.397 -9.648,-21.81 -1.663,-3.693 -3.396,-7.412 -5.152,-11.186 -1.756,-3.773 -3.536,-7.573 -5.363,-11.373 -2.224,-4.683 -4.496,-9.393 -6.861,-14.156 -0.539,-1.044 -1.054,-2.114 -1.569,-3.158 -0.96,-1.926 -1.92,-3.88 -2.927,-5.834 -1.944,-3.88 -3.935,-7.787 -5.995,-11.721 -4.052,-7.84 -8.267,-15.735 -12.646,-23.656 -1.101,-1.98 -2.201,-3.96 -3.302,-5.941 -1.077,-1.98 -2.201,-3.96 -3.349,-5.94 -1.101,-1.981 -2.248,-3.961 -3.395,-5.941 -4.544,-7.921 -9.274,-15.842 -14.145,-23.737 -1.194,-1.98 -2.412,-3.96 -3.677,-5.914 -1.475,-2.355 -2.95,-4.683 -4.426,-7.011 -1.007,-1.606 -2.037,-3.184 -3.091,-4.763 -1.241,-1.954 -2.529,-3.907 -3.817,-5.861 -1.288,-1.953 -2.576,-3.907 -3.887,-5.834 -1.288,-1.953 -2.6,-3.88 -3.958,-5.807 -1.241,-1.846 -2.506,-3.693 -3.794,-5.512 -1.405,-2.007 -2.833,-4.014 -4.238,-5.995 -1.335,-1.9 -2.693,-3.8 -4.098,-5.7 -1.359,-1.899 -2.74,-3.799 -4.169,-5.673 -2.763,-3.773 -5.597,-7.519 -8.477,-11.212 -1.405,-1.847 -2.857,-3.72 -4.332,-5.54 -1.429,-1.846 -2.881,-3.666 -4.356,-5.486 -2.483,-3.104 -5.012,-6.181 -7.588,-9.232 -0.445,-0.508 -0.89,-1.044 -1.335,-1.579 -4.496,-5.352 -9.086,-10.624 -13.769,-15.762 -1.546,-1.739 -3.115,-3.452 -4.707,-5.111 -62.175,-67.008 -138.471,-115.846 -229.216,-117.317 -0.21,-0.027 -0.421,-0.027 -0.655,0 h -0.094 c -0.492,-0.027 -1.007,-0.054 -1.522,-0.027 h -0.07 c -0.188,-0.027 -0.375,-0.027 -0.562,0 h -0.188 C 593.259,239 592.884,239 592.486,239 h 1.71 c 0.609,0 1.194,0 1.803,0.027 h 2.342 C 844.3,241.703 1049.51,412.488 1120,692 Z"
       fill="#ffdfd7"
       id="path6" />
    <path
       d="M 1015.3,692 H 808.377 c -0.094,-0.963 -0.211,-1.927 -0.328,-2.917 -0.492,-4.415 -1.007,-8.965 -1.569,-13.701 -0.14,-1.178 -0.281,-2.355 -0.421,-3.559 -0.164,-1.445 -0.352,-2.944 -0.539,-4.443 -0.422,-3.452 -0.843,-6.957 -1.311,-10.543 -0.164,-1.204 -0.328,-2.382 -0.492,-3.613 -0.024,-0.134 -0.024,-0.267 -0.047,-0.428 -0.328,-2.408 -0.632,-4.87 -0.984,-7.359 -0.351,-2.623 -0.726,-5.299 -1.1,-7.975 -0.234,-1.739 -0.492,-3.505 -0.726,-5.272 -1.007,-7.038 -2.084,-14.29 -3.255,-21.675 -0.281,-1.847 -0.586,-3.72 -0.867,-5.567 -1.007,-6.342 -2.084,-12.818 -3.208,-19.347 -1.874,-10.758 -3.864,-21.73 -6.042,-32.862 -0.866,-4.469 -1.78,-8.965 -2.693,-13.461 -0.726,-3.532 -1.475,-7.064 -2.248,-10.623 -0.258,-1.258 -0.539,-2.543 -0.82,-3.827 -0.679,-3.211 -1.405,-6.423 -2.131,-9.634 -0.749,-3.399 -1.545,-6.824 -2.365,-10.249 -0.422,-1.847 -0.866,-3.693 -1.311,-5.54 -0.68,-2.836 -1.382,-5.7 -2.085,-8.563 -0.515,-2.034 -1.03,-4.067 -1.545,-6.101 -0.867,-3.479 -1.78,-6.958 -2.717,-10.437 -0.538,-2.06 -1.077,-4.094 -1.662,-6.128 -0.843,-3.211 -1.733,-6.396 -2.647,-9.58 -0.726,-2.623 -1.475,-5.218 -2.248,-7.814 -0.655,-2.248 -1.311,-4.469 -1.99,-6.717 -0.679,-2.221 -1.359,-4.442 -2.061,-6.663 -0.703,-2.222 -1.382,-4.443 -2.108,-6.664 -0.679,-2.221 -1.405,-4.415 -2.131,-6.61 -1.498,-4.576 -3.044,-9.125 -4.636,-13.621 -1.476,-4.121 -2.951,-8.215 -4.473,-12.283 C 713.042,311.307 665.668,242.077 597.123,239.107 h -0.14 c -0.492,-0.027 -0.984,-0.053 -1.476,-0.027 -0.234,-0.026 -0.468,-0.026 -0.702,-0.026 -0.305,-0.027 -0.632,-0.027 -0.96,-0.027 0.047,-0.027 0.07,-0.027 0.117,-0.027 h 0.234 c 0,0 0.14,0 0.211,0.027 h 0.07 c 0.328,0 0.656,0.027 0.96,0.027 h 0.656 c 0.749,0.026 1.475,0.026 2.201,0.053 h 1.218 c 0,0 0.234,0.027 0.351,0.054 0.234,0 0.445,0 0.679,0.026 89.059,2.757 164.114,51.166 225.422,117.184 1.569,1.686 3.138,3.399 4.707,5.111 4.66,5.165 9.25,10.437 13.77,15.762 0.445,0.535 0.89,1.071 1.334,1.579 2.553,3.051 5.082,6.128 7.588,9.232 1.452,1.82 2.927,3.667 4.356,5.486 1.452,1.847 2.903,3.693 4.332,5.54 2.857,3.719 5.691,7.439 8.477,11.212 1.405,1.874 2.787,3.774 4.169,5.673 1.358,1.9 2.74,3.8 4.098,5.7 1.405,1.981 2.833,3.988 4.239,5.995 1.264,1.846 2.529,3.666 3.793,5.512 1.335,1.927 2.646,3.881 3.958,5.807 1.288,1.954 2.599,3.881 3.887,5.834 1.288,1.954 2.553,3.907 3.817,5.861 1.031,1.579 2.061,3.184 3.092,4.763 1.475,2.328 2.95,4.656 4.426,7.011 1.217,1.954 2.458,3.934 3.676,5.914 4.848,7.868 9.555,15.816 14.145,23.737 1.147,1.98 2.271,3.96 3.395,5.941 1.124,1.98 2.248,3.96 3.349,5.94 1.101,1.981 2.201,3.961 3.302,5.941 4.356,7.921 8.571,15.816 12.646,23.656 2.037,3.934 4.028,7.841 5.995,11.721 0.983,1.954 1.943,3.908 2.927,5.834 0.515,1.044 1.03,2.114 1.569,3.158 2.342,4.763 4.613,9.473 6.861,14.156 1.827,3.8 3.607,7.6 5.363,11.373 1.756,3.747 3.466,7.493 5.152,11.186 3.349,7.413 6.581,14.692 9.648,21.81 1.522,3.506 2.998,6.984 4.45,10.41 2.224,5.272 4.355,10.463 6.416,15.521 1.171,2.836 2.295,5.619 3.396,8.376 0.187,0.508 0.398,1.017 0.585,1.498 0.656,1.633 1.288,3.238 1.918,4.844 5.53,13.996 10.35,26.948 14.5,38.535 z"
       fill="#fdac99"
       id="path7" />
    <path
       d="m 808.049,689.083 c 0.117,0.963 0.211,1.954 0.304,2.917 H 593.564 l -1.078,-452.759 v -0.107 h 7.026 c 0,0 0.257,0 0.374,0 0.211,0 0.445,0 0.656,0.053 66.741,5.031 113.086,73.458 145.075,159.037 1.522,4.068 2.997,8.162 4.472,12.283 1.593,4.496 3.138,9.045 4.637,13.621 0.726,2.195 1.452,4.389 2.131,6.61 0.726,2.221 1.405,4.442 2.108,6.664 0.702,2.221 1.381,4.442 2.061,6.663 0.679,2.248 1.334,4.469 1.99,6.717 0.773,2.596 1.522,5.191 2.248,7.814 0.914,3.184 1.803,6.369 2.646,9.58 0.586,2.034 1.125,4.068 1.663,6.128 0.937,3.479 1.85,6.958 2.717,10.437 0.515,2.034 1.03,4.067 1.545,6.101 0.703,2.863 1.405,5.727 2.084,8.563 0.445,1.847 0.89,3.693 1.312,5.54 0.82,3.425 1.616,6.85 2.365,10.249 0.726,3.211 1.452,6.449 2.131,9.634 0.281,1.284 0.562,2.569 0.82,3.827 0.773,3.559 1.522,7.091 2.248,10.623 0.913,4.496 1.826,8.992 2.693,13.461 2.201,11.132 4.192,22.104 6.042,32.862 1.124,6.529 2.201,13.005 3.208,19.347 0.281,1.847 0.585,3.72 0.866,5.567 1.171,7.385 2.249,14.637 3.256,21.675 0.234,1.767 0.491,3.533 0.726,5.272 0.374,2.676 0.749,5.352 1.1,7.975 0.328,2.489 0.656,4.951 0.984,7.359 0.023,0.161 0.023,0.294 0.047,0.428 0.632,4.844 1.241,9.58 1.803,14.156 0.187,1.499 0.374,2.998 0.538,4.443 0.141,1.204 0.281,2.381 0.422,3.559 0.562,4.736 1.077,9.286 1.569,13.701 z"
       fill="#fd8179"
       id="path8" />
  </g>
  <defs
     id="defs8">
    <clipPath
       id="clip0_86_195">
      <rect
         width="1041"
         height="453"
         fill="white"
         transform="translate(79 239)"
         id="rect8" />
    </clipPath>
  </defs>
</svg>
