<svg width="1200" height="1200" viewBox="0 0 1200 1200" fill="none" xmlns="http://www.w3.org/2000/svg">
<rect width="1200" height="1200" fill="black"/>
<path fill-rule="evenodd" clip-rule="evenodd" d="M572.101 305.964C602.533 288.689 629.822 264.667 600 237C647.034 248.209 737.88 281.893 730.586 327.926C805.881 356.587 856.502 409.278 856.996 469.608C914.122 509.583 949 562.921 949 621.5C949 745.488 792.747 846 600 846C407.253 846 251 745.488 251 621.5C251 562.921 285.878 509.583 343.004 469.608C343.699 384.679 443.735 314.888 572.101 305.964Z" fill="#FFE6E6"/>
<circle cx="436.5" cy="360.5" r="93.5" fill="#E07171"/>
<circle cx="570.5" cy="423.5" r="93.5" fill="#A74545"/>
<path d="M265 684H434L454 963H326.094L265 684Z" fill="#594027"/>
<path d="M935 684H766L746 963H873.906L935 684Z" fill="#CFAA84"/>
<path d="M434 684H600V963H452L434 684Z" fill="#835C35"/>
<path d="M766 684H600V963H748L766 684Z" fill="#B08253"/>
</svg>
