<?xml version="1.0" encoding="UTF-8" standalone="no"?>
<svg
   width="1200"
   height="1200"
   viewBox="0 0 1200 1200"
   fill="none"
   version="1.1"
   id="svg5"
   xmlns="http://www.w3.org/2000/svg"
   xmlns:svg="http://www.w3.org/2000/svg">
  <defs
     id="defs5" />
  <path
     fill-rule="evenodd"
     clip-rule="evenodd"
     d="M 572.101,305.964 C 602.533,288.689 629.822,264.667 600,237 c 47.034,11.209 137.88,44.893 130.586,90.926 75.295,28.661 125.916,81.352 126.41,141.682 C 914.122,509.583 949,562.921 949,621.5 949,745.488 792.747,846 600,846 407.253,846 251,745.488 251,621.5 c 0,-58.579 34.878,-111.917 92.004,-151.892 0.695,-84.929 100.731,-154.72 229.097,-163.644 z"
     fill="#ffe6e6"
     id="path1" />
  <path
     id="circle1"
     style="fill:#e07171"
     d="M 530,360.5 A 93.5,93.5 0 0 1 436.5,454 93.5,93.5 0 0 1 343,360.5 93.5,93.5 0 0 1 436.5,267 93.5,93.5 0 0 1 530,360.5 Z" />
  <path
     id="circle2"
     style="fill:#a74545"
     d="M 664,423.5 A 93.5,93.5 0 0 1 570.5,517 93.5,93.5 0 0 1 477,423.5 93.5,93.5 0 0 1 570.5,330 93.5,93.5 0 0 1 664,423.5 Z" />
  <path
     d="m 265,684 h 169 l 20,279 H 326.094 Z"
     fill="#594027"
     id="path2" />
  <path
     d="M 935,684 H 766 l -20,279 h 127.906 z"
     fill="#cfaa84"
     id="path3" />
  <path
     d="M 434,684 H 600 V 963 H 452 Z"
     fill="#835c35"
     id="path4" />
  <path
     d="M 766,684 H 600 v 279 h 148 z"
     fill="#b08253"
     id="path5" />
</svg>
