<?xml version="1.0" encoding="UTF-8" standalone="no"?>
<svg
   width="1200"
   height="1200"
   viewBox="0 0 1200 1200"
   fill="none"
   version="1.1"
   id="svg7"
   xmlns="http://www.w3.org/2000/svg"
   xmlns:svg="http://www.w3.org/2000/svg">
  <defs
     id="defs7" />
  <path
     id="ellipse1"
     style="fill:#ffffff"
     d="M 576.57835,213.57693 A 162.76601,19.3652 75 0 1 599.99994,375.80891 162.76601,19.3652 75 0 1 539.16765,223.6011 162.76601,19.3652 75 0 1 515.74606,61.36912 162.76601,19.3652 75 0 1 576.57835,213.57693 Z" />
  <path
     id="ellipse2"
     style="fill:#ffffff"
     d="M 623.42139,213.57756 A 19.365204,162.76604 14.999995 0 0 599.9998,375.80957 19.365204,162.76604 14.999995 0 0 660.83209,223.60172 19.365204,162.76604 14.999995 0 0 684.25368,61.369716 19.365204,162.76604 14.999995 0 0 623.42139,213.57756 Z" />
  <path
     d="m 146.035,275.966 h 384.433 c 33.137,0 60,26.863 60,60 v 384.433 c -245.453,0 -444.433,-198.98 -444.433,-444.433 z"
     fill="#ff1165"
     id="path2" />
  <path
     d="M 1053.96,275.966 H 669.532 c -33.137,0 -60,26.863 -60,60 v 384.433 c 245.453,0 444.428,-198.98 444.428,-444.433 z"
     fill="#ffce08"
     id="path3" />
  <path
     d="m 368.251,275.966 h 162.217 c 33.137,0 60,26.863 60,60 v 162.217 c -122.727,0 -222.217,-99.49 -222.217,-222.217 z"
     fill="#ffc5da"
     id="path4" />
  <path
     d="M 831.749,275.966 H 669.532 c -33.137,0 -60,26.863 -60,60 v 162.217 c 122.727,0 222.217,-99.49 222.217,-222.217 z"
     fill="#feffb0"
     id="path5" />
  <path
     d="m 324.699,826.191 c 0,-49.705 40.295,-90 90,-90 h 175.883 v 175.884 c 0,49.705 -40.294,89.995 -90,89.995 H 324.699 Z"
     fill="#ba164f"
     id="path6" />
  <path
     d="m 875.415,826.191 c 0,-49.705 -40.294,-90 -90,-90 H 609.532 v 175.884 c 0,49.705 40.294,89.995 90,89.995 h 175.883 z"
     fill="#ff8c08"
     id="path7" />
</svg>
