<?xml version="1.0" encoding="UTF-8" standalone="no"?>
<svg
   width="1200"
   height="1200"
   viewBox="0 0 1200 1200"
   fill="none"
   version="1.1"
   id="svg3"
   xmlns="http://www.w3.org/2000/svg"
   xmlns:svg="http://www.w3.org/2000/svg">
  <g
     clip-path="url(#clip0_86_116)"
     id="g3">
    <path
       id="circle1"
       style="fill:#ffc7ee"
       d="M 839.78398,274.36499 A 162.35899,162.35899 0 0 1 677.42499,436.72398 162.35899,162.35899 0 0 1 515.06599,274.36499 162.35899,162.35899 0 0 1 677.42499,112.006 162.35899,162.35899 0 0 1 839.78398,274.36499 Z" />
    <path
       d="M 599.999,1088 423.868,488.482 h 352.263 z"
       fill="#733835"
       id="path1" />
    <path
       fill-rule="evenodd"
       clip-rule="evenodd"
       d="m 811.203,550.007 c 8.764,-24.025 13.545,-49.965 13.545,-77.022 0,-124.125 -100.623,-224.749 -224.748,-224.749 -124.126,0 -224.749,100.624 -224.749,224.749 0,27.057 4.781,52.997 13.545,77.022 z"
       fill="#f37db2"
       id="path2" />
    <path
       fill-rule="evenodd"
       clip-rule="evenodd"
       d="m 360.215,584.688 c 0,-25.548 20.71,-46.258 46.258,-46.258 h 387.053 c 25.548,0 46.258,20.71 46.258,46.258 0,25.547 -20.71,46.257 -46.258,46.257 h -32.521 c -2.13,23.572 -21.942,42.041 -46.068,42.041 -24.126,0 -43.939,-18.469 -46.069,-42.041 h -6.373 v 49.401 c 0,25.547 -20.71,46.258 -46.258,46.258 -25.547,0 -46.258,-20.711 -46.258,-46.258 V 630.945 H 406.473 c -25.548,0 -46.258,-20.71 -46.258,-46.257 z"
       fill="#ce598f"
       id="path3" />
    <path
       id="circle3"
       style="fill:#ff9fd1"
       d="m 699.96898,330.59698 a 162.35899,162.35899 0 0 1 -162.35899,162.359 162.35899,162.35899 0 0 1 -162.359,-162.359 162.35899,162.35899 0 0 1 162.359,-162.35899 162.35899,162.35899 0 0 1 162.35899,162.35899 z" />
  </g>
  <defs
     id="defs3">
    <clipPath
       id="clip0_86_116">
      <rect
         width="1200"
         height="1200"
         fill="white"
         id="rect3" />
    </clipPath>
  </defs>
</svg>
