<?xml version="1.0" encoding="UTF-8"?>
<svg id="Layer_1" xmlns="http://www.w3.org/2000/svg" baseProfile="tiny" version="1.2" viewBox="0 0 1200 1201">
  <!-- Generator: Adobe Illustrator 29.5.0, SVG Export Plug-In . SVG Version: 2.1.0 Build 137)  -->
  <rect y=".33" width="1200" height="1200" fill="#0e1a4c"/>
  <path d="M527.5,177.83C-16.01,280.4,98.98,698.64,147.87,777.96c63.83,103.55,216.9,275.37,222.68,422.37h829.45V313.16c-114.68-97.49-336.89-198.66-672.5-135.33Z" fill="#233172"/>
  <path d="M750.15,422.83c-399.5,81-326,414.5-280.5,469.5,33.34,40.3,142.98,183.55,159.76,308h570.59V491.99c-91.47-62.29-240.26-111.65-449.85-69.15h0Z" fill="#41529a"/>
  <path d="M719.78,731.55c-125.54,127.32-55.71,316.79,58.52,468.78h421.7v-567.12c-121.36-42.85-322.82-61.27-480.22,98.34h0Z" fill="#6174c0"/>
  <path d="M917.5,871.83c-89.78,91-33.21,218.53,57.09,328.5h225.41v-426.49c-87.8-9.2-194.44,8.74-282.5,97.99h0Z" fill="#899be3"/>
</svg>