<svg width="1200" height="1200" viewBox="0 0 1200 1200" fill="none" xmlns="http://www.w3.org/2000/svg">
<rect width="1200" height="1200" fill="black"/>
<path d="M600.001 599.988L360.743 461.33V354.287H461.33L600.001 599.988Z" fill="#000E5E"/>
<path d="M845.701 354.287V461.317L600 599.988L738.671 354.287H845.701Z" fill="#D2D5FF"/>
<path d="M600.001 599.987L461.33 839.258H360.743V738.645L600.001 599.987Z" fill="#2036FF"/>
<path d="M845.701 738.658V839.258H738.671L600 599.987L845.701 738.658Z" fill="#808CFF"/>
<path d="M461.329 354.3L600 115.029V600L461.329 354.3Z" fill="white"/>
<path d="M738.671 354.3L600 115.029V600L738.671 354.3Z" fill="#E3E5FF"/>
<path d="M461.329 839.258L600 600V1084.97L461.329 839.258Z" fill="#3E51FF"/>
<path d="M738.671 839.258L600 600V1084.97L738.671 839.258Z" fill="#606EFF"/>
<path d="M845.701 461.329L1084.97 600H600L845.701 461.329Z" fill="#BFC6FF"/>
<path d="M845.701 738.671L1084.97 600H600L845.701 738.671Z" fill="#9FA9FF"/>
<path d="M360.73 461.329L600 600H115.029L360.73 461.329Z" fill="#021294"/>
<path d="M360.73 738.671L600 600H115.029L360.73 738.671Z" fill="#0018E4"/>
</svg>
