<?xml version="1.0" encoding="UTF-8" standalone="no"?>
<svg
   width="962"
   height="942"
   viewBox="0 0 962 942"
   fill="none"
   version="1.1"
   id="svg4"
   xmlns="http://www.w3.org/2000/svg"
   xmlns:svg="http://www.w3.org/2000/svg">
  <defs
     id="defs4" />
  <path
     d="M480.999 617.352L961.091 941.505L480.999 827.152L0.908203 941.505L480.999 617.352Z"
     fill="#0F4528"
     id="path1" />
  <path
     d="M477.932 393.955C479.53 392.044 482.468 392.044 484.067 393.955L826.836 803.582C829.812 807.139 825.364 812.062 821.524 809.461L483.243 580.278C481.888 579.36 480.111 579.36 478.756 580.278L140.474 809.461C136.635 812.062 132.187 807.139 135.163 803.582L477.932 393.955Z"
     fill="#16653B"
     id="path2" />
  <path
     d="M480.999 194.567L665.05 571.584L481.471 350.268L297.864 571.584L480.999 194.567Z"
     fill="#298755"
     id="path3" />
  <path
     d="M481.186 0.494629L590.453 377.512L481.466 156.195L372.463 377.512L481.186 0.494629Z"
     fill="#4AB27B"
     id="path4" />
</svg>
