<svg width="1200" height="1201" viewBox="0 0 1200 1201" fill="none" xmlns="http://www.w3.org/2000/svg">
<rect width="1200" height="1200" transform="translate(0 0.5)" fill="black"/>
<path d="M587.667 817.615H612.331L623.951 1051.06C624.064 1053.35 622.243 1055.26 619.956 1055.26H580.042C577.755 1055.26 575.933 1053.35 576.047 1051.06L587.667 817.615Z" fill="#DC3E1A"/>
<path d="M392.057 693.877C399.384 686.267 411.566 686.267 418.893 693.877C423.871 699.047 431.377 700.897 438.188 698.633C448.212 695.299 458.999 700.96 461.95 711.104C463.955 717.996 469.742 723.122 476.825 724.282C487.25 725.989 494.17 736.014 492.069 746.367C490.642 753.401 493.383 760.63 499.116 764.948C507.554 771.304 509.022 783.398 502.351 791.588C497.818 797.154 496.886 804.828 499.956 811.316C504.473 820.865 500.153 832.256 490.44 836.408C483.84 839.229 479.448 845.592 479.151 852.763C478.713 863.318 469.594 871.396 459.064 870.558C451.909 869.989 445.063 873.582 441.467 879.794C436.175 888.936 424.346 891.851 415.411 886.216C409.341 882.387 401.61 882.387 395.539 886.216C386.604 891.851 374.775 888.936 369.483 879.794C365.887 873.582 359.041 869.989 351.886 870.558C341.356 871.396 332.237 863.318 331.8 852.763C331.502 845.592 327.11 839.229 320.511 836.408C310.797 832.256 306.477 820.865 310.994 811.316C314.064 804.828 313.132 797.154 308.599 791.588C301.928 783.398 303.396 771.304 311.834 764.948C317.567 760.63 320.308 753.401 318.881 746.367C316.78 736.014 323.7 725.989 334.125 724.282C341.208 723.122 346.995 717.996 349 711.104C351.951 700.96 362.738 695.299 372.762 698.633C379.573 700.897 387.079 699.047 392.057 693.877Z" fill="#D61518"/>
<path d="M781.097 693.877C788.424 686.267 800.606 686.267 807.933 693.877C812.911 699.047 820.417 700.897 827.228 698.633C837.252 695.299 848.039 700.96 850.99 711.104C852.995 717.996 858.782 723.122 865.865 724.282C876.29 725.989 883.21 736.014 881.109 746.367C879.682 753.401 882.423 760.63 888.156 764.948C896.594 771.304 898.062 783.398 891.391 791.588C886.858 797.154 885.926 804.828 888.996 811.316C893.513 820.865 889.193 832.256 879.48 836.408C872.88 839.229 868.488 845.592 868.191 852.763C867.753 863.318 858.634 871.396 848.104 870.558C840.949 869.989 834.103 873.582 830.507 879.794C825.215 888.936 813.386 891.851 804.452 886.216C798.381 882.387 790.65 882.387 784.579 886.216C775.644 891.851 763.815 888.936 758.523 879.794C754.927 873.582 748.081 869.989 740.926 870.558C730.396 871.396 721.277 863.318 720.84 852.763C720.542 845.592 716.151 839.229 709.551 836.408C699.837 832.256 695.517 820.865 700.035 811.316C703.104 804.828 702.172 797.154 697.639 791.588C690.968 783.398 692.436 771.304 700.874 764.948C706.607 760.63 709.348 753.401 707.921 746.367C705.82 736.014 712.74 725.989 723.165 724.282C730.248 723.122 736.035 717.996 738.04 711.104C740.991 700.96 751.778 695.299 761.802 698.633C768.613 700.897 776.119 699.047 781.097 693.877Z" fill="#E35E1C"/>
<path d="M583.663 628.107C592.581 618.844 607.409 618.844 616.326 628.107L625.142 637.263C631.201 643.557 640.337 645.808 648.627 643.052L660.688 639.041C672.889 634.984 686.018 641.874 689.61 654.22L693.16 666.425C695.601 674.813 702.644 681.053 711.265 682.464L723.809 684.518C736.498 686.595 744.921 698.798 742.364 711.399L739.836 723.856C738.098 732.417 741.435 741.215 748.413 746.472L758.565 754.119C768.835 761.856 770.622 776.575 762.502 786.544L754.475 796.399C748.958 803.173 747.824 812.514 751.56 820.411L756.995 831.901C762.493 843.523 757.236 857.387 745.413 862.441L733.725 867.437C725.692 870.871 720.347 878.615 719.985 887.343L719.458 900.043C718.925 912.889 707.827 922.722 695.01 921.702L682.339 920.694C673.63 920.002 665.298 924.375 660.922 931.935L654.553 942.935C648.111 954.063 633.715 957.611 622.84 950.752L612.089 943.971C604.7 939.311 595.29 939.311 587.901 943.971L577.15 950.752C566.275 957.611 551.878 954.063 545.436 942.935L539.068 931.935C534.691 924.375 526.359 920.002 517.651 920.694L504.98 921.702C492.163 922.722 481.064 912.889 480.531 900.043L480.005 887.343C479.643 878.615 474.297 870.871 466.264 867.437L454.577 862.441C442.754 857.387 437.496 843.523 442.994 831.901L448.43 820.411C452.166 812.514 451.031 803.173 445.514 796.399L437.487 786.544C429.367 776.575 431.154 761.856 441.424 754.119L451.577 746.472C458.554 741.215 461.891 732.417 460.154 723.856L457.626 711.399C455.069 698.798 463.492 686.595 476.18 684.518L488.724 682.464C497.346 681.053 504.389 674.813 506.829 666.425L510.38 654.22C513.971 641.874 527.101 634.983 539.301 639.041L551.362 643.052C559.652 645.808 568.788 643.557 574.848 637.263L583.663 628.107Z" fill="#DC3E1A"/>
<path d="M582.445 135.564C591.516 124.465 608.482 124.465 617.553 135.565L620.471 139.135C627.337 147.537 639.195 149.896 648.753 144.761L652.816 142.579C665.444 135.795 681.119 142.288 685.251 156.014L686.581 160.429C689.709 170.819 699.761 177.536 710.557 176.45L715.145 175.989C729.408 174.554 741.405 186.551 739.971 200.814L739.509 205.402C738.423 216.198 745.14 226.25 755.53 229.378L759.945 230.708C773.671 234.84 780.164 250.516 773.381 263.144L771.198 267.206C766.064 276.765 768.422 288.622 776.824 295.488L780.395 298.406C791.494 307.477 791.494 324.443 780.395 333.514L776.824 336.432C768.422 343.298 766.064 355.155 771.198 364.714L773.381 368.777C780.164 381.405 773.671 397.08 759.945 401.212L755.53 402.542C745.14 405.67 738.423 415.722 739.509 426.518L739.971 431.106C741.405 445.369 729.408 457.366 715.145 455.932L710.557 455.47C699.761 454.384 689.709 461.101 686.581 471.491L685.251 475.906C681.119 489.632 665.444 496.125 652.816 489.341L648.753 487.159C639.195 482.024 627.337 484.383 620.471 492.785L617.553 496.356C608.482 507.455 591.516 507.455 582.445 496.356L579.527 492.785C572.661 484.383 560.804 482.024 551.245 487.159L547.183 489.341C534.555 496.125 518.879 489.632 514.747 475.906L513.417 471.491C510.289 461.101 500.237 454.384 489.441 455.47L484.853 455.932C470.59 457.366 458.593 445.369 460.028 431.106L460.489 426.518C461.575 415.722 454.859 405.67 444.468 402.542L440.053 401.212C426.327 397.08 419.834 381.405 426.618 368.777L428.8 364.714C433.935 355.155 431.576 343.298 423.174 336.432L419.604 333.514C408.504 324.443 408.504 307.477 419.604 298.406L423.174 295.488C431.576 288.622 433.935 276.765 428.8 267.206L426.618 263.144C419.834 250.516 426.327 234.84 440.053 230.708L444.468 229.378C454.859 226.25 461.575 216.198 460.489 205.402L460.028 200.814C458.593 186.551 470.59 174.554 484.853 175.989L489.441 176.45C500.237 177.536 510.289 170.819 513.417 160.429L514.747 156.014C518.879 142.288 534.555 135.795 547.183 142.579L551.245 144.761C560.804 149.896 572.661 147.537 579.527 139.135L582.445 135.564Z" fill="#FCDFAD"/>
<path d="M392.062 296.98C399.389 289.37 411.571 289.37 418.898 296.98C423.876 302.151 431.382 304.001 438.193 301.736C448.217 298.403 459.004 304.064 461.955 314.207C463.96 321.099 469.747 326.226 476.83 327.385C487.255 329.092 494.175 339.118 492.074 349.471C490.647 356.505 493.388 363.733 499.121 368.052C507.559 374.408 509.027 386.501 502.356 394.692C497.823 400.257 496.891 407.932 499.961 414.42C504.478 423.969 500.158 435.36 490.444 439.512C483.845 442.333 479.453 448.695 479.155 455.867C478.718 466.421 469.599 474.5 459.069 473.662C451.914 473.093 445.068 476.686 441.472 482.897C436.18 492.04 424.351 494.955 415.416 489.319C409.345 485.49 401.614 485.49 395.544 489.319C386.609 494.955 374.78 492.04 369.488 482.897C365.892 476.686 359.046 473.093 351.891 473.662C341.361 474.5 332.242 466.421 331.804 455.867C331.507 448.695 327.115 442.333 320.515 439.512C310.802 435.36 306.482 423.969 310.999 414.42C314.069 407.932 313.137 400.257 308.604 394.692C301.933 386.501 303.401 374.408 311.839 368.052C317.572 363.733 320.313 356.505 318.886 349.471C316.785 339.118 323.705 329.092 334.13 327.385C341.213 326.226 347 321.099 349.005 314.207C351.956 304.064 362.743 298.403 372.767 301.736C379.578 304.001 387.084 302.151 392.062 296.98Z" fill="#F6A946"/>
<path d="M781.102 296.98C788.429 289.37 800.611 289.37 807.938 296.98C812.916 302.151 820.422 304.001 827.233 301.736C837.257 298.403 848.044 304.064 850.995 314.207C853 321.099 858.787 326.226 865.87 327.385C876.295 329.092 883.215 339.118 881.114 349.471C879.687 356.505 882.428 363.733 888.161 368.052C896.599 374.408 898.067 386.501 891.396 394.692C886.863 400.257 885.931 407.932 889.001 414.42C893.518 423.969 889.198 435.36 879.485 439.512C872.885 442.333 868.493 448.695 868.195 455.867C867.758 466.421 858.639 474.5 848.109 473.662C840.954 473.093 834.108 476.686 830.512 482.897C825.22 492.04 813.391 494.955 804.456 489.319C798.385 485.49 790.655 485.49 784.584 489.319C775.649 494.955 763.82 492.04 758.528 482.897C754.932 476.686 748.086 473.093 740.931 473.662C730.401 474.5 721.282 466.421 720.844 455.867C720.547 448.695 716.155 442.333 709.555 439.512C699.842 435.36 695.522 423.969 700.039 414.42C703.109 407.932 702.177 400.257 697.644 394.692C690.973 386.501 692.441 374.408 700.879 368.052C706.612 363.733 709.353 356.505 707.926 349.471C705.825 339.118 712.745 329.092 723.17 327.385C730.253 326.226 736.04 321.099 738.045 314.207C740.996 304.064 751.783 298.403 761.807 301.736C768.618 304.001 776.124 302.151 781.102 296.98Z" fill="#FACE8B"/>
<path d="M583.668 231.21C592.586 221.948 607.413 221.948 616.331 231.21L625.147 240.367C631.206 246.66 640.342 248.912 648.632 246.155L660.693 242.144C672.894 238.087 686.023 244.978 689.615 257.323L693.165 269.528C695.606 277.917 702.649 284.156 711.27 285.568L723.814 287.621C736.503 289.699 744.926 301.902 742.368 314.502L739.841 326.959C738.103 335.521 741.44 344.319 748.418 349.575L758.57 357.223C768.84 364.959 770.627 379.679 762.507 389.648L754.48 399.503C748.963 406.276 747.829 415.617 751.565 423.514L757 435.004C762.498 446.627 757.24 460.491 745.418 465.545L733.73 470.54C725.697 473.974 720.352 481.718 719.99 490.447L719.463 503.146C718.93 515.993 707.832 525.826 695.014 524.806L682.344 523.798C673.635 523.105 665.303 527.478 660.926 535.039L654.558 546.039C648.116 557.166 633.72 560.715 622.844 553.856L612.094 547.075C604.704 542.414 595.295 542.414 587.906 547.075L577.155 553.856C566.28 560.715 551.883 557.166 545.441 546.039L539.073 535.039C534.696 527.478 526.364 523.105 517.655 523.798L504.985 524.806C492.168 525.826 481.069 515.993 480.536 503.146L480.01 490.447C479.648 481.718 474.302 473.974 466.269 470.54L454.582 465.545C442.759 460.491 437.501 446.627 442.999 435.004L448.435 423.514C452.171 415.617 451.036 406.276 445.519 399.503L437.492 389.648C429.372 379.679 431.159 364.959 441.429 357.223L451.581 349.575C458.559 344.319 461.896 335.521 460.159 326.959L457.631 314.502C455.074 301.902 463.497 289.699 476.185 287.621L488.729 285.568C497.35 284.156 504.394 277.917 506.834 269.528L510.385 257.323C513.976 244.978 527.105 238.087 539.306 242.144L551.367 246.155C559.657 248.912 568.793 246.66 574.852 240.367L583.668 231.21Z" fill="#F8BC69"/>
<path d="M846.261 436.563C855.179 427.3 870.007 427.3 878.924 436.563L887.292 445.254C893.351 451.547 902.487 453.799 910.777 451.042L922.225 447.235C934.425 443.178 947.554 450.069 951.146 462.414L954.516 473.998C956.956 482.387 964 488.626 972.621 490.038L984.527 491.987C997.215 494.064 1005.64 506.267 1003.08 518.868L1000.68 530.691C998.945 539.253 1002.28 548.051 1009.26 553.307L1018.9 560.566C1029.17 568.302 1030.95 583.022 1022.83 592.991L1015.21 602.345C1009.7 609.118 1008.56 618.459 1012.3 626.356L1017.46 637.262C1022.96 648.885 1017.7 662.749 1005.87 667.802L994.781 672.544C986.748 675.978 981.403 683.722 981.041 692.45L980.541 704.504C980.008 717.351 968.91 727.183 956.093 726.164L944.066 725.207C935.358 724.514 927.026 728.887 922.649 736.448L916.605 746.888C910.163 758.016 895.766 761.564 884.891 754.705L874.687 748.269C867.298 743.609 857.888 743.609 850.499 748.269L840.295 754.705C829.42 761.564 815.023 758.016 808.581 746.888L802.537 736.448C798.16 728.887 789.828 724.514 781.119 725.207L769.093 726.164C756.276 727.183 745.177 717.351 744.645 704.504L744.145 692.45C743.783 683.722 738.437 675.978 730.404 672.544L719.311 667.802C707.488 662.749 702.23 648.885 707.729 637.262L712.888 626.356C716.624 618.459 715.489 609.118 709.972 602.345L702.353 592.991C694.233 583.022 696.02 568.302 706.29 560.566L715.926 553.307C722.904 548.051 726.241 539.253 724.504 530.691L722.104 518.868C719.547 506.267 727.97 494.064 740.659 491.987L752.565 490.038C761.186 488.626 768.229 482.387 770.67 473.998L774.04 462.414C777.631 450.069 790.76 443.178 802.961 447.235L814.409 451.042C822.699 453.799 831.835 451.547 837.894 445.254L846.261 436.563Z" fill="#F6A946"/>
<path d="M321.077 436.563C329.994 427.3 344.822 427.3 353.74 436.563L362.107 445.254C368.166 451.547 377.302 453.799 385.592 451.042L397.04 447.235C409.241 443.178 422.37 450.069 425.961 462.414L429.331 473.998C431.772 482.387 438.815 488.626 447.436 490.038L459.342 491.987C472.031 494.064 480.454 506.267 477.897 518.868L475.497 530.691C473.76 539.253 477.097 548.051 484.075 553.307L493.711 560.566C503.981 568.302 505.768 583.022 497.648 592.991L490.029 602.345C484.512 609.118 483.377 618.459 487.113 626.356L492.272 637.262C497.771 648.885 492.513 662.749 480.69 667.802L469.597 672.544C461.564 675.978 456.218 683.722 455.856 692.45L455.356 704.504C454.824 717.351 443.725 727.183 430.908 726.164L418.882 725.207C410.173 724.514 401.841 728.887 397.464 736.448L391.42 746.888C384.978 758.016 370.581 761.564 359.706 754.705L349.502 748.269C342.113 743.609 332.703 743.609 325.314 748.269L315.11 754.705C304.235 761.564 289.838 758.016 283.396 746.888L277.352 736.448C272.975 728.887 264.643 724.514 255.935 725.207L243.908 726.164C231.091 727.183 219.993 717.351 219.46 704.504L218.96 692.45C218.598 683.722 213.253 675.978 205.22 672.544L194.126 667.802C182.304 662.749 177.046 648.885 182.544 637.262L187.703 626.356C191.439 618.459 190.305 609.118 184.788 602.345L177.169 592.991C169.049 583.022 170.836 568.302 181.106 560.566L190.742 553.307C197.72 548.051 201.056 539.253 199.319 530.691L196.92 518.868C194.363 506.267 202.786 494.064 215.474 491.987L227.38 490.038C236.001 488.626 243.045 482.387 245.485 473.998L248.855 462.414C252.447 450.069 265.576 443.178 277.776 447.235L289.224 451.042C297.514 453.799 306.65 451.547 312.709 445.254L321.077 436.563Z" fill="#EC7B1F"/>
<path d="M578.057 373.477C586.974 364.215 601.802 364.215 610.72 373.477L631.467 395.027C637.526 401.32 646.662 403.572 654.952 400.815L683.337 391.376C695.538 387.318 708.667 394.209 712.259 406.555L720.615 435.278C723.055 443.666 730.098 449.906 738.72 451.317L768.24 456.15C780.929 458.228 789.352 470.431 786.795 483.031L780.846 512.348C779.108 520.909 782.445 529.707 789.423 534.964L813.316 552.962C823.586 560.698 825.373 575.418 817.253 585.387L798.362 608.58C792.844 615.354 791.71 624.695 795.446 632.592L808.238 659.632C813.737 671.255 808.479 685.119 796.656 690.173L769.15 701.93C761.117 705.364 755.771 713.108 755.409 721.836L754.17 751.724C753.637 764.571 742.538 774.403 729.721 773.384L699.902 771.012C691.193 770.319 682.861 774.692 678.484 782.252L663.497 808.141C657.055 819.268 642.659 822.817 631.784 815.957L606.482 799.999C599.093 795.339 589.683 795.339 582.294 799.999L556.993 815.957C546.118 822.817 531.721 819.268 525.279 808.141L510.292 782.252C505.915 774.692 497.583 770.319 488.874 771.012L459.055 773.384C446.238 774.403 435.139 764.571 434.607 751.724L433.367 721.836C433.005 713.108 427.66 705.364 419.627 701.93L392.121 690.173C380.298 685.119 375.04 671.255 380.538 659.632L393.33 632.592C397.066 624.695 395.932 615.354 390.415 608.58L371.523 585.387C363.403 575.418 365.19 560.698 375.46 552.962L399.353 534.964C406.331 529.707 409.668 520.909 407.931 512.348L401.981 483.031C399.424 470.431 407.847 458.228 420.536 456.15L450.057 451.317C458.678 449.906 465.721 443.666 468.162 435.278L476.518 406.555C480.109 394.209 493.239 387.318 505.439 391.376L533.824 400.815C542.114 403.572 551.25 401.32 557.31 395.027L578.057 373.477Z" fill="#F49721"/>
</svg>
