<?xml version="1.0" encoding="UTF-8" standalone="no"?>
<svg
   width="1200"
   height="1201"
   viewBox="0 0 1200 1201"
   fill="none"
   version="1.1"
   id="svg11"
   xmlns="http://www.w3.org/2000/svg"
   xmlns:svg="http://www.w3.org/2000/svg">
  <defs
     id="defs11" />
  <path
     d="m 587.667,817.615 h 24.664 l 11.62,233.445 c 0.113,2.29 -1.708,4.2 -3.995,4.2 h -39.914 c -2.287,0 -4.109,-1.91 -3.995,-4.2 z"
     fill="#dc3e1a"
     id="path1" />
  <path
     d="m 392.057,693.877 c 7.327,-7.61 19.509,-7.61 26.836,0 4.978,5.17 12.484,7.02 19.295,4.756 10.024,-3.334 20.811,2.327 23.762,12.471 2.005,6.892 7.792,12.018 14.875,13.178 10.425,1.707 17.345,11.732 15.244,22.085 -1.427,7.034 1.314,14.263 7.047,18.581 8.438,6.356 9.906,18.45 3.235,26.64 -4.533,5.566 -5.465,13.24 -2.395,19.728 4.517,9.549 0.197,20.94 -9.516,25.092 -6.6,2.821 -10.992,9.184 -11.289,16.355 -0.438,10.555 -9.557,18.633 -20.087,17.795 -7.155,-0.569 -14.001,3.024 -17.597,9.236 -5.292,9.142 -17.121,12.057 -26.056,6.422 -6.07,-3.829 -13.801,-3.829 -19.872,0 -8.935,5.635 -20.764,2.72 -26.056,-6.422 -3.596,-6.212 -10.442,-9.805 -17.597,-9.236 -10.53,0.838 -19.649,-7.24 -20.086,-17.795 -0.298,-7.171 -4.69,-13.534 -11.289,-16.355 -9.714,-4.152 -14.034,-15.543 -9.517,-25.092 3.07,-6.488 2.138,-14.162 -2.395,-19.728 -6.671,-8.19 -5.203,-20.284 3.235,-26.64 5.733,-4.318 8.474,-11.547 7.047,-18.581 -2.101,-10.353 4.819,-20.378 15.244,-22.085 7.083,-1.16 12.87,-6.286 14.875,-13.178 2.951,-10.144 13.738,-15.805 23.762,-12.471 6.811,2.264 14.317,0.414 19.295,-4.756 z"
     fill="#d61518"
     id="path2" />
  <path
     d="m 781.097,693.877 c 7.327,-7.61 19.509,-7.61 26.836,0 4.978,5.17 12.484,7.02 19.295,4.756 10.024,-3.334 20.811,2.327 23.762,12.471 2.005,6.892 7.792,12.018 14.875,13.178 10.425,1.707 17.345,11.732 15.244,22.085 -1.427,7.034 1.314,14.263 7.047,18.581 8.438,6.356 9.906,18.45 3.235,26.64 -4.533,5.566 -5.465,13.24 -2.395,19.728 4.517,9.549 0.197,20.94 -9.516,25.092 -6.6,2.821 -10.992,9.184 -11.289,16.355 -0.438,10.555 -9.557,18.633 -20.087,17.795 -7.155,-0.569 -14.001,3.024 -17.597,9.236 -5.292,9.142 -17.121,12.057 -26.055,6.422 -6.071,-3.829 -13.802,-3.829 -19.873,0 -8.935,5.635 -20.764,2.72 -26.056,-6.422 -3.596,-6.212 -10.442,-9.805 -17.597,-9.236 -10.53,0.838 -19.649,-7.24 -20.086,-17.795 -0.298,-7.171 -4.689,-13.534 -11.289,-16.355 -9.714,-4.152 -14.034,-15.543 -9.516,-25.092 3.069,-6.488 2.137,-14.162 -2.396,-19.728 -6.671,-8.19 -5.203,-20.284 3.235,-26.64 5.733,-4.318 8.474,-11.547 7.047,-18.581 -2.101,-10.353 4.819,-20.378 15.244,-22.085 7.083,-1.16 12.87,-6.286 14.875,-13.178 2.951,-10.144 13.738,-15.805 23.762,-12.471 6.811,2.264 14.317,0.414 19.295,-4.756 z"
     fill="#e35e1c"
     id="path3" />
  <path
     d="m 583.663,628.107 c 8.918,-9.263 23.746,-9.263 32.663,0 l 8.816,9.156 c 6.059,6.294 15.195,8.545 23.485,5.789 l 12.061,-4.011 c 12.201,-4.057 25.33,2.833 28.922,15.179 l 3.55,12.205 c 2.441,8.388 9.484,14.628 18.105,16.039 l 12.544,2.054 c 12.689,2.077 21.112,14.28 18.555,26.881 l -2.528,12.457 c -1.738,8.561 1.599,17.359 8.577,22.616 l 10.152,7.647 c 10.27,7.737 12.057,22.456 3.937,32.425 l -8.027,9.855 c -5.517,6.774 -6.651,16.115 -2.915,24.012 l 5.435,11.49 c 5.498,11.622 0.241,25.486 -11.582,30.54 l -11.688,4.996 c -8.033,3.434 -13.378,11.178 -13.74,19.906 l -0.527,12.7 c -0.533,12.846 -11.631,22.679 -24.448,21.659 l -12.671,-1.008 c -8.709,-0.692 -17.041,3.681 -21.417,11.241 l -6.369,11 c -6.442,11.128 -20.838,14.676 -31.713,7.817 l -10.751,-6.781 c -7.389,-4.66 -16.799,-4.66 -24.188,0 l -10.751,6.781 c -10.875,6.859 -25.272,3.311 -31.714,-7.817 l -6.368,-11 c -4.377,-7.56 -12.709,-11.933 -21.417,-11.241 l -12.671,1.008 c -12.817,1.02 -23.916,-8.813 -24.449,-21.659 l -0.526,-12.7 c -0.362,-8.728 -5.708,-16.472 -13.741,-19.906 l -11.687,-4.996 c -11.823,-5.054 -17.081,-18.918 -11.583,-30.54 l 5.436,-11.49 c 3.736,-7.897 2.601,-17.238 -2.916,-24.012 l -8.027,-9.855 c -8.12,-9.969 -6.333,-24.688 3.937,-32.425 l 10.153,-7.647 c 6.977,-5.257 10.314,-14.055 8.577,-22.616 l -2.528,-12.457 c -2.557,-12.601 5.866,-24.804 18.554,-26.881 l 12.544,-2.054 c 8.622,-1.411 15.665,-7.651 18.105,-16.039 l 3.551,-12.205 c 3.591,-12.346 16.721,-19.237 28.921,-15.179 l 12.061,4.011 c 8.29,2.756 17.426,0.505 23.486,-5.789 z"
     fill="#dc3e1a"
     id="path4" />
  <path
     d="m 582.445,135.564 c 9.071,-11.099 26.037,-11.099 35.108,0.001 l 2.918,3.57 c 6.866,8.402 18.724,10.761 28.282,5.626 l 4.063,-2.182 c 12.628,-6.784 28.303,-0.291 32.435,13.435 l 1.33,4.415 c 3.128,10.39 13.18,17.107 23.976,16.021 l 4.588,-0.461 c 14.263,-1.435 26.26,10.562 24.826,24.825 l -0.462,4.588 c -1.086,10.796 5.631,20.848 16.021,23.976 l 4.415,1.33 c 13.726,4.132 20.219,19.808 13.436,32.436 l -2.183,4.062 c -5.134,9.559 -2.776,21.416 5.626,28.282 l 3.571,2.918 c 11.099,9.071 11.099,26.037 0,35.108 l -3.571,2.918 c -8.402,6.866 -10.76,18.723 -5.626,28.282 l 2.183,4.063 c 6.783,12.628 0.29,28.303 -13.436,32.435 l -4.415,1.33 c -10.39,3.128 -17.107,13.18 -16.021,23.976 l 0.462,4.588 c 1.434,14.263 -10.563,26.26 -24.826,24.826 l -4.588,-0.462 c -10.796,-1.086 -20.848,5.631 -23.976,16.021 l -1.33,4.415 c -4.132,13.726 -19.807,20.219 -32.435,13.435 l -4.063,-2.182 c -9.558,-5.135 -21.416,-2.776 -28.282,5.626 l -2.918,3.571 c -9.071,11.099 -26.037,11.099 -35.108,0 l -2.918,-3.571 c -6.866,-8.402 -18.723,-10.761 -28.282,-5.626 l -4.062,2.182 c -12.628,6.784 -28.304,0.291 -32.436,-13.435 l -1.33,-4.415 c -3.128,-10.39 -13.18,-17.107 -23.976,-16.021 l -4.588,0.462 c -14.263,1.434 -26.26,-10.563 -24.825,-24.826 l 0.461,-4.588 c 1.086,-10.796 -5.63,-20.848 -16.021,-23.976 l -4.415,-1.33 c -13.726,-4.132 -20.219,-19.807 -13.435,-32.435 l 2.182,-4.063 c 5.135,-9.559 2.776,-21.416 -5.626,-28.282 l -3.57,-2.918 c -11.1,-9.071 -11.1,-26.037 0,-35.108 l 3.57,-2.918 c 8.402,-6.866 10.761,-18.723 5.626,-28.282 l -2.182,-4.062 c -6.784,-12.628 -0.291,-28.304 13.435,-32.436 l 4.415,-1.33 c 10.391,-3.128 17.107,-13.18 16.021,-23.976 l -0.461,-4.588 c -1.435,-14.263 10.562,-26.26 24.825,-24.825 l 4.588,0.461 c 10.796,1.086 20.848,-5.631 23.976,-16.021 l 1.33,-4.415 c 4.132,-13.726 19.808,-20.219 32.436,-13.435 l 4.062,2.182 c 9.559,5.135 21.416,2.776 28.282,-5.626 z"
     fill="#fcdfad"
     id="path5" />
  <path
     d="m 392.062,296.98 c 7.327,-7.61 19.509,-7.61 26.836,0 4.978,5.171 12.484,7.021 19.295,4.756 10.024,-3.333 20.811,2.328 23.762,12.471 2.005,6.892 7.792,12.019 14.875,13.178 10.425,1.707 17.345,11.733 15.244,22.086 -1.427,7.034 1.314,14.262 7.047,18.581 8.438,6.356 9.906,18.449 3.235,26.64 -4.533,5.565 -5.465,13.24 -2.395,19.728 4.517,9.549 0.197,20.94 -9.517,25.092 -6.599,2.821 -10.991,9.183 -11.289,16.355 -0.437,10.554 -9.556,18.633 -20.086,17.795 -7.155,-0.569 -14.001,3.024 -17.597,9.235 -5.292,9.143 -17.121,12.058 -26.056,6.422 -6.071,-3.829 -13.802,-3.829 -19.872,0 -8.935,5.636 -20.764,2.721 -26.056,-6.422 -3.596,-6.211 -10.442,-9.804 -17.597,-9.235 -10.53,0.838 -19.649,-7.241 -20.087,-17.795 -0.297,-7.172 -4.689,-13.534 -11.289,-16.355 -9.713,-4.152 -14.033,-15.543 -9.516,-25.092 3.07,-6.488 2.138,-14.163 -2.395,-19.728 -6.671,-8.191 -5.203,-20.284 3.235,-26.64 5.733,-4.319 8.474,-11.547 7.047,-18.581 -2.101,-10.353 4.819,-20.379 15.244,-22.086 7.083,-1.159 12.87,-6.286 14.875,-13.178 2.951,-10.143 13.738,-15.804 23.762,-12.471 6.811,2.265 14.317,0.415 19.295,-4.756 z"
     fill="#f6a946"
     id="path6" />
  <path
     d="m 781.102,296.98 c 7.327,-7.61 19.509,-7.61 26.836,0 4.978,5.171 12.484,7.021 19.295,4.756 10.024,-3.333 20.811,2.328 23.762,12.471 2.005,6.892 7.792,12.019 14.875,13.178 10.425,1.707 17.345,11.733 15.244,22.086 -1.427,7.034 1.314,14.262 7.047,18.581 8.438,6.356 9.906,18.449 3.235,26.64 -4.533,5.565 -5.465,13.24 -2.395,19.728 4.517,9.549 0.197,20.94 -9.516,25.092 -6.6,2.821 -10.992,9.183 -11.29,16.355 -0.437,10.554 -9.556,18.633 -20.086,17.795 -7.155,-0.569 -14.001,3.024 -17.597,9.235 -5.292,9.143 -17.121,12.058 -26.056,6.422 -6.071,-3.829 -13.801,-3.829 -19.872,0 -8.935,5.636 -20.764,2.721 -26.056,-6.422 -3.596,-6.211 -10.442,-9.804 -17.597,-9.235 -10.53,0.838 -19.649,-7.241 -20.087,-17.795 -0.297,-7.172 -4.689,-13.534 -11.289,-16.355 -9.713,-4.152 -14.033,-15.543 -9.516,-25.092 3.07,-6.488 2.138,-14.163 -2.395,-19.728 -6.671,-8.191 -5.203,-20.284 3.235,-26.64 5.733,-4.319 8.474,-11.547 7.047,-18.581 -2.101,-10.353 4.819,-20.379 15.244,-22.086 7.083,-1.159 12.87,-6.286 14.875,-13.178 2.951,-10.143 13.738,-15.804 23.762,-12.471 6.811,2.265 14.317,0.415 19.295,-4.756 z"
     fill="#face8b"
     id="path7" />
  <path
     d="m 583.668,231.21 c 8.918,-9.262 23.745,-9.262 32.663,0 l 8.816,9.157 c 6.059,6.293 15.195,8.545 23.485,5.788 l 12.061,-4.011 c 12.201,-4.057 25.33,2.834 28.922,15.179 l 3.55,12.205 c 2.441,8.389 9.484,14.628 18.105,16.04 l 12.544,2.053 c 12.689,2.078 21.112,14.281 18.554,26.881 l -2.527,12.457 c -1.738,8.562 1.599,17.36 8.577,22.616 l 10.152,7.648 c 10.27,7.736 12.057,22.456 3.937,32.425 l -8.027,9.855 c -5.517,6.773 -6.651,16.114 -2.915,24.011 l 5.435,11.49 c 5.498,11.623 0.24,25.487 -11.582,30.541 l -11.688,4.995 c -8.033,3.434 -13.378,11.178 -13.74,19.907 l -0.527,12.699 c -0.533,12.847 -11.631,22.68 -24.449,21.66 l -12.67,-1.008 c -8.709,-0.693 -17.041,3.68 -21.418,11.241 l -6.368,11 c -6.442,11.127 -20.838,14.676 -31.714,7.817 l -10.75,-6.781 c -7.39,-4.661 -16.799,-4.661 -24.188,0 l -10.751,6.781 c -10.875,6.859 -25.272,3.31 -31.714,-7.817 l -6.368,-11 c -4.377,-7.561 -12.709,-11.934 -21.418,-11.241 l -12.67,1.008 c -12.817,1.02 -23.916,-8.813 -24.449,-21.66 l -0.526,-12.699 c -0.362,-8.729 -5.708,-16.473 -13.741,-19.907 l -11.687,-4.995 c -11.823,-5.054 -17.081,-18.918 -11.583,-30.541 l 5.436,-11.49 c 3.736,-7.897 2.601,-17.238 -2.916,-24.011 l -8.027,-9.855 c -8.12,-9.969 -6.333,-24.689 3.937,-32.425 l 10.152,-7.648 c 6.978,-5.256 10.315,-14.054 8.578,-22.616 l -2.528,-12.457 c -2.557,-12.6 5.866,-24.803 18.554,-26.881 l 12.544,-2.053 c 8.621,-1.412 15.665,-7.651 18.105,-16.04 l 3.551,-12.205 c 3.591,-12.345 16.72,-19.236 28.921,-15.179 l 12.061,4.011 c 8.29,2.757 17.426,0.505 23.485,-5.788 z"
     fill="#f8bc69"
     id="path8" />
  <path
     d="m 846.261,436.563 c 8.918,-9.263 23.746,-9.263 32.663,0 l 8.368,8.691 c 6.059,6.293 15.195,8.545 23.485,5.788 l 11.448,-3.807 c 12.2,-4.057 25.329,2.834 28.921,15.179 l 3.37,11.584 c 2.44,8.389 9.484,14.628 18.105,16.04 l 11.906,1.949 c 12.688,2.077 21.113,14.28 18.553,26.881 l -2.4,11.823 c -1.735,8.562 1.6,17.36 8.58,22.616 l 9.64,7.259 c 10.27,7.736 12.05,22.456 3.93,32.425 l -7.62,9.354 c -5.51,6.773 -6.65,16.114 -2.91,24.011 l 5.16,10.906 c 5.5,11.623 0.24,25.487 -11.59,30.54 l -11.089,4.742 c -8.033,3.434 -13.378,11.178 -13.74,19.906 l -0.5,12.054 c -0.533,12.847 -11.631,22.679 -24.448,21.66 l -12.027,-0.957 c -8.708,-0.693 -17.04,3.68 -21.417,11.241 l -6.044,10.44 c -6.442,11.128 -20.839,14.676 -31.714,7.817 l -10.204,-6.436 c -7.389,-4.66 -16.799,-4.66 -24.188,0 l -10.204,6.436 c -10.875,6.859 -25.272,3.311 -31.714,-7.817 l -6.044,-10.44 c -4.377,-7.561 -12.709,-11.934 -21.418,-11.241 l -12.026,0.957 c -12.817,1.019 -23.916,-8.813 -24.448,-21.66 l -0.5,-12.054 c -0.362,-8.728 -5.708,-16.472 -13.741,-19.906 l -11.093,-4.742 c -11.823,-5.053 -17.081,-18.917 -11.582,-30.54 l 5.159,-10.906 c 3.736,-7.897 2.601,-17.238 -2.916,-24.011 l -7.619,-9.354 c -8.12,-9.969 -6.333,-24.689 3.937,-32.425 l 9.636,-7.259 c 6.978,-5.256 10.315,-14.054 8.578,-22.616 l -2.4,-11.823 c -2.557,-12.601 5.866,-24.804 18.555,-26.881 l 11.906,-1.949 c 8.621,-1.412 15.664,-7.651 18.105,-16.04 l 3.37,-11.584 c 3.591,-12.345 16.72,-19.236 28.921,-15.179 l 11.448,3.807 c 8.29,2.757 17.426,0.505 23.485,-5.788 z"
     fill="#f6a946"
     id="path9" />
  <path
     d="m 321.077,436.563 c 8.917,-9.263 23.745,-9.263 32.663,0 l 8.367,8.691 c 6.059,6.293 15.195,8.545 23.485,5.788 l 11.448,-3.807 c 12.201,-4.057 25.33,2.834 28.921,15.179 l 3.37,11.584 c 2.441,8.389 9.484,14.628 18.105,16.04 l 11.906,1.949 c 12.689,2.077 21.112,14.28 18.555,26.881 l -2.4,11.823 c -1.737,8.562 1.6,17.36 8.578,22.616 l 9.636,7.259 c 10.27,7.736 12.057,22.456 3.937,32.425 l -7.619,9.354 c -5.517,6.773 -6.652,16.114 -2.916,24.011 l 5.159,10.906 c 5.499,11.623 0.241,25.487 -11.582,30.54 l -11.093,4.742 c -8.033,3.434 -13.379,11.178 -13.741,19.906 l -0.5,12.054 c -0.532,12.847 -11.631,22.679 -24.448,21.66 l -12.026,-0.957 c -8.709,-0.693 -17.041,3.68 -21.418,11.241 l -6.044,10.44 c -6.442,11.128 -20.839,14.676 -31.714,7.817 l -10.204,-6.436 c -7.389,-4.66 -16.799,-4.66 -24.188,0 l -10.204,6.436 c -10.875,6.859 -25.272,3.311 -31.714,-7.817 l -6.044,-10.44 c -4.377,-7.561 -12.709,-11.934 -21.417,-11.241 l -12.027,0.957 c -12.817,1.019 -23.915,-8.813 -24.448,-21.66 l -0.5,-12.054 c -0.362,-8.728 -5.707,-16.472 -13.74,-19.906 l -11.094,-4.742 c -11.822,-5.053 -17.08,-18.917 -11.582,-30.54 l 5.159,-10.906 c 3.736,-7.897 2.602,-17.238 -2.915,-24.011 l -7.619,-9.354 c -8.12,-9.969 -6.333,-24.689 3.937,-32.425 l 9.636,-7.259 c 6.978,-5.256 10.314,-14.054 8.577,-22.616 l -2.399,-11.823 c -2.557,-12.601 5.866,-24.804 18.554,-26.881 l 11.906,-1.949 c 8.621,-1.412 15.665,-7.651 18.105,-16.04 l 3.37,-11.584 c 3.592,-12.345 16.721,-19.236 28.921,-15.179 l 11.448,3.807 c 8.29,2.757 17.426,0.505 23.485,-5.788 z"
     fill="#ec7b1f"
     id="path10" />
  <path
     d="m 578.057,373.477 c 8.917,-9.262 23.745,-9.262 32.663,0 l 20.747,21.55 c 6.059,6.293 15.195,8.545 23.485,5.788 l 28.385,-9.439 c 12.201,-4.058 25.33,2.833 28.922,15.179 l 8.356,28.723 c 2.44,8.388 9.483,14.628 18.105,16.039 l 29.52,4.833 c 12.689,2.078 21.112,14.281 18.555,26.881 l -5.949,29.317 c -1.738,8.561 1.599,17.359 8.577,22.616 l 23.893,17.998 c 10.27,7.736 12.057,22.456 3.937,32.425 l -18.891,23.193 c -5.518,6.774 -6.652,16.115 -2.916,24.012 l 12.792,27.04 c 5.499,11.623 0.241,25.487 -11.582,30.541 L 769.15,701.93 c -8.033,3.434 -13.379,11.178 -13.741,19.906 l -1.239,29.888 c -0.533,12.847 -11.632,22.679 -24.449,21.66 l -29.819,-2.372 c -8.709,-0.693 -17.041,3.68 -21.418,11.24 l -14.987,25.889 c -6.442,11.127 -20.838,14.676 -31.713,7.816 l -25.302,-15.958 c -7.389,-4.66 -16.799,-4.66 -24.188,0 l -25.301,15.958 c -10.875,6.86 -25.272,3.311 -31.714,-7.816 l -14.987,-25.889 c -4.377,-7.56 -12.709,-11.933 -21.418,-11.24 l -29.819,2.372 c -12.817,1.019 -23.916,-8.813 -24.448,-21.66 l -1.24,-29.888 c -0.362,-8.728 -5.707,-16.472 -13.74,-19.906 l -27.506,-11.757 c -11.823,-5.054 -17.081,-18.918 -11.583,-30.541 l 12.792,-27.04 c 3.736,-7.897 2.602,-17.238 -2.915,-24.012 l -18.892,-23.193 c -8.12,-9.969 -6.333,-24.689 3.937,-32.425 l 23.893,-17.998 c 6.978,-5.257 10.315,-14.055 8.578,-22.616 l -5.95,-29.317 c -2.557,-12.6 5.866,-24.803 18.555,-26.881 l 29.521,-4.833 c 8.621,-1.411 15.664,-7.651 18.105,-16.039 l 8.356,-28.723 c 3.591,-12.346 16.721,-19.237 28.921,-15.179 l 28.385,9.439 c 8.29,2.757 17.426,0.505 23.486,-5.788 z"
     fill="#f49721"
     id="path11" />
</svg>
