<?xml version="1.0" encoding="UTF-8" standalone="no"?>
<svg
   width="1200"
   height="1201"
   viewBox="0 0 1200 1201"
   fill="none"
   version="1.1"
   id="svg5"
   xmlns="http://www.w3.org/2000/svg"
   xmlns:svg="http://www.w3.org/2000/svg">
  <defs
     id="defs5" />
  <path
     id="circle1"
     style="fill:#ff96d3"
     d="M 814.87801,353.271 A 214.87801,214.87801 0 0 1 600,568.149 214.87801,214.87801 0 0 1 385.12199,353.271 214.87801,214.87801 0 0 1 600,138.39299 214.87801,214.87801 0 0 1 814.87801,353.271 Z" />
  <path
     id="circle2"
     style="fill:#ffd1ec"
     d="M 712.296,353.271 A 112.296,112.296 0 0 1 600,465.56699 112.296,112.296 0 0 1 487.704,353.271 112.296,112.296 0 0 1 600,240.975 112.296,112.296 0 0 1 712.296,353.271 Z" />
  <path
     d="m 438.841,773.488 c 0,-42.742 16.979,-83.733 47.203,-113.956 30.223,-30.223 71.214,-47.202 113.956,-47.202 42.742,0 83.733,16.979 113.956,47.202 30.223,30.223 47.202,71.214 47.202,113.956 H 600 Z"
     fill="#ff6dc2"
     id="path2" />
  <path
     fill-rule="evenodd"
     clip-rule="evenodd"
     d="M 482.883,908.357 H 717.116 C 703.774,856.115 656.398,817.488 600,817.488 c -56.399,0 -103.775,38.627 -117.117,90.869 z"
     fill="#ea339e"
     id="path3" />
  <path
     fill-rule="evenodd"
     clip-rule="evenodd"
     d="m 521.877,992.485 h 156.247 c -14.545,-28.35 -44.068,-47.75 -78.123,-47.75 -34.055,0 -63.579,19.4 -78.124,47.75 z"
     fill="#b32b7b"
     id="path4" />
  <path
     fill-rule="evenodd"
     clip-rule="evenodd"
     d="m 546.564,1062.61 h 106.872 c -13.361,-20.77 -32.358,-33.75 -53.436,-33.75 -21.077,0 -40.075,12.98 -53.436,33.75 z"
     fill="#780d4b"
     id="path5" />
</svg>
