<svg width="1200" height="1201" viewBox="0 0 1200 1201" fill="none" xmlns="http://www.w3.org/2000/svg">
<circle cx="600" cy="353.271" r="214.878" fill="#FF96D3"/>
<circle cx="600" cy="353.271" r="112.296" fill="#FFD1EC"/>
<path d="M438.841 773.488C438.841 730.746 455.82 689.755 486.044 659.532C516.267 629.309 557.258 612.33 600 612.33C642.742 612.33 683.733 629.309 713.956 659.532C744.179 689.755 761.158 730.746 761.158 773.488L600 773.488L438.841 773.488Z" fill="#FF6DC2"/>
<path fill-rule="evenodd" clip-rule="evenodd" d="M482.883 908.357H717.116C703.774 856.115 656.398 817.488 600 817.488C543.601 817.488 496.225 856.115 482.883 908.357Z" fill="#EA339E"/>
<path fill-rule="evenodd" clip-rule="evenodd" d="M521.877 992.485H678.124C663.579 964.135 634.056 944.735 600.001 944.735C565.946 944.735 536.422 964.135 521.877 992.485Z" fill="#B32B7B"/>
<path fill-rule="evenodd" clip-rule="evenodd" d="M546.564 1062.61H653.436C640.075 1041.84 621.078 1028.86 600 1028.86C578.923 1028.86 559.925 1041.84 546.564 1062.61Z" fill="#780D4B"/>
</svg>
