<?xml version="1.0" encoding="UTF-8" standalone="no"?>
<svg
   width="1200"
   height="1200"
   viewBox="0 0 1200 1200"
   fill="none"
   version="1.1"
   id="svg40"
   xmlns="http://www.w3.org/2000/svg"
   xmlns:svg="http://www.w3.org/2000/svg">
  <defs
     id="defs40" />
  <path
     id="ellipse1"
     style="fill:#f82a57"
     d="m 738.39003,444.19501 a 138.39101,294.19501 0 0 1 -138.39101,294.195 138.39101,294.19501 0 0 1 -138.391,-294.195 A 138.39101,294.19501 0 0 1 599.99902,150 138.39101,294.19501 0 0 1 738.39003,444.19501 Z" />
  <path
     id="ellipse2"
     style="fill:#f82a57"
     d="M 738.39003,755.80499 A 138.39101,294.19501 0 0 1 599.99902,1050 a 138.39101,294.19501 0 0 1 -138.391,-294.19501 138.39101,294.19501 0 0 1 138.391,-294.195 138.39101,294.19501 0 0 1 138.39101,294.195 z" />
  <path
     id="ellipse3"
     style="fill:#f82a57"
     d="M 755.80402,738.39101 A 294.19501,138.39101 0 0 1 461.60901,600 294.19501,138.39101 0 0 1 755.80402,461.60899 294.19501,138.39101 0 0 1 1049.999,600 294.19501,138.39101 0 0 1 755.80402,738.39101 Z" />
  <path
     id="ellipse4"
     style="fill:#f82a57"
     d="M 444.19501,738.39101 A 294.19501,138.39101 0 0 1 150,600 294.19501,138.39101 0 0 1 444.19501,461.60899 294.19501,138.39101 0 0 1 738.39001,600 294.19501,138.39101 0 0 1 444.19501,738.39101 Z" />
  <path
     id="ellipse5"
     style="fill:#f82a57"
     d="M 587.68722,391.9728 A 294.19501,138.39101 45 0 1 697.85728,697.8573 294.19501,138.39101 45 0 1 391.97278,587.68724 294.19501,138.39101 45 0 1 281.80272,281.80274 294.19501,138.39101 45 0 1 587.68722,391.9728 Z" />
  <path
     id="ellipse6"
     style="fill:#f82a57"
     d="M 808.02826,612.31379 A 294.19501,138.39101 45 0 1 918.19832,918.19829 294.19501,138.39101 45 0 1 612.31382,808.02824 294.19501,138.39101 45 0 1 502.14376,502.14373 294.19501,138.39101 45 0 1 808.02826,612.31379 Z" />
  <path
     id="ellipse7"
     style="fill:#f82a57"
     d="M 808.02625,587.68724 A 138.39101,294.19501 45 0 1 502.14175,697.85731 138.39101,294.19501 45 0 1 612.31181,391.9728 138.39101,294.19501 45 0 1 918.19631,281.80274 138.39101,294.19501 45 0 1 808.02625,587.68724 Z" />
  <path
     id="ellipse8"
     style="fill:#f82a57"
     d="M 587.6862,808.02823 A 138.39101,294.19501 45 0 1 281.8017,918.1983 138.39101,294.19501 45 0 1 391.97177,612.31379 138.39101,294.19501 45 0 1 697.85627,502.14373 138.39101,294.19501 45 0 1 587.6862,808.02823 Z" />
  <path
     id="ellipse9"
     style="fill:#fd5277"
     d="m 707.26398,479.23599 a 107.266,228.03 0 0 1 -107.26599,228.03 107.266,228.03 0 0 1 -107.266,-228.03 107.266,228.03 0 0 1 107.266,-228.03 107.266,228.03 0 0 1 107.26599,228.03 z" />
  <path
     id="ellipse10"
     style="fill:#fd5277"
     d="m 707.26398,720.76398 a 107.266,228.03 0 0 1 -107.26599,228.03 107.266,228.03 0 0 1 -107.266,-228.03 107.266,228.03 0 0 1 107.266,-228.03 107.266,228.03 0 0 1 107.26599,228.03 z" />
  <path
     id="ellipse11"
     style="fill:#fd5277"
     d="m 720.76001,707.26704 a 228.03,107.266 0 0 1 -228.03,-107.266 228.03,107.266 0 0 1 228.03,-107.266 228.03,107.266 0 0 1 228.03,107.266 228.03,107.266 0 0 1 -228.03,107.266 z" />
  <path
     id="ellipse12"
     style="fill:#fd5277"
     d="m 479.23303,707.26698 a 228.03,107.266 0 0 1 -228.03,-107.266 228.03,107.266 0 0 1 228.03,-107.266 228.03,107.266 0 0 1 228.03,107.266 228.03,107.266 0 0 1 -228.03,107.266 z" />
  <path
     id="ellipse13"
     style="fill:#fd5277"
     d="M 590.45349,438.75848 A 228.03,107.266 45 0 1 675.84653,675.84856 228.03,107.266 45 0 1 438.75646,590.45551 228.03,107.266 45 0 1 353.36341,353.36544 228.03,107.266 45 0 1 590.45349,438.75848 Z" />
  <path
     id="ellipse14"
     style="fill:#fd5277"
     d="M 761.23952,609.54351 A 228.03,107.266 45 0 1 846.63259,846.6336 228.03,107.266 45 0 1 609.5425,761.24054 228.03,107.266 45 0 1 524.14945,524.15046 228.03,107.266 45 0 1 761.23952,609.54351 Z" />
  <path
     id="ellipse15"
     style="fill:#fd5277"
     d="M 761.23851,590.4555 A 107.266,228.03 45 0 1 524.14844,675.84854 107.266,228.03 45 0 1 609.54148,438.75846 107.266,228.03 45 0 1 846.63156,353.36542 107.266,228.03 45 0 1 761.23851,590.4555 Z" />
  <path
     id="ellipse16"
     style="fill:#fd5277"
     d="M 590.45453,761.24154 A 107.266,228.03 45 0 1 353.36447,846.63459 107.266,228.03 45 0 1 438.75751,609.54452 107.266,228.03 45 0 1 675.84758,524.15147 107.266,228.03 45 0 1 590.45453,761.24154 Z" />
  <path
     id="ellipse17"
     style="fill:#ff7795"
     d="m 676.13787,514.27698 a 76.141899,161.86501 0 0 1 -76.1419,161.865 76.141899,161.86501 0 0 1 -76.1419,-161.865 76.141899,161.86501 0 0 1 76.1419,-161.86501 76.141899,161.86501 0 0 1 76.1419,161.86501 z" />
  <path
     id="ellipse18"
     style="fill:#ff7795"
     d="m 676.13787,685.72302 a 76.141899,161.86501 0 0 1 -76.1419,161.86501 76.141899,161.86501 0 0 1 -76.1419,-161.86501 76.141899,161.86501 0 0 1 76.1419,-161.865 76.141899,161.86501 0 0 1 76.1419,161.865 z" />
  <path
     id="ellipse19"
     style="fill:#ff7795"
     d="M 685.72101,676.1419 A 161.86501,76.141899 0 0 1 523.856,600 161.86501,76.141899 0 0 1 685.72101,523.8581 161.86501,76.141899 0 0 1 847.58601,600 a 161.86501,76.141899 0 0 1 -161.865,76.1419 z" />
  <path
     id="ellipse20"
     style="fill:#ff7795"
     d="M 514.276,676.1419 A 161.86501,76.141899 0 0 1 352.411,600 161.86501,76.141899 0 0 1 514.276,523.8581 161.86501,76.141899 0 0 1 676.14101,600 161.86501,76.141899 0 0 1 514.276,676.1419 Z" />
  <path
     id="ellipse21"
     style="fill:#ff7795"
     d="m 593.22245,485.54551 a 161.86501,76.141899 45 0 1 60.61538,168.2963 161.86501,76.141899 45 0 1 -168.29629,-60.61539 161.86501,76.141899 45 0 1 -60.61539,-168.2963 161.86501,76.141899 45 0 1 168.2963,60.61539 z" />
  <path
     id="ellipse22"
     style="fill:#ff7795"
     d="m 714.45249,606.77558 a 161.86501,76.141899 45 0 1 60.61536,168.29627 161.86501,76.141899 45 0 1 -168.29627,-60.61536 161.86501,76.141899 45 0 1 -60.61539,-168.2963 161.86501,76.141899 45 0 1 168.2963,60.61539 z" />
  <path
     id="ellipse23"
     style="fill:#ff7795"
     d="m 714.45243,593.22545 a 76.141899,161.86501 45 0 1 -168.29629,60.61539 76.141899,161.86501 45 0 1 60.61539,-168.2963 76.141899,161.86501 45 0 1 168.2963,-60.61539 76.141899,161.86501 45 0 1 -60.6154,168.2963 z" />
  <path
     id="ellipse24"
     style="fill:#ff7795"
     d="m 593.22341,714.45645 a 76.141899,161.86501 45 0 1 -168.29629,60.61539 76.141899,161.86501 45 0 1 60.61539,-168.29629 76.141899,161.86501 45 0 1 168.29629,-60.6154 76.141899,161.86501 45 0 1 -60.61539,168.2963 z" />
  <path
     id="ellipse25"
     style="fill:#ff96ad"
     d="m 646.65009,547.47803 a 46.6521,99.1745 0 0 1 -46.6521,99.1745 46.6521,99.1745 0 0 1 -46.6521,-99.1745 46.6521,99.1745 0 0 1 46.6521,-99.1745 46.6521,99.1745 0 0 1 46.6521,99.1745 z" />
  <path
     id="ellipse26"
     style="fill:#ff96ad"
     d="m 646.65009,652.52301 a 46.6521,99.1745 0 0 1 -46.6521,99.1745 46.6521,99.1745 0 0 1 -46.6521,-99.1745 46.6521,99.1745 0 0 1 46.6521,-99.1745 46.6521,99.1745 0 0 1 46.6521,99.1745 z" />
  <path
     id="ellipse27"
     style="fill:#ff96ad"
     d="m 652.52002,646.65314 a 99.1745,46.6521 0 0 1 -99.1745,-46.6521 99.1745,46.6521 0 0 1 99.1745,-46.6521 99.1745,46.6521 0 0 1 99.1745,46.6521 99.1745,46.6521 0 0 1 -99.1745,46.6521 z" />
  <path
     id="ellipse28"
     style="fill:#ff96ad"
     d="m 547.47601,646.65314 a 99.1745,46.6521 0 0 1 -99.1745,-46.6521 99.1745,46.6521 0 0 1 99.1745,-46.6521 99.1745,46.6521 0 0 1 99.1745,46.6521 99.1745,46.6521 0 0 1 -99.1745,46.6521 z" />
  <path
     id="ellipse29"
     style="fill:#ff96ad"
     d="M 595.846,529.87301 A 99.1745,46.6521 45 0 1 632.98494,632.98798 99.1745,46.6521 45 0 1 529.86996,595.84904 99.1745,46.6521 45 0 1 492.73102,492.73406 99.1745,46.6521 45 0 1 595.846,529.87301 Z" />
  <path
     id="ellipse30"
     style="fill:#ff96ad"
     d="M 670.12303,604.15098 A 99.1745,46.6521 45 0 1 707.26198,707.26596 99.1745,46.6521 45 0 1 604.14699,670.12701 99.1745,46.6521 45 0 1 567.00805,567.01203 99.1745,46.6521 45 0 1 670.12303,604.15098 Z" />
  <path
     id="ellipse31"
     style="fill:#ff96ad"
     d="M 670.12301,595.85 A 46.6521,99.1745 45 0 1 567.00803,632.98895 46.6521,99.1745 45 0 1 604.14697,529.87397 46.6521,99.1745 45 0 1 707.26195,492.73503 46.6521,99.1745 45 0 1 670.12301,595.85 Z" />
  <path
     id="ellipse32"
     style="fill:#ff96ad"
     d="M 595.84602,670.12699 A 46.6521,99.1745 45 0 1 492.73105,707.26593 46.6521,99.1745 45 0 1 529.86999,604.15095 46.6521,99.1745 45 0 1 632.98497,567.01201 46.6521,99.1745 45 0 1 595.84602,670.12699 Z" />
  <path
     id="ellipse33"
     style="fill:#ffc5d1"
     d="m 623.41227,573.63702 a 23.4163,49.778999 0 0 1 -23.4163,49.779 23.4163,49.778999 0 0 1 -23.4163,-49.779 23.4163,49.778999 0 0 1 23.4163,-49.779 23.4163,49.778999 0 0 1 23.4163,49.779 z" />
  <path
     id="ellipse34"
     style="fill:#ffc5d1"
     d="m 623.41227,626.36298 a 23.4163,49.778999 0 0 1 -23.4163,49.779 23.4163,49.778999 0 0 1 -23.4163,-49.779 23.4163,49.778999 0 0 1 23.4163,-49.779 23.4163,49.778999 0 0 1 23.4163,49.779 z" />
  <path
     id="ellipse35"
     style="fill:#ffc5d1"
     d="M 626.35999,623.4163 A 49.778999,23.4163 0 0 1 576.58099,600 49.778999,23.4163 0 0 1 626.35999,576.5837 49.778999,23.4163 0 0 1 676.13898,600 49.778999,23.4163 0 0 1 626.35999,623.4163 Z" />
  <path
     id="ellipse36"
     style="fill:#ffc5d1"
     d="M 573.63397,623.4163 A 49.778999,23.4163 0 0 1 523.85497,600 a 49.778999,23.4163 0 0 1 49.779,-23.4163 49.778999,23.4163 0 0 1 49.779,23.4163 49.778999,23.4163 0 0 1 -49.779,23.4163 z" />
  <path
     id="ellipse37"
     style="fill:#ffc5d1"
     d="m 597.91482,564.80118 a 49.778999,23.4163 45 0 1 18.64125,51.75689 49.778999,23.4163 45 0 1 -51.7569,-18.64124 49.778999,23.4163 45 0 1 -18.64124,-51.75689 49.778999,23.4163 45 0 1 51.75689,18.64124 z" />
  <path
     id="ellipse38"
     style="fill:#ffc5d1"
     d="m 635.19782,602.08315 a 49.778999,23.4163 45 0 1 18.64125,51.7569 49.778999,23.4163 45 0 1 -51.75689,-18.64125 49.778999,23.4163 45 0 1 -18.64125,-51.75689 49.778999,23.4163 45 0 1 51.75689,18.64124 z" />
  <path
     id="ellipse39"
     style="fill:#ffc5d1"
     d="m 635.19785,597.91686 a 23.4163,49.778999 45 0 1 -51.7569,18.64124 23.4163,49.778999 45 0 1 18.64125,-51.75689 23.4163,49.778999 45 0 1 51.75689,-18.64124 23.4163,49.778999 45 0 1 -18.64124,51.75689 z" />
  <path
     id="ellipse40"
     style="fill:#ffc5d1"
     d="m 597.91682,635.19986 a 23.4163,49.778999 45 0 1 -51.75689,18.64125 23.4163,49.778999 45 0 1 18.64124,-51.7569 23.4163,49.778999 45 0 1 51.7569,-18.64124 23.4163,49.778999 45 0 1 -18.64125,51.75689 z" />
  <path
     id="circle40"
     style="fill:#ffffff"
     d="M 633.11241,600 A 33.115398,33.115398 0 0 1 599.99701,633.1154 33.115398,33.115398 0 0 1 566.88161,600 33.115398,33.115398 0 0 1 599.99701,566.8846 33.115398,33.115398 0 0 1 633.11241,600 Z" />
</svg>
