<svg width="1200" height="1200" viewBox="0 0 1200 1200" fill="none" xmlns="http://www.w3.org/2000/svg">
<ellipse cx="599.999" cy="444.195" rx="138.391" ry="294.195" fill="#F82A57"/>
<ellipse cx="599.999" cy="755.805" rx="138.391" ry="294.195" fill="#F82A57"/>
<ellipse cx="755.804" cy="600" rx="138.391" ry="294.195" transform="rotate(90 755.804 600)" fill="#F82A57"/>
<ellipse cx="444.195" cy="600" rx="138.391" ry="294.195" transform="rotate(90 444.195 600)" fill="#F82A57"/>
<ellipse cx="489.83" cy="489.83" rx="138.391" ry="294.195" transform="rotate(-45 489.83 489.83)" fill="#F82A57"/>
<ellipse cx="710.171" cy="710.171" rx="138.391" ry="294.195" transform="rotate(-45 710.171 710.171)" fill="#F82A57"/>
<ellipse cx="710.169" cy="489.83" rx="138.391" ry="294.195" transform="rotate(45 710.169 489.83)" fill="#F82A57"/>
<ellipse cx="489.829" cy="710.171" rx="138.391" ry="294.195" transform="rotate(45 489.829 710.171)" fill="#F82A57"/>
<ellipse cx="599.998" cy="479.236" rx="107.266" ry="228.03" fill="#FD5277"/>
<ellipse cx="599.998" cy="720.764" rx="107.266" ry="228.03" fill="#FD5277"/>
<ellipse cx="720.76" cy="600.001" rx="107.266" ry="228.03" transform="rotate(90 720.76 600.001)" fill="#FD5277"/>
<ellipse cx="479.233" cy="600.001" rx="107.266" ry="228.03" transform="rotate(90 479.233 600.001)" fill="#FD5277"/>
<ellipse cx="514.605" cy="514.607" rx="107.266" ry="228.03" transform="rotate(-45 514.605 514.607)" fill="#FD5277"/>
<ellipse cx="685.391" cy="685.392" rx="107.266" ry="228.03" transform="rotate(-45 685.391 685.392)" fill="#FD5277"/>
<ellipse cx="685.39" cy="514.607" rx="107.266" ry="228.03" transform="rotate(45 685.39 514.607)" fill="#FD5277"/>
<ellipse cx="514.606" cy="685.393" rx="107.266" ry="228.03" transform="rotate(45 514.606 685.393)" fill="#FD5277"/>
<ellipse cx="599.996" cy="514.277" rx="76.1419" ry="161.865" fill="#FF7795"/>
<ellipse cx="599.996" cy="685.723" rx="76.1419" ry="161.865" fill="#FF7795"/>
<ellipse cx="685.721" cy="600" rx="76.1419" ry="161.865" transform="rotate(90 685.721 600)" fill="#FF7795"/>
<ellipse cx="514.276" cy="600" rx="76.1419" ry="161.865" transform="rotate(90 514.276 600)" fill="#FF7795"/>
<ellipse cx="539.382" cy="539.386" rx="76.1419" ry="161.865" transform="rotate(-45 539.382 539.386)" fill="#FF7795"/>
<ellipse cx="660.612" cy="660.616" rx="76.1419" ry="161.865" transform="rotate(-45 660.612 660.616)" fill="#FF7795"/>
<ellipse cx="660.612" cy="539.385" rx="76.1419" ry="161.865" transform="rotate(45 660.612 539.385)" fill="#FF7795"/>
<ellipse cx="539.383" cy="660.616" rx="76.1419" ry="161.865" transform="rotate(45 539.383 660.616)" fill="#FF7795"/>
<ellipse cx="599.998" cy="547.478" rx="46.6521" ry="99.1745" fill="#FF96AD"/>
<ellipse cx="599.998" cy="652.523" rx="46.6521" ry="99.1745" fill="#FF96AD"/>
<ellipse cx="652.52" cy="600.001" rx="46.6521" ry="99.1745" transform="rotate(90 652.52 600.001)" fill="#FF96AD"/>
<ellipse cx="547.476" cy="600.001" rx="46.6521" ry="99.1745" transform="rotate(90 547.476 600.001)" fill="#FF96AD"/>
<ellipse cx="562.858" cy="562.861" rx="46.6521" ry="99.1745" transform="rotate(-45 562.858 562.861)" fill="#FF96AD"/>
<ellipse cx="637.135" cy="637.139" rx="46.6521" ry="99.1745" transform="rotate(-45 637.135 637.139)" fill="#FF96AD"/>
<ellipse cx="637.135" cy="562.862" rx="46.6521" ry="99.1745" transform="rotate(45 637.135 562.862)" fill="#FF96AD"/>
<ellipse cx="562.858" cy="637.139" rx="46.6521" ry="99.1745" transform="rotate(45 562.858 637.139)" fill="#FF96AD"/>
<ellipse cx="599.996" cy="573.637" rx="23.4163" ry="49.779" fill="#FFC5D1"/>
<ellipse cx="599.996" cy="626.363" rx="23.4163" ry="49.779" fill="#FFC5D1"/>
<ellipse cx="626.36" cy="600" rx="23.4163" ry="49.779" transform="rotate(90 626.36 600)" fill="#FFC5D1"/>
<ellipse cx="573.634" cy="600" rx="23.4163" ry="49.779" transform="rotate(90 573.634 600)" fill="#FFC5D1"/>
<ellipse cx="581.357" cy="581.359" rx="23.4163" ry="49.779" transform="rotate(-45 581.357 581.359)" fill="#FFC5D1"/>
<ellipse cx="618.64" cy="618.641" rx="23.4163" ry="49.779" transform="rotate(-45 618.64 618.641)" fill="#FFC5D1"/>
<ellipse cx="618.64" cy="581.359" rx="23.4163" ry="49.779" transform="rotate(45 618.64 581.359)" fill="#FFC5D1"/>
<ellipse cx="581.359" cy="618.642" rx="23.4163" ry="49.779" transform="rotate(45 581.359 618.642)" fill="#FFC5D1"/>
<circle cx="599.997" cy="600" r="33.1154" fill="white"/>
</svg>
