<?xml version="1.0" encoding="UTF-8" standalone="no"?>
<svg
   width="1200"
   height="1200"
   viewBox="0 0 1200 1200"
   fill="none"
   version="1.1"
   id="svg3"
   xmlns="http://www.w3.org/2000/svg"
   xmlns:svg="http://www.w3.org/2000/svg">
  <defs
     id="defs3" />
  <path
     d="M 937,684.941 C 937,781.23 901.495,873.576 838.295,941.662 775.095,1009.75 689.378,1048 600,1048 510.622,1048 424.905,1009.75 361.705,941.662 298.505,873.576 263,781.23 263,684.941 c 0,-115.968 42.517,-234.764 126.375,-353.096 2.014,-2.882 4.575,-5.267 7.514,-6.996 2.938,-1.729 6.186,-2.762 9.525,-3.03 3.339,-0.268 6.692,0.236 9.836,1.477 3.144,1.241 6.005,3.192 8.392,5.721 L 473,380.583 618.339,169.651 c 1.291,-3.814 3.414,-7.238 6.191,-9.983 2.776,-2.745 6.124,-4.731 9.762,-5.79 3.637,-1.06 7.458,-1.162 11.14,-0.297 3.682,0.864 7.117,2.669 10.016,5.262 C 739.973,234.621 937,437.554 937,684.941 Z"
     fill="#ff5533"
     id="path1" />
  <path
     d="M 819,838.294 C 819,954.112 720.95,1048 600,1048 479.05,1048 381,954.112 381,838.294 381,722.477 600,445.265 600,445.265 c 0,0 219,277.212 219,393.029 z"
     fill="#ffb433"
     id="path2" />
  <path
     d="M 750,903.973 C 750,983.517 682.843,1048 600,1048 c -82.843,0 -150,-64.483 -150,-144.027 0,-79.544 150,-269.934 150,-269.934 0,0 150,190.39 150,269.934 z"
     fill="#ffe95a"
     id="path3" />
  <path
     id="ellipse3"
     style="fill:#ffffff"
     d="m 717,955.04999 a 118,92.949699 0 0 1 -118,92.94971 118,92.949699 0 0 1 -118,-92.94971 118,92.949699 0 0 1 118,-92.9497 118,92.949699 0 0 1 118,92.9497 z" />
</svg>
