<?xml version="1.0" encoding="UTF-8"?>
<svg id="Layer_1" xmlns="http://www.w3.org/2000/svg" version="1.1" viewBox="0 0 1080 1080">
  <!-- Generator: Adobe Illustrator 29.1.0, SVG Export Plug-In . SVG Version: 2.1.0 Build 142)  -->
  <defs>
    <style>
      .st0 {
        fill: #41529a;
      }

      .st1 {
        fill: #233172;
      }

      .st2 {
        fill: #899be3;
      }

      .st3 {
        fill: #0e1a4c;
      }

      .st4 {
        fill: #6174c0;
      }
    </style>
  </defs>
  <rect class="st3" width="1080" height="1080"/>
  <path class="st1" d="M1080,281.5c-103.2-87.7-303.2-178.8-605.2-121.8C-14.4,252.1,89.1,628.5,133.1,699.9c57.4,93.2,195.2,247.8,200.4,380.1h746.5V281.5Z"/>
  <path class="st0" d="M1080,442.5c-82.3-56.1-216.2-100.5-404.9-62.2-359.5,72.9-293.4,373-252.4,422.5,29.9,36.1,128.1,165.5,143.8,277.2h513.5V442.5Z"/>
  <path class="st4" d="M1080,569.6c-109.2-38.6-290.5-55.1-432.2,88.5-113,114.6-50.2,285.1,52.7,421.9h379.5v-510.4Z"/>
  <path class="st2" d="M1080,696.1c-79.2-8.5-174.7,7.6-254.2,88.2-80.7,81.8-29.7,196.8,51.4,295.6h202.9v-383.9Z"/>
</svg>