<?xml version="1.0" encoding="UTF-8" standalone="no"?>
<svg
   width="1200"
   height="1200"
   viewBox="0 0 1200 1200"
   fill="none"
   version="1.1"
   id="svg4"
   xmlns="http://www.w3.org/2000/svg"
   xmlns:svg="http://www.w3.org/2000/svg">
  <g
     clip-path="url(#clip0_1_167)"
     id="g4">
    <path
       id="rect1"
       style="fill:#0e1a4c"
       d="M 0,0 H 1200 V 1200 H 0 Z" />
    <path
       d="m 527.5,177.5 c 434.806,-82.0508 679.27,112.001 746.16,216.464 H 1341 V 1324 H 328.81 C 465.537,1163.19 231,912.5 147.867,777.627 98.9764,698.308 -16.0081,280.064 527.5,177.5 Z"
       fill="#233172"
       id="path1" />
    <path
       d="m 750.154,422.5 c 319.596,-64.8 497.836,84 546.996,166.5 h 49.5 v 734.5 H 602.654 c 100.5,-127 -87.5,-376.5 -133,-431.5 -45.5,-55 -119,-388.5 280.5,-469.5 z"
       fill="#41529a"
       id="path2" />
    <path
       d="M 1261,659.619 V 1354.54 L 963.5,1387 C 782.03,1251.89 531.67,921.99 719.786,731.221 907.901,540.453 1158.98,604 1261,659.619 Z"
       fill="#6174c0"
       id="path3" />
    <path
       d="M 1341,815.5 V 1359 l -181.5,16 c -142,-105.67 -389.2,-354.3 -242,-503.5 147.2,-149.2 343.67,-99.5 423.5,-56 z"
       fill="#899be3"
       id="path4" />
  </g>
  <defs
     id="defs4">
    <clipPath
       id="clip0_1_167">
      <rect
         width="1200"
         height="1200"
         fill="white"
         id="rect4" />
    </clipPath>
  </defs>
</svg>
