<?xml version="1.0" encoding="UTF-8" standalone="no"?>
<svg
   id="Layer_1"
   version="1.2"
   viewBox="0 0 1080 1080"
   xmlns="http://www.w3.org/2000/svg"
   xmlns:svg="http://www.w3.org/2000/svg">
  <defs
     id="defs4" />
  <!-- Generator: Adobe Illustrator 29.1.0, SVG Export Plug-In . SVG Version: 2.1.0 Build 142)  -->
  <path
     id="rect1"
     style="fill:#0e1a4c"
     d="M 0,0 H 1080 V 1080 H 0 Z" />
  <path
     d="M 1080,281.5 C 976.8,193.8 776.8,102.7 474.8,159.7 -14.4,252.1 89.1,628.5 133.1,699.9 190.5,793.1 328.3,947.7 333.5,1080 H 1080 Z"
     fill="#233172"
     id="path1" />
  <path
     d="M 1080,442.5 C 997.7,386.4 863.8,342 675.1,380.3 315.6,453.2 381.7,753.3 422.7,802.8 452.6,838.9 550.8,968.3 566.5,1080 H 1080 Z"
     fill="#41529a"
     id="path2" />
  <path
     d="M 1080,569.6 C 970.8,531 789.5,514.5 647.8,658.1 534.8,772.7 597.6,943.2 700.5,1080 H 1080 Z"
     fill="#6174c0"
     id="path3" />
  <path
     d="m 1080,696.1 c -79.2,-8.5 -174.7,7.6 -254.2,88.2 -80.7,81.8 -29.7,196.8 51.4,295.6 h 202.9 V 696 Z"
     fill="#899be3"
     id="path4" />
</svg>
