<?xml version="1.0" encoding="UTF-8" standalone="no"?>
<svg
   width="1200"
   height="1201"
   viewBox="0 0 1200 1201"
   fill="none"
   version="1.1"
   id="svg6"
   xmlns="http://www.w3.org/2000/svg"
   xmlns:svg="http://www.w3.org/2000/svg">
  <defs
     id="defs6" />
  <path
     id="rect1"
     style="fill:#167e48"
     d="m 870.50852,345.57149 86.01459,86.01459 c 5.56521,5.56521 5.56521,14.52581 -10e-6,20.09102 l -86.01459,86.01459 c -5.56521,5.56521 -14.52581,5.56521 -20.09102,10e-6 L 764.4029,451.67711 c -5.56521,-5.56522 -5.56521,-14.52582 0,-20.09103 l 86.01459,-86.01459 c 5.56522,-5.56521 14.52582,-5.56521 20.09103,0 z" />
  <path
     id="rect2"
     style="fill:#167e48"
     d="m 348.37151,345.57148 86.01459,86.01459 c 5.56521,5.56521 5.56521,14.52581 0,20.09102 l -86.01459,86.01459 c -5.56522,5.56522 -14.52582,5.56522 -20.09103,0 l -86.01459,-86.01459 c -5.56521,-5.56521 -5.56521,-14.52581 0,-20.09102 l 86.01459,-86.01459 c 5.56521,-5.56522 14.52581,-5.56522 20.09103,0 z" />
  <path
     id="rect3"
     style="fill:#c6ffc4"
     d="m 609.61852,875.83748 86.01459,86.01459 c 5.56521,5.56521 5.56521,14.52581 0,20.09102 l -86.0146,86.01461 c -5.56521,5.5652 -14.52581,5.5652 -20.09102,0 L 503.5129,981.9431 c -5.56522,-5.56521 -5.56522,-14.52581 0,-20.09103 l 86.01459,-86.01459 c 5.56522,-5.56522 14.52582,-5.56522 20.09103,0 z" />
  <path
     id="rect4"
     style="fill:#96dd94"
     d="m 620.10911,568.01105 172.02975,172.02976 c 11.13047,11.13047 11.13046,29.05173 0,40.18219 L 620.10911,952.25275 c -11.13047,11.13047 -29.05172,11.13047 -40.18219,0 L 407.89717,780.223 c -11.13047,-11.13046 -11.13047,-29.05172 0,-40.18219 L 579.92693,568.01106 c 11.13046,-11.13046 29.05172,-11.13047 40.18218,-1e-5 z" />
  <path
     id="rect5"
     style="fill:#4cb348"
     d="m 620.1091,355.80106 172.02976,172.02975 c 11.13046,11.13047 11.13046,29.05173 0,40.1822 L 620.1091,740.04276 c -11.13047,11.13047 -29.05172,11.13047 -40.18219,0 L 407.89716,568.01301 c -11.13046,-11.13047 -11.13046,-29.05172 1e-5,-40.18219 L 579.92692,355.80107 c 11.13047,-11.13047 29.05172,-11.13047 40.18218,-10e-6 z" />
  <path
     id="rect6"
     style="fill:#076c5a"
     d="m 620.1091,143.59105 172.02975,172.02977 c 11.13047,11.13047 11.13047,29.05172 0,40.18219 L 620.1091,527.83277 c -11.13047,11.13046 -29.05173,11.13046 -40.1822,0 L 407.89715,355.80301 c -11.13046,-11.13046 -11.13045,-29.05172 10e-6,-40.18218 L 579.92691,143.59105 c 11.13047,-11.1304 29.05172,-11.1304 40.18219,0 z" />
</svg>
