<?xml version="1.0" encoding="UTF-8" standalone="no"?>
<svg
   width="1200"
   height="1201"
   viewBox="0 0 1200 1201"
   fill="none"
   version="1.1"
   id="svg6"
   xmlns="http://www.w3.org/2000/svg"
   xmlns:svg="http://www.w3.org/2000/svg">
  <defs
     id="defs6" />
  <path
     id="rect1"
     style="fill:#167e48"
     d="m 352.53249,335.526 h 121.643 c 7.8704,0 14.2065,6.3361 14.2065,14.2065 v 121.643 c 0,7.8704 -6.3361,14.2065 -14.2065,14.2065 h -121.643 c -7.8704,0 -14.2065,-6.3361 -14.2065,-14.2065 v -121.643 c 0,-7.8704 6.3361,-14.2065 14.2065,-14.2065 z" />
  <path
     id="rect2"
     style="fill:#c6ffc4"
     d="m 613.7795,865.79199 h 121.643 c 7.8704,0 14.2065,6.3361 14.2065,14.2065 v 121.64301 c 0,7.8704 -6.3361,14.2065 -14.2065,14.2065 h -121.643 c -7.8704,0 -14.2065,-6.3361 -14.2065,-14.2065 V 879.99849 c 0,-7.8704 6.3361,-14.2065 14.2065,-14.2065 z" />
  <path
     id="rect3"
     style="fill:#96dd94"
     d="m 628.4311,547.91998 h 243.28681 c 15.74086,0 28.4131,12.67225 28.4131,28.4131 v 243.28681 c 0,15.74086 -12.67224,28.4131 -28.4131,28.4131 H 628.4311 c -15.74085,0 -28.41309,-12.67224 -28.41309,-28.4131 V 576.33308 c 0,-15.74085 12.67224,-28.4131 28.41309,-28.4131 z" />
  <path
     id="rect4"
     style="fill:#4cb348"
     d="m 628.4311,335.70999 h 243.28681 c 15.74086,0 28.4131,12.67224 28.4131,28.4131 V 607.4099 c 0,15.74086 -12.67224,28.4131 -28.4131,28.4131 H 628.4311 c -15.74085,0 -28.41309,-12.67224 -28.41309,-28.4131 V 364.12309 c 0,-15.74086 12.67224,-28.4131 28.41309,-28.4131 z" />
  <path
     id="rect5"
     style="fill:#076c5a"
     d="m 628.4311,123.5 h 243.28681 c 15.74086,0 28.4131,12.67224 28.4131,28.4131 v 243.28681 c 0,15.74085 -12.67224,28.4131 -28.4131,28.4131 H 628.4311 c -15.74085,0 -28.41309,-12.67225 -28.41309,-28.4131 V 151.9131 c 0,-15.74086 12.67224,-28.4131 28.41309,-28.4131 z" />
  <path
     id="rect6"
     style="fill:#167e48"
     d="m 874.66951,335.526 h 121.643 c 7.87039,0 14.20649,6.3361 14.20649,14.2065 v 121.643 c 0,7.8704 -6.3361,14.2065 -14.20649,14.2065 h -121.643 c -7.8704,0 -14.2065,-6.3361 -14.2065,-14.2065 v -121.643 c 0,-7.8704 6.3361,-14.2065 14.2065,-14.2065 z" />
</svg>
