<?xml version="1.0" encoding="UTF-8" standalone="no"?>
<svg
   width="1200"
   height="1201"
   viewBox="0 0 1200 1201"
   fill="none"
   version="1.1"
   id="svg4"
   xmlns="http://www.w3.org/2000/svg"
   xmlns:svg="http://www.w3.org/2000/svg">
  <defs
     id="defs4" />
  <path
     fill-rule="evenodd"
     clip-rule="evenodd"
     d="m 348.372,345.571 c -5.548,-5.548 -14.543,-5.548 -20.091,0 l -86.015,86.015 c -5.548,5.548 -5.548,14.543 0,20.091 l 86.015,86.015 c 5.548,5.548 14.543,5.548 20.091,0 31.185,-31.185 73.481,-48.705 117.584,-48.705 h 266.878 c 44.102,0 86.398,17.52 117.584,48.705 5.548,5.548 14.543,5.548 20.091,0 l 86.015,-86.015 c 5.548,-5.548 5.548,-14.543 0,-20.091 l -86.015,-86.015 c -5.548,-5.548 -14.543,-5.548 -20.091,0 -31.185,31.185 -73.481,48.705 -117.583,48.705 h -266.88 c -44.102,0 -86.398,-17.52 -117.583,-48.705 z"
     fill="#167e48"
     id="path1" />
  <path
     id="rect1"
     style="fill:#c6ffc4"
     d="m 609.61857,875.83756 86.01459,86.01459 c 5.56521,5.56521 5.56521,14.52581 0,20.09102 l -86.01459,86.01463 c -5.56522,5.5652 -14.52581,5.5652 -20.09102,0 l -86.01459,-86.01463 c -5.56522,-5.56521 -5.56523,-14.5258 0,-20.09102 l 86.01459,-86.01459 c 5.56521,-5.56522 14.52581,-5.56522 20.09102,0 z" />
  <path
     id="rect2"
     style="fill:#96dd94"
     d="M 620.10909,568.01107 792.13882,740.0408 c 11.1305,11.13049 11.13047,29.05172 0,40.18219 L 620.10907,952.25274 c -11.13047,11.13047 -29.05169,11.1305 -40.18219,0 L 407.89715,780.22301 c -11.13047,-11.13047 -11.13047,-29.05172 0,-40.18219 L 579.9269,568.01107 c 11.13047,-11.13047 29.05172,-11.13047 40.18219,0 z" />
  <path
     id="rect3"
     style="fill:#4cb348"
     d="m 620.10909,355.80109 172.02975,172.02975 c 11.13047,11.13047 11.13047,29.05172 0,40.18219 L 620.10909,740.04278 c -11.13047,11.13046 -29.05172,11.13046 -40.18219,0 L 407.89716,568.01303 c -11.13047,-11.13047 -11.13047,-29.05172 -10e-6,-40.18219 L 579.9269,355.80109 c 11.13047,-11.13047 29.05172,-11.13047 40.18219,0 z" />
  <path
     id="rect4"
     style="fill:#076c5a"
     d="m 620.10909,143.59111 172.02976,172.02975 c 11.13047,11.13047 11.13046,29.05173 0,40.18219 L 620.10909,527.8328 c -11.13046,11.13047 -29.05172,11.13047 -40.18219,0 L 407.89715,355.80305 c -11.13047,-11.13047 -11.13047,-29.05172 0,-40.18219 L 579.9269,143.59111 c 11.13046,-11.13047 29.05172,-11.13047 40.18219,0 z" />
</svg>
