<?xml version="1.0" encoding="UTF-8" standalone="no"?>
<svg
   width="1200"
   height="1200"
   viewBox="0 0 1200 1200"
   fill="none"
   version="1.1"
   id="svg8"
   xmlns="http://www.w3.org/2000/svg"
   xmlns:svg="http://www.w3.org/2000/svg">
  <defs
     id="defs8" />
  <path
     d="m 156.21,642.445 c 0,-58.28 11.479,-115.988 33.782,-169.831 22.302,-53.844 54.992,-102.767 96.201,-143.976 41.21,-41.21 90.133,-73.9 143.976,-96.202 53.843,-22.303 111.552,-33.782 169.832,-33.782 58.279,0 115.988,11.479 169.831,33.782 53.843,22.302 102.766,54.992 143.976,96.202 41.21,41.209 73.899,90.132 96.202,143.976 22.3,53.843 33.78,111.551 33.78,169.831 H 600.001 Z"
     fill="#8d1f58"
     id="path1" />
  <path
     d="M 595.657,950.932 151.132,694.285 287.331,678.332 c 169.221,-19.82 307.262,102.226 308.326,272.6 z"
     fill="#86b253"
     id="path2" />
  <path
     d="M 595.657,950.932 151.132,694.284 205.416,820.213 c 67.446,156.459 242.161,214.987 390.241,130.719 z"
     fill="#4d7123"
     id="path3" />
  <path
     d="m 279.813,642.445 c 0,-42.048 8.282,-83.684 24.372,-122.531 16.091,-38.847 39.676,-74.144 69.408,-103.876 29.733,-29.732 65.03,-53.317 103.877,-69.408 38.847,-16.091 80.483,-24.373 122.531,-24.373 42.047,0 83.683,8.282 122.53,24.373 38.847,16.091 74.144,39.676 103.877,69.408 29.732,29.732 53.317,65.029 69.408,103.876 16.091,38.847 24.373,80.483 24.373,122.531 H 600.001 Z"
     fill="#cd569b"
     id="path4" />
  <path
     d="m 392.573,642.445 c 0,-27.24 5.365,-54.213 15.79,-79.379 10.424,-25.166 25.703,-48.033 44.964,-67.294 19.262,-19.262 42.128,-34.541 67.295,-44.965 25.166,-10.424 52.139,-15.789 79.379,-15.789 27.239,0 54.212,5.365 79.378,15.789 25.167,10.424 48.033,25.703 67.295,44.965 19.261,19.261 34.54,42.128 44.964,67.294 10.424,25.166 15.79,52.139 15.79,79.379 H 600 Z"
     fill="#f9a3db"
     id="path5" />
  <path
     d="m 499.261,642.445 c 0,-13.229 2.606,-26.329 7.668,-38.552 5.063,-12.222 12.483,-23.327 21.838,-32.682 9.354,-9.354 20.46,-16.775 32.682,-21.838 12.222,-5.062 25.322,-7.668 38.552,-7.668 13.229,0 26.329,2.606 38.551,7.668 12.222,5.063 23.328,12.484 32.682,21.838 9.355,9.355 16.775,20.46 21.838,32.682 5.063,12.223 7.668,25.323 7.668,38.552 H 600.001 Z"
     fill="#f9f7f8"
     id="path6" />
  <path
     d="M 604.343,950.932 1048.87,694.285 912.669,678.332 c -169.221,-19.82 -307.262,102.226 -308.326,272.6 z"
     fill="#02c68e"
     id="path7" />
  <path
     d="M 604.343,950.932 1048.87,694.284 994.584,820.213 C 927.138,976.672 752.423,1035.2 604.343,950.932 Z"
     fill="#007846"
     id="path8" />
</svg>
