<svg width="1200" height="1200" viewBox="0 0 1200 1200" fill="none" xmlns="http://www.w3.org/2000/svg">
<circle cx="600" cy="906.16" r="96.5369" fill="#82012C"/>
<circle cx="491.731" cy="702.053" r="96.5369" fill="#B3033D"/>
<circle cx="708.268" cy="702.053" r="96.5369" fill="#D30449"/>
<circle cx="383.463" cy="497.947" r="96.5369" fill="#F20755"/>
<circle cx="600" cy="497.947" r="96.5369" fill="#FF4885"/>
<circle cx="816.537" cy="497.947" r="96.5369" fill="#FF86AE"/>
<path fill-rule="evenodd" clip-rule="evenodd" d="M588.267 380.59C632.486 358.936 662.934 313.492 662.934 260.936C662.934 208.381 632.486 162.937 588.267 141.282C544.049 162.937 513.601 208.381 513.601 260.936C513.601 313.492 544.049 358.936 588.267 380.59Z" fill="#7EC972"/>
<path fill-rule="evenodd" clip-rule="evenodd" d="M518.553 358.208C521.909 309.086 497.777 259.995 452.263 233.717C406.748 207.439 352.169 211.086 311.306 238.553C307.95 287.675 332.082 336.766 377.596 363.044C423.111 389.322 477.69 385.675 518.553 358.208Z" fill="#36792C"/>
<path fill-rule="evenodd" clip-rule="evenodd" d="M657.982 358.208C654.626 309.086 678.758 259.995 724.272 233.717C769.787 207.439 824.367 211.086 865.229 238.553C868.585 287.675 844.454 336.766 798.939 363.044C753.425 389.322 698.845 385.675 657.982 358.208Z" fill="#BEF2B6"/>
</svg>
