<?xml version="1.0" encoding="UTF-8" standalone="no"?>
<svg
   width="1200"
   height="1200"
   viewBox="0 0 1200 1200"
   fill="none"
   version="1.1"
   id="svg8"
   xmlns="http://www.w3.org/2000/svg"
   xmlns:svg="http://www.w3.org/2000/svg">
  <defs
     id="defs8" />
  <path
     id="circle1"
     style="fill:#82012c"
     d="M 696.5369,906.15997 A 96.536903,96.536903 0 0 1 600,1002.6969 96.536903,96.536903 0 0 1 503.4631,906.15997 96.536903,96.536903 0 0 1 600,809.62307 a 96.536903,96.536903 0 0 1 96.5369,96.5369 z" />
  <path
     id="circle2"
     style="fill:#b3033d"
     d="m 588.26789,702.05298 a 96.536903,96.536903 0 0 1 -96.5369,96.5369 96.536903,96.536903 0 0 1 -96.53691,-96.5369 96.536903,96.536903 0 0 1 96.53691,-96.5369 96.536903,96.536903 0 0 1 96.5369,96.5369 z" />
  <path
     id="circle3"
     style="fill:#d30449"
     d="m 804.80491,702.05298 a 96.536903,96.536903 0 0 1 -96.5369,96.5369 96.536903,96.536903 0 0 1 -96.53691,-96.5369 96.536903,96.536903 0 0 1 96.53691,-96.5369 96.536903,96.536903 0 0 1 96.5369,96.5369 z" />
  <path
     id="circle4"
     style="fill:#f20755"
     d="m 479.99992,497.94699 a 96.536903,96.536903 0 0 1 -96.53691,96.5369 96.536903,96.536903 0 0 1 -96.5369,-96.5369 96.536903,96.536903 0 0 1 96.5369,-96.5369 96.536903,96.536903 0 0 1 96.53691,96.5369 z" />
  <path
     id="circle5"
     style="fill:#ff4885"
     d="M 696.5369,497.94699 A 96.536903,96.536903 0 0 1 600,594.48389 96.536903,96.536903 0 0 1 503.4631,497.94699 96.536903,96.536903 0 0 1 600,401.41009 a 96.536903,96.536903 0 0 1 96.5369,96.5369 z" />
  <path
     id="circle6"
     style="fill:#ff86ae"
     d="m 913.07389,497.94699 a 96.536903,96.536903 0 0 1 -96.5369,96.5369 96.536903,96.536903 0 0 1 -96.53691,-96.5369 96.536903,96.536903 0 0 1 96.53691,-96.5369 96.536903,96.536903 0 0 1 96.5369,96.5369 z" />
  <path
     fill-rule="evenodd"
     clip-rule="evenodd"
     d="m 588.267,380.59 c 44.219,-21.654 74.667,-67.098 74.667,-119.654 0,-52.555 -30.448,-97.999 -74.667,-119.654 -44.218,21.655 -74.666,67.099 -74.666,119.654 0,52.556 30.448,98 74.666,119.654 z"
     fill="#7ec972"
     id="path6" />
  <path
     fill-rule="evenodd"
     clip-rule="evenodd"
     d="m 518.553,358.208 c 3.356,-49.122 -20.776,-98.213 -66.29,-124.491 -45.515,-26.278 -100.094,-22.631 -140.957,4.836 -3.356,49.122 20.776,98.213 66.29,124.491 45.515,26.278 100.094,22.631 140.957,-4.836 z"
     fill="#36792c"
     id="path7" />
  <path
     fill-rule="evenodd"
     clip-rule="evenodd"
     d="m 657.982,358.208 c -3.356,-49.122 20.776,-98.213 66.29,-124.491 45.515,-26.278 100.095,-22.631 140.957,4.836 3.356,49.122 -20.775,98.213 -66.29,124.491 -45.514,26.278 -100.094,22.631 -140.957,-4.836 z"
     fill="#bef2b6"
     id="path8" />
</svg>
