<?xml version="1.0" encoding="UTF-8" standalone="no"?>
<svg
   width="1200"
   height="1200"
   viewBox="0 0 1200 1200"
   fill="none"
   version="1.1"
   id="svg9"
   xmlns="http://www.w3.org/2000/svg"
   xmlns:svg="http://www.w3.org/2000/svg">
  <g
     clip-path="url(#clip0_58_229)"
     id="g9">
    <path
       d="m 0,960 h 240 v 140 c 0,55.23 -44.772,100 -100,100 H 0 Z"
       fill="#fee205"
       id="path1" />
    <path
       d="m 240,720 h 240 v 140 c 0,55.228 -44.772,100 -100,100 H 240 Z"
       fill="#fe9600"
       id="path2" />
    <path
       d="m 480,480 h 240 v 140 c 0,55.228 -44.772,100 -100,100 H 480 Z"
       fill="#f94a5e"
       id="path3" />
    <path
       d="m 720,240 h 240 v 140 c 0,55.228 -44.772,100 -100,100 H 720 Z"
       fill="#854565"
       id="path4" />
    <path
       d="m 960,0 h 240 v 140 c 0,55.228 -44.77,100 -100,100 H 960 Z"
       fill="#3f274f"
       id="path5" />
    <path
       d="M 240,960 H 0 L 1.22392e-5,820 C 1.70674e-5,764.772 44.7716,720 100,720 h 140 z"
       fill="#fdbf00"
       id="path6" />
    <path
       d="M 480,720 H 240 V 580 c 0,-55.228 44.772,-100 100,-100 h 140 z"
       fill="#fe6a49"
       id="path7" />
    <path
       d="M 720,480 H 480 V 340 c 0,-55.228 44.772,-100 100,-100 h 140 z"
       fill="#c3446d"
       id="path8" />
    <path
       d="M 960,240 H 720 V 100 C 720,44.7715 764.772,-1.70674e-5 820,-1.22392e-5 L 960,0 Z"
       fill="#573d67"
       id="path9" />
  </g>
  <defs
     id="defs9">
    <clipPath
       id="clip0_58_229">
      <rect
         width="1200"
         height="1200"
         fill="white"
         id="rect9" />
    </clipPath>
  </defs>
</svg>
