<svg width="1200" height="1200" viewBox="0 0 1200 1200" fill="none" xmlns="http://www.w3.org/2000/svg">
<g clip-path="url(#clip0_58_229)">
<rect width="1200" height="1200" fill="black"/>
<path d="M0 960H240V1100C240 1155.23 195.228 1200 140 1200H0V960Z" fill="#FEE205"/>
<path d="M240 720H480V860C480 915.228 435.228 960 380 960H240V720Z" fill="#FE9600"/>
<path d="M480 480H720V620C720 675.228 675.228 720 620 720H480V480Z" fill="#F94A5E"/>
<path d="M720 240H960V380C960 435.228 915.228 480 860 480H720V240Z" fill="#854565"/>
<path d="M960 0H1200V140C1200 195.228 1155.23 240 1100 240H960V0Z" fill="#3F274F"/>
<path d="M240 960L0 960L1.22392e-05 820C1.70674e-05 764.772 44.7716 720 100 720L240 720L240 960Z" fill="#FDBF00"/>
<path d="M480 720L240 720L240 580C240 524.772 284.772 480 340 480L480 480L480 720Z" fill="#FE6A49"/>
<path d="M720 480L480 480L480 340C480 284.772 524.772 240 580 240L720 240L720 480Z" fill="#C3446D"/>
<path d="M960 240L720 240L720 100C720 44.7715 764.772 -1.70674e-05 820 -1.22392e-05L960 0L960 240Z" fill="#573D67"/>
</g>
<defs>
<clipPath id="clip0_58_229">
<rect width="1200" height="1200" fill="white"/>
</clipPath>
</defs>
</svg>
