<?xml version="1.0" encoding="UTF-8" standalone="no"?>
<svg
   width="1200"
   height="1200"
   viewBox="0 0 1200 1200"
   fill="none"
   version="1.1"
   id="svg9"
   xmlns="http://www.w3.org/2000/svg"
   xmlns:svg="http://www.w3.org/2000/svg">
  <defs
     id="defs9" />
  <path
     id="circle1"
     style="fill:#2d2d2d"
     d="m 828.23999,523.00598 a 182.633,182.633 0 0 1 -182.633,182.633 182.633,182.633 0 0 1 -182.63299,-182.633 182.633,182.633 0 0 1 182.63299,-182.63299 182.633,182.633 0 0 1 182.633,182.63299 z" />
  <path
     id="circle2"
     style="fill:#e0dfe0"
     d="m 483.4465,788.75403 a 96.572502,96.572502 0 0 1 -96.57251,96.5725 96.572502,96.572502 0 0 1 -96.5725,-96.5725 96.572502,96.572502 0 0 1 96.5725,-96.5725 96.572502,96.572502 0 0 1 96.57251,96.5725 z" />
  <path
     id="circle3"
     style="fill:#ffffff"
     d="m 758.759,918.40997 a 113.152,113.152 0 0 1 -113.15201,113.15203 113.152,113.152 0 0 1 -113.152,-113.15203 113.152,113.152 0 0 1 113.152,-113.152 113.152,113.152 0 0 1 113.15201,113.152 z" />
  <path
     id="circle4"
     style="fill:#c4c2c3"
     d="m 361.861,554.77197 a 93.120003,93.120003 0 0 1 -93.12,93.12001 93.120003,93.120003 0 0 1 -93.12001,-93.12001 93.120003,93.120003 0 0 1 93.12001,-93.12 93.120003,93.120003 0 0 1 93.12,93.12 z" />
  <path
     id="circle5"
     style="fill:#918d8e"
     d="m 599.99962,226.715 a 58.2766,58.2766 0 0 1 -58.2766,58.2766 58.2766,58.2766 0 0 1 -58.2766,-58.2766 58.2766,58.2766 0 0 1 58.2766,-58.2766 58.2766,58.2766 0 0 1 58.2766,58.2766 z" />
  <path
     id="circle6"
     style="fill:#a9a7a7"
     d="m 438.06899,328.53101 a 76.208,76.208 0 0 1 -76.208,76.208 76.208,76.208 0 0 1 -76.208,-76.208 76.208,76.208 0 0 1 76.208,-76.208 76.208,76.208 0 0 1 76.208,76.208 z" />
  <path
     id="circle7"
     style="fill:#7a7676"
     d="m 787.15892,246.338 a 52.448898,52.448898 0 0 1 -52.4489,52.4489 52.448898,52.448898 0 0 1 -52.4489,-52.4489 52.448898,52.448898 0 0 1 52.4489,-52.4489 52.448898,52.448898 0 0 1 52.4489,52.4489 z" />
  <path
     id="circle8"
     style="fill:#514d4e"
     d="m 932.36511,365.28101 a 47.204102,47.204102 0 0 1 -47.2041,47.2041 47.204102,47.204102 0 0 1 -47.2041,-47.2041 47.204102,47.204102 0 0 1 47.2041,-47.20411 47.204102,47.204102 0 0 1 47.2041,47.20411 z" />
  <path
     id="circle9"
     style="fill:#3e3d3d"
     d="m 974.84869,523.00598 a 42.4837,42.4837 0 0 1 -42.4837,42.4837 42.4837,42.4837 0 0 1 -42.4837,-42.4837 42.4837,42.4837 0 0 1 42.4837,-42.4837 42.4837,42.4837 0 0 1 42.4837,42.4837 z" />
</svg>
