<?xml version="1.0" encoding="UTF-8" standalone="no"?>
<svg
   width="1200"
   height="1200"
   viewBox="0 0 1200 1200"
   fill="none"
   version="1.1"
   id="svg7"
   xmlns="http://www.w3.org/2000/svg"
   xmlns:svg="http://www.w3.org/2000/svg">
  <defs
     id="defs7" />
  <path
     fill-rule="evenodd"
     clip-rule="evenodd"
     d="m 600,1009.96 c -55.574,32.02 -126.238,34.36 -185.781,-0.02 -59.542,-34.379 -92.852,-96.743 -92.906,-160.884 55.575,-32.024 126.239,-34.359 185.781,0.018 59.543,34.377 92.853,96.741 92.906,160.886 z"
     fill="#017638"
     id="path1" />
  <path
     fill-rule="evenodd"
     clip-rule="evenodd"
     d="m 599.999,1009.94 c 55.574,32.02 126.238,34.36 185.781,-0.02 59.542,-34.376 92.852,-96.741 92.906,-160.881 -55.575,-32.024 -126.239,-34.359 -185.781,0.017 -59.543,34.377 -92.853,96.742 -92.906,160.884 z"
     fill="#12a456"
     id="path2" />
  <path
     fill-rule="evenodd"
     clip-rule="evenodd"
     d="m 599.07,438.088 c 55.521,-32.117 92.875,-92.146 92.875,-160.9 0,-68.754 -37.354,-128.783 -92.875,-160.9 -55.52,32.117 -92.875,92.146 -92.875,160.9 0,68.754 37.355,128.783 92.875,160.9 z"
     fill="#fffdda"
     id="path3" />
  <path
     fill-rule="evenodd"
     clip-rule="evenodd"
     d="m 600,788.174 c -55.574,32.024 -126.238,34.359 -185.781,-0.018 -59.542,-34.377 -92.852,-96.741 -92.906,-160.882 55.575,-32.024 126.239,-34.359 185.781,0.018 59.543,34.377 92.853,96.741 92.906,160.882 z"
     fill="#20cd70"
     id="path4" />
  <path
     fill-rule="evenodd"
     clip-rule="evenodd"
     d="m 599.999,788.156 c 55.574,32.024 126.238,34.359 185.781,-0.018 59.542,-34.376 92.852,-96.741 92.906,-160.882 -55.575,-32.024 -126.239,-34.359 -185.781,0.018 -59.543,34.377 -92.853,96.741 -92.906,160.882 z"
     fill="#36f790"
     id="path5" />
  <path
     fill-rule="evenodd"
     clip-rule="evenodd"
     d="m 600,566.392 c -55.574,32.024 -126.238,34.359 -185.781,-0.018 -59.542,-34.377 -92.852,-96.741 -92.906,-160.882 55.575,-32.024 126.239,-34.359 185.781,0.018 59.543,34.376 92.853,96.741 92.906,160.882 z"
     fill="#aeff7c"
     id="path6" />
  <path
     fill-rule="evenodd"
     clip-rule="evenodd"
     d="m 599.999,566.374 c 55.574,32.024 126.238,34.359 185.781,-0.018 59.542,-34.377 92.852,-96.741 92.906,-160.882 -55.575,-32.024 -126.239,-34.359 -185.781,0.018 -59.543,34.377 -92.853,96.741 -92.906,160.882 z"
     fill="#e1ffac"
     id="path7" />
</svg>
