<svg width="1200" height="1201" viewBox="0 0 1200 1201" fill="none" xmlns="http://www.w3.org/2000/svg">
<rect width="1200" height="1200" transform="translate(0 0.5)" fill="black"/>
<circle cx="599.999" cy="915.117" r="128.496" fill="#FFF479"/>
<path fill-rule="evenodd" clip-rule="evenodd" d="M714.235 548.519C692.879 589.86 649.74 618.122 599.999 618.122C550.259 618.122 507.12 589.86 485.763 548.519C476.65 566.161 471.503 586.185 471.503 607.412C471.503 678.378 529.033 735.908 599.999 735.908C670.966 735.908 728.496 678.378 728.496 607.412C728.496 586.185 723.349 566.161 714.235 548.519Z" fill="#EDE5A6"/>
<path fill-rule="evenodd" clip-rule="evenodd" d="M722.387 355.834C705.795 407.598 657.273 445.069 599.999 445.069C542.726 445.069 494.204 407.598 477.612 355.834C473.645 368.21 471.503 381.403 471.503 395.096C471.503 466.062 529.033 523.592 599.999 523.592C670.966 523.592 728.496 466.062 728.496 395.096C728.496 381.403 726.354 368.21 722.387 355.834Z" fill="#EEEBD3"/>
<path fill-rule="evenodd" clip-rule="evenodd" d="M726.709 188.077C716.488 248.82 663.648 295.097 599.999 295.097C536.351 295.097 483.511 248.82 473.29 188.077C472.115 195.061 471.503 202.236 471.503 209.554C471.503 280.521 529.033 338.051 599.999 338.051C670.966 338.051 728.496 280.521 728.496 209.554C728.496 202.236 727.884 195.061 726.709 188.077Z" fill="#FEFEFE"/>
</svg>
