<?xml version="1.0" encoding="UTF-8" standalone="no"?>
<svg
   width="1200"
   height="1201"
   viewBox="0 0 1200 1201"
   fill="none"
   version="1.1"
   id="svg3"
   xmlns="http://www.w3.org/2000/svg"
   xmlns:svg="http://www.w3.org/2000/svg">
  <defs
     id="defs3" />
  <path
     id="circle1"
     style="fill:#fff479"
     d="m 728.49503,915.117 a 128.496,128.496 0 0 1 -128.49601,128.496 128.496,128.496 0 0 1 -128.496,-128.496 128.496,128.496 0 0 1 128.496,-128.496 128.496,128.496 0 0 1 128.49601,128.496 z" />
  <path
     fill-rule="evenodd"
     clip-rule="evenodd"
     d="m 714.235,548.519 c -21.356,41.341 -64.495,69.603 -114.236,69.603 -49.74,0 -92.879,-28.262 -114.236,-69.603 -9.113,17.642 -14.26,37.666 -14.26,58.893 0,70.966 57.53,128.496 128.496,128.496 70.967,0 128.497,-57.53 128.497,-128.496 0,-21.227 -5.147,-41.251 -14.261,-58.893 z"
     fill="#ede5a6"
     id="path1" />
  <path
     fill-rule="evenodd"
     clip-rule="evenodd"
     d="m 722.387,355.834 c -16.592,51.764 -65.114,89.235 -122.388,89.235 -57.273,0 -105.795,-37.471 -122.387,-89.235 -3.967,12.376 -6.109,25.569 -6.109,39.262 0,70.966 57.53,128.496 128.496,128.496 70.967,0 128.497,-57.53 128.497,-128.496 0,-13.693 -2.142,-26.886 -6.109,-39.262 z"
     fill="#eeebd3"
     id="path2" />
  <path
     fill-rule="evenodd"
     clip-rule="evenodd"
     d="m 726.709,188.077 c -10.221,60.743 -63.061,107.02 -126.71,107.02 -63.648,0 -116.488,-46.277 -126.709,-107.02 -1.175,6.984 -1.787,14.159 -1.787,21.477 0,70.967 57.53,128.497 128.496,128.497 70.967,0 128.497,-57.53 128.497,-128.497 0,-7.318 -0.612,-14.493 -1.787,-21.477 z"
     fill="#fefefe"
     id="path3" />
</svg>
