<?xml version="1.0" encoding="UTF-8" standalone="no"?>
<svg
   width="1200"
   height="1200"
   viewBox="0 0 1200 1200"
   fill="none"
   version="1.1"
   id="svg8"
   xmlns="http://www.w3.org/2000/svg"
   xmlns:svg="http://www.w3.org/2000/svg">
  <defs
     id="defs8" />
  <path
     id="circle1"
     style="fill:#fff8de"
     d="M 1053,600 A 453,453 0 0 1 600,1053 453,453 0 0 1 147,600 453,453 0 0 1 600,147 453,453 0 0 1 1053,600 Z" />
  <path
     d="m 549.731,200.83 c -74.562,8.028 -142.689,37.506 -198.1,82.14 -17.214,13.874 -18.494,39.668 -2.855,55.308 l 226.887,226.887 c 5.692,5.691 15.432,1.66 15.432,-6.384 V 237.904 c 0,-22.213 -19.29,-39.461 -41.364,-37.074 z"
     fill="#df5c45"
     id="path1" />
  <path
     d="m 649.463,999.962 c 74.562,-8.027 142.688,-37.506 198.1,-82.139 17.213,-13.874 18.493,-39.669 2.854,-55.308 L 623.53,635.628 c -5.691,-5.691 -15.431,-1.66 -15.431,6.384 v 320.877 c 0,22.213 19.289,39.461 41.364,37.073 z"
     fill="#fbd95d"
     id="path2" />
  <path
     d="m 282.675,353.27 c -47.038,58.387 -74.371,127.413 -81.983,198.152 -2.37,21.988 14.981,41.122 37.09,41.122 h 320.843 c 8.044,0 12.075,-9.74 6.383,-15.432 L 338.121,350.225 c -15.691,-15.691 -41.519,-14.255 -55.446,3.028 z"
     fill="#fb755d"
     id="path3" />
  <path
     d="M 916.518,847.523 C 963.556,789.136 990.89,720.11 998.502,649.371 1000.87,627.383 983.52,608.249 961.411,608.249 H 640.569 c -8.045,0 -12.076,9.74 -6.384,15.432 l 226.887,226.887 c 15.691,15.691 41.52,14.255 55.446,-3.028 z"
     fill="#ffe481"
     id="path4" />
  <path
     d="m 200.678,649.872 c 8.028,74.562 37.506,142.689 82.14,198.1 13.874,17.213 39.668,18.493 55.307,2.854 L 565.012,623.939 c 5.692,-5.691 1.661,-15.431 -6.383,-15.431 H 237.752 c -22.196,0 -39.444,19.289 -37.056,41.364 z"
     fill="#fb9f5d"
     id="path5" />
  <path
     d="m 998.515,550.922 c -8.027,-74.563 -37.506,-142.689 -82.14,-198.101 -13.874,-17.213 -39.668,-18.493 -55.307,-2.854 L 634.181,576.854 c -5.692,5.692 -1.661,15.431 6.384,15.431 h 320.876 c 22.196,0 39.449,-19.289 37.057,-41.363 z"
     fill="#ffedaa"
     id="path6" />
  <path
     d="m 351.788,917.983 c 58.386,47.038 127.413,74.372 198.152,81.984 21.988,2.373 41.121,-14.982 41.121,-37.091 V 642.034 c 0,-8.045 -9.739,-12.076 -15.431,-6.384 L 348.743,862.537 c -15.691,15.691 -14.255,41.52 3.027,55.446 z"
     fill="#fbc45d"
     id="path7" />
  <path
     d="m 847.406,282.81 c -58.387,-47.038 -127.413,-74.372 -198.152,-81.984 -21.988,-2.37 -41.122,14.982 -41.122,37.091 v 320.842 c 0,8.045 9.74,12.076 15.431,6.384 L 850.451,338.256 c 15.69,-15.691 14.255,-41.52 -3.028,-55.446 z"
     fill="#d7391d"
     id="path8" />
</svg>
